<svg id="图层_1" data-name="图层 1" xmlns="http://www.w3.org/2000/svg" xmlns:xlink="http://www.w3.org/1999/xlink" viewBox="0 0 4000 3000"><defs><style>.cls-1,.cls-7,.cls-8{fill:none;}.cls-2{fill:#ffbed0;}.cls-15,.cls-3{fill:#fdfffe;}.cls-3,.cls-8{stroke:#3f3c3f;stroke-linecap:round;stroke-linejoin:round;stroke-width:9.4685px;}.cls-4{fill:#4982c0;}.cls-5{fill:#49acd9;}.cls-6{clip-path:url(#clip-path);}.cls-7{opacity:0.09;}.cls-9{fill:#fff;}.cls-10{fill:#ffd0af;}.cls-11{fill:#8a8a6e;}.cls-12{fill:#ac7f8d;}.cls-13{clip-path:url(#clip-path-2);}.cls-14{fill:#ffa1c2;}.cls-16{clip-path:url(#clip-path-3);}.cls-17{fill:#3f3c3f;}.cls-18{clip-path:url(#clip-path-4);}.cls-19{fill:url(#未命名的渐变_256);}.cls-20{fill:url(#未命名的渐变_64);}.cls-21{opacity:0.28;}.cls-22{fill:#eb3d6e;}.cls-23{fill:url(#未命名的渐变_64-2);}.cls-24{clip-path:url(#clip-path-5);}.cls-25{fill:#3070a0;}.cls-26{clip-path:url(#clip-path-6);}.cls-27{clip-path:url(#clip-path-7);}.cls-28{fill:#2b8acd;}.cls-29{clip-path:url(#clip-path-8);}</style><clipPath id="clip-path"><rect class="cls-1" width="4000" height="3000"/></clipPath><clipPath id="clip-path-2"><path class="cls-2" d="M1803.55,754.8674c-63.91,13.8436-52.6648,69.14,8,88.6174s-5.5394,67.0855,29.7083,88.4518c68.781-3.7278,30.521,97.5108,125.2095,87.1861s218.4085,213.4234,352.9,179.8682,128.6869-95.303,238.0561-63.0384,269.6017-48.6533,269.6017-48.6533-147.385-4.303-223.7375-75.4369c-126.7254-118.0639-278.1109,13.1489-318.5233-53.0081-69.0192-112.9875-218.051,37.528-270.0483-79.0815C1970.5546,780.7347,1922.7117,729.0557,1803.55,754.8674Z"/></clipPath><clipPath id="clip-path-3"><path class="cls-3" d="M2534.3505,1152.6706c83.2631-27.8881,441.48-102.7454,461.66-105.681,0,0,213.1964-253.2441,285.28-316.7166,30.8571-27.1709-19.5247-73.7158,8.4388-78.1191s228.6869-41.0982,264.787-27.8881,16.82,26.42-18.8352,30.8237-166.6858,52.84-186.6143,101.2775-194.8112,343.4631-267.5793,375.7545-454.2315,85.1319-454.2315,85.1319Z"/></clipPath><clipPath id="clip-path-4"><path class="cls-3" d="M1818.2547,999.9124c136.2321,98.2456-.8994,305.4358,195.47,339.1943,201.367-5.65,347.96-48.4878,535.6142,25.4418,125.0067,36.3738,402.9164-25.1758,563.1657-110.2337,126.4588-65.7234,427.4558-468.382,673.3378-369.6419,48.1956-12.1461-39.5916-42.1148-112.397-83.5986-180.2592-80.98-87.7589,32.8926-213.3887,77.7889-455.056,149.5457-210.0087,198.3369-490.5784,232.7062-178.9395,32.81-398.3054,58.6433-449.442,14.73-98.355,33.5763-207.3725,42.7311-281.87,4.2795-202.027-215.7755-287.2241-80.3822-366.3984-201.9876"/></clipPath><linearGradient id="未命名的渐变_256" x1="1851.5902" y1="910.406" x2="1918.351" y2="1177.4491" gradientTransform="matrix(1, 0, -0.0607, 0.9737, 85.5519, 31.4461)" gradientUnits="userSpaceOnUse"><stop offset="0.1011" stop-color="#ffc0a0"/><stop offset="0.8855" stop-color="#ff3513"/></linearGradient><linearGradient id="未命名的渐变_64" x1="2328.7694" y1="1246.0354" x2="2560.9069" y2="1246.0354" gradientTransform="matrix(1, 0, -0.0607, 0.9737, 85.5519, 31.4461)" gradientUnits="userSpaceOnUse"><stop offset="0" stop-color="#e33867"/><stop offset="0.9668" stop-color="#f39190"/></linearGradient><linearGradient id="未命名的渐变_64-2" x1="2076.8353" y1="1175.3705" x2="2140.2626" y2="1175.3705" xlink:href="#未命名的渐变_64"/><clipPath id="clip-path-5"><path class="cls-4" d="M3235.532,772.9987s83.9085,0,139.59,82.5656c27.988,41.5012-177.9022,280.1241-238.6782,319.9848s-681.6608,69.1084-681.6608,69.1084l-20.0458-128.4112S2826.45,1023.98,2996.011,1046.99C3012.5111,1011.8623,3235.532,772.9987,3235.532,772.9987Z"/></clipPath><clipPath id="clip-path-6"><path class="cls-4" d="M3462.99,877.4762s44.8514,44.0574,26.1093,162.1658c-5.4276,34.204-278.9653,169.7576-384.954,233.5667s-517.6341,165.1679-655.8511,75.97l14.2172-229.0284s140.7764-108.2879,533.6678-13.5866C3283.8314,914.43,3462.99,877.4762,3462.99,877.4762Z"/></clipPath><clipPath id="clip-path-7"><path class="cls-5" d="M1854.5324,1056.4037c60.361-140.6361,142.05-122.3881,344.828-33.9222,141.9479,119.5652,300.3059,22.919,302.2211,18.7033,0,0,82.1635,372.6987-13.1121,383.9941s-194.4787-112.01-352.25-80.9166C1792.6759,1411.9671,1854.5324,1056.4037,1854.5324,1056.4037Z"/></clipPath><clipPath id="clip-path-8"><path class="cls-3" d="M2616.8925,1488.7978c29.2577,16.3865,97.1946,79.9967,211.9084,70.6727-13.4161-15.74-79.7067-23.8261-74.4184-29.352-5.45,2.7508,114.6868.1106,81.5671-17.6345-12.7029-6.3429-74.21,10.83-71.1981-7.6951,31.6307,1.4807,113.1769-16.2736-2.5293-18.1658-5.8917-2.0218,58.5056-11.7315,56.5963-26.539-19.03-8.0814-69.2371,13.6974-71.1,6.6694-71.5354-18.257-128.777-33.8794-195.8319-84.7568-262.1914-141.4335-463.2233-409.6393-605.5182-362.8154-104.4973,31.4524-31.48,174.8728,52.4329,228.9673,51.4353,34.465,101.06,16.7967,165.7181,42.7582,91.247,27.0247,131.8683,71.2,228.8094,122.1524C2492.084,1459.9194,2614.0352,1487.7618,2616.8925,1488.7978Z"/></clipPath></defs><title>商务2-03</title><g class="cls-6"><rect class="cls-7" x="-677" y="-592" width="5354" height="4172"/><path class="cls-8" d="M2924.4877,719.7353l-32.4827-32.6636.342-64.1119a84.5746,84.5746,0,0,0-84.6572-85.129h-64.0985l-45.0832-45.3344c-33.06-33.2445-86.95-33.2445-120.3657,0l-45.5668,45.3344H2486.393a85.6709,85.6709,0,0,0-85.5662,85.129l-.2464,46.193-32.83,32.6629c-33.4158,33.2453-33.7034,87.1461-.6422,120.3915L2399.59,854.87l-.342,64.1127a84.5747,84.5747,0,0,0,84.6581,85.129h64.0977l45.0831,45.3344c33.0612,33.2446,86.9508,33.2446,120.3666,0l45.5667-45.3344h46.1826a85.6707,85.6707,0,0,0,85.5654-85.129l.2464-46.193,32.8311-32.6636C2957.2613,806.8815,2957.5488,752.98,2924.4877,719.7353Z"/><path class="cls-9" d="M3230.7773,2532.437H1603.6952a73.648,73.648,0,0,1-73.72-74.131l5.5658-1043.4541a74.6026,74.6026,0,0,1,74.511-74.131H3237.134a73.6481,73.6481,0,0,1,73.72,74.131l-5.5658,1043.4541A74.6027,74.6027,0,0,1,3230.7773,2532.437Z"/><path class="cls-8" d="M3230.7773,2532.437H1603.6952a73.648,73.648,0,0,1-73.72-74.131l5.5658-1043.4541a74.6026,74.6026,0,0,1,74.511-74.131H3237.134a73.6481,73.6481,0,0,1,73.72,74.131l-5.5658,1043.4541A74.6027,74.6027,0,0,1,3230.7773,2532.437Z"/><path class="cls-9" d="M2404.1291,1953.8008a270.2072,270.2072,0,0,1,145.8426,34.91l205.468-379.3478c-108.91-59.8-235.228-91.3335-368.7394-85.2043-314.76,14.45-572.7315,233.7389-650.4129,523.1631l415.337,109.5918C2181.7858,2044.55,2281.9305,1959.4107,2404.1291,1953.8008Z"/><path class="cls-10" d="M2682.0417,2169.291l421.1494-90.22c-42.3465-203.765-172.3942-373.4188-347.7514-469.7079l-205.468,379.3478A270.6772,270.6772,0,0,1,2682.0417,2169.291Z"/><path class="cls-11" d="M2402.443,1609.9542l-92.8643,587.5981a6.3108,6.3108,0,0,0,.9216,4.35l88.965,143.4314c3.655,5.8926,14.474,5.8925,18.1917,0l90.4886-143.4314a6.35,6.35,0,0,0,.9679-4.3492l-86.5893-587.5981C2421.1641,1600.7243,2403.9017,1600.7242,2402.443,1609.9542Z"/><path class="cls-8" d="M2882.1113,2272.8974a234.266,234.266,0,0,1-66.7692,60.2481"/><path class="cls-8" d="M2139.8181,1725.2577a75.616,75.616,0,0,1-40.8335,35.3695"/><path class="cls-8" d="M1610.0519,1340.7209H3237.134a73.6481,73.6481,0,0,1,73.72,74.131"/><line class="cls-8" x1="3230.7773" y1="2532.437" x2="1603.6952" y2="2532.437"/><path class="cls-8" d="M2386.7,1524.1585c-314.76,14.45-572.7315,233.7389-650.4129,523.1631"/><line class="cls-8" x1="2417.657" y1="2345.333" x2="2508.1456" y2="2201.9016"/><path class="cls-3" d="M2087.3253,1970.0863H330.7268a130.2474,130.2474,0,0,1-130.3749-131.1014l4.3927-823.5138C205.1308,943.0658,264.1278,884.37,336.518,884.37H2093.1165a130.2474,130.2474,0,0,1,130.3749,131.1014l-4.3927,823.5138C2218.7125,1911.39,2159.7155,1970.0863,2087.3253,1970.0863Z"/><path class="cls-12" d="M592.6507,1193.2754H581.2682c-22.5615,0-40.9379,16.3723-41.0456,36.5686l-2.61,489.308c-.1077,20.1959,18.094,36.5682,40.6555,36.5682h11.3825c22.5615,0,40.94-16.3723,41.0475-36.5682l2.61-489.308C633.4158,1209.6477,615.2122,1193.2754,592.6507,1193.2754Z"/><path class="cls-12" d="M809.8691,1429.5372H779.0033c-17.1811,0-31.1763,12.4682-31.2584,27.8483l-1.4427,270.4868c-.0821,15.38,13.78,27.8479,30.9612,27.8479h30.8659c17.1811,0,31.1763-12.4678,31.2583-27.8479l1.4428-270.4868C840.9125,1442.0054,827.05,1429.5372,809.8691,1429.5372Z"/><path class="cls-12" d="M1017.0984,1392.8877H989.6372c-18.1222,0-32.8823,13.15-32.9688,29.371l-1.622,304.0906c-.0866,16.2212,14.5333,29.3709,32.6555,29.3709h27.4611c18.1222,0,32.8823-13.15,32.9688-29.3709l1.6221-304.0906C1049.84,1406.0374,1035.2206,1392.8877,1017.0984,1392.8877Z"/><path class="cls-12" d="M1216.065,1098.7358h-4.7823c-24.3849,0-44.2469,17.695-44.3633,39.5227l-3.0828,577.9394c-.1164,21.8277,19.5568,39.5223,43.9417,39.5223h4.7823c24.383,0,44.2451-17.6946,44.3615-39.5223l3.0827-577.9394C1260.1213,1116.4308,1240.448,1098.7358,1216.065,1098.7358Z"/><path class="cls-12" d="M1427.5969,1193.2754h-11.3825c-22.5615,0-40.9379,16.3723-41.0456,36.5686l-2.61,489.308c-.1078,20.1959,18.094,36.5682,40.6555,36.5682h11.3825c22.5615,0,40.9379-16.3723,41.0456-36.5682l2.61-489.308C1468.36,1209.6477,1450.1584,1193.2754,1427.5969,1193.2754Z"/><path class="cls-12" d="M1639.3139,1284.7607h-18.32c-20.6463,0-37.4616,14.9815-37.56,33.4622l-2.1551,404.0347c-.0986,18.4812,16.5568,33.4626,37.2032,33.4626h18.32c20.6463,0,37.4616-14.9814,37.56-33.4626l2.1552-404.0347C1676.6156,1299.7422,1659.96,1284.7607,1639.3139,1284.7607Z"/><path class="cls-12" d="M1845.0691,1193.2754h-11.3807c-22.5633,0-40.94,16.3723-41.0475,36.5686l-2.61,489.308c-.1077,20.1959,18.0941,36.5682,40.6574,36.5682h11.3807c22.5614,0,40.94-16.3723,41.0474-36.5682l2.61-489.308C1885.8341,1209.6477,1867.6305,1193.2754,1845.0691,1193.2754Z"/><path class="cls-8" d="M780.5409,1018.6067,724.7137,1069.49"/><path class="cls-8" d="M2013.8149,1535.1639l-15.31,20.2731"/><line class="cls-8" x1="336.518" y1="884.3697" x2="2093.1165" y2="884.3697"/><line class="cls-8" x1="540.2226" y1="1229.844" x2="537.6126" y2="1719.152"/><line class="cls-8" x1="1166.9194" y1="1138.2585" x2="1163.8366" y2="1716.1979"/><line class="cls-8" x1="1583.4334" y1="1318.2229" x2="1581.2783" y2="1722.2576"/><path class="cls-3" d="M2247.7023,958.383c60.7768-20.695,305.2385-82.8344,170.5744-32.91,11.8878-2.344,62.9688-10.3338,61.51,2.9112-3.7392,5.8632-61.0156,2.9747-46.8321,8.6415,121.4892,12.3823,36.8791,15.9958-1.1273,16.93-3.7634,3.4966,25.1916,5.0724,46.5475,7.5172,48.4108,12.6086-226.2574,19.6929-225.9241,25.4676"/><path class="cls-3" d="M1828.6149,793.6684c-77.2885-78.0115-199.2832,251.3358-10.36,206.244C1946.3944,969.3283,1938.2479,852.1245,1828.6149,793.6684Z"/><path class="cls-2" d="M1803.55,754.8674c-63.91,13.8436-52.6648,69.14,8,88.6174s-5.5394,67.0855,29.7083,88.4518c68.781-3.7278,30.521,97.5108,125.2095,87.1861s218.4085,213.4234,352.9,179.8682,128.6869-95.303,238.0561-63.0384,269.6017-48.6533,269.6017-48.6533-147.385-4.303-223.7375-75.4369c-126.7254-118.0639-278.1109,13.1489-318.5233-53.0081-69.0192-112.9875-218.051,37.528-270.0483-79.0815C1970.5546,780.7347,1922.7117,729.0557,1803.55,754.8674Z"/><g class="cls-13"><path class="cls-14" d="M1873.71,975.3482c141.0067-95.5755,194.1385-8.151,348.293,64.2938s-260.8516,64.2938-260.8516,64.2938"/></g><path class="cls-15" d="M2534.3505,1152.6706c83.2631-27.8881,441.48-102.7454,461.66-105.681,0,0,213.1964-253.2441,285.28-316.7166,30.8571-27.1709-19.5247-73.7158,8.4388-78.1191s228.6869-41.0982,264.787-27.8881,16.82,26.42-18.8352,30.8237-166.6858,52.84-186.6143,101.2775-194.8112,343.4631-267.5793,375.7545-454.2315,85.1319-454.2315,85.1319Z"/><g class="cls-16"><path class="cls-17" d="M3402.06,801.0889c-50.1889,33.0295-86.694-46.5833-116.7992,3.8831-17.9752,30.1322,36.9639,52.4644,85.0111,69.4424"/></g><path class="cls-8" d="M2534.3505,1152.6706c83.2631-27.8881,441.48-102.7454,461.66-105.681,0,0,213.1964-253.2441,285.28-316.7166,30.8571-27.1709-19.5247-73.7158,8.4388-78.1191s228.6869-41.0982,264.787-27.8881,16.82,26.42-18.8352,30.8237-166.6858,52.84-186.6143,101.2775-194.8112,343.4631-267.5793,375.7545-454.2315,85.1319-454.2315,85.1319Z"/><path class="cls-15" d="M1818.2547,999.9124c136.2321,98.2456-.8994,305.4358,195.47,339.1943,201.367-5.65,347.96-48.4878,535.6142,25.4418,125.0067,36.3738,402.9164-25.1758,563.1657-110.2337,126.4588-65.7234,427.4558-468.382,673.3378-369.6419,48.1956-12.1461-39.5916-42.1148-112.397-83.5986-180.2592-80.98-87.7589,32.8926-213.3887,77.7889-455.056,149.5457-210.0087,198.3369-490.5784,232.7062-178.9395,32.81-398.3054,58.6433-449.442,14.73-98.355,33.5763-207.3725,42.7311-281.87,4.2795-202.027-215.7755-287.2241-80.3822-366.3984-201.9876"/><g class="cls-18"><path class="cls-17" d="M3533.1491,952.6065c-62.3335-113.348-76.6376-50.4562-76.6376-50.4562-34.0094,115.3555,20.7378,70.0716,91.48,76.8464Z"/></g><path class="cls-8" d="M1818.2547,999.9124c136.2321,98.2456-.8994,305.4358,195.47,339.1943,201.367-5.65,347.96-48.4878,535.6142,25.4418,125.0067,36.3738,402.9164-25.1758,563.1657-110.2337,126.4588-65.7234,427.4558-468.382,673.3378-369.6419,48.1956-12.1461-39.5916-42.1148-112.397-83.5986-180.2592-80.98-87.7589,32.8926-213.3887,77.7889-455.056,149.5457-210.0087,198.3369-490.5784,232.7062-178.9395,32.81-398.3054,58.6433-449.442,14.73-98.355,33.5763-207.3725,42.7311-281.87,4.2795-202.027-215.7755-287.2241-80.3822-366.3984-201.9876"/><path class="cls-19" d="M1913.85,975.3482c-10.49,67.783-82.5186,101.2241-23.5293,128.5876C1948.3994,1018.7559,1969.2983,1015.1637,1913.85,975.3482Z"/><path class="cls-20" d="M2344.2409,1155.6062c109.991,127.9042-7.6195,183.8131,131.5139,223.3423,0,0,46.5266-198.2627,101.1342-231.5327C2576.889,1147.4158,2503.1206,1058.8372,2344.2409,1155.6062Z"/><path class="cls-3" d="M1837.07,954.6156c94.9306-20.8712,65.8005-119.18-13.9494-33.082"/><g class="cls-21"><path class="cls-22" d="M1840.2315,929.6423c12.6328-3.0315,27.6124-15.6651,34.53-25.8222C1892.1518,887.3439,1860.251,939.7429,1840.2315,929.6423Z"/></g><path class="cls-23" d="M2152.2569,1052.3568c34.1943,17.9819-39.2312,66.7975-50.4707,246.3846C2058.3582,1311.7775,2110.5087,1112.2234,2152.2569,1052.3568Z"/><path class="cls-4" d="M3235.532,772.9987s83.9085,0,139.59,82.5656c27.988,41.5012-177.9022,280.1241-238.6782,319.9848s-681.6608,69.1084-681.6608,69.1084l-20.0458-128.4112S2826.45,1023.98,2996.011,1046.99C3012.5111,1011.8623,3235.532,772.9987,3235.532,772.9987Z"/><g class="cls-24"><path class="cls-25" d="M2798.2342,1110.3666c-13.4872-70.4331,82.331-32.9392,178.8219-36.382s276.5379-205.0728,325.8326-139.226-383.6018,213.25-383.6018,213.25"/></g><ellipse class="cls-17" cx="1748.4783" cy="887.6867" rx="10.791" ry="10.7336" transform="translate(-104.2226 1530.0754) rotate(-46.0395)"/><path class="cls-3" d="M1726.0481,893.5291c-45.6456,9.4446-4.18,42.746-4.18,42.746"/><path class="cls-3" d="M1775.3234,938.675a18.9446,18.9446,0,0,1-16.449,21.0222"/><line class="cls-3" x1="1869.2126" y1="905.8837" x2="1860.4686" y2="922.766"/><path class="cls-4" d="M3462.99,877.4762s44.8514,44.0574,26.1093,162.1658c-5.4276,34.204-278.9653,169.7576-384.954,233.5667s-517.6341,165.1679-655.8511,75.97l14.2172-229.0284s140.7764-108.2879,533.6678-13.5866C3283.8314,914.43,3462.99,877.4762,3462.99,877.4762Z"/><g class="cls-26"><path class="cls-25" d="M2462.5117,1120.15c189.5322-75.04-45.7111,328.6143,277.373,305.7625s-242.1115,104.6765-242.1115,104.6765l-224.18-265.5571L2462.5117,1120.15"/><path class="cls-25" d="M2967.09,1094.7452c33.1313,5.7814-53.0566,112.3883-33.22,114.2463s85.2-125.11,103.3911-135.0069-51.1678,5.4319-51.1678,5.4319"/></g><path class="cls-4" d="M1733.4918,788.3774l1.3132-24.6935c15.0435-4.7328,76.2389,46.5957,99.4889,48.779C1814.3948,827.7821,1749.69,792.4557,1733.4918,788.3774Z"/><path class="cls-4" d="M1699.311,847.864c-41.4259,59.22,12.7983,49.788,53.4354,54.0295,32.884-9.0031,73.6767-56.7606,81.0013-85.9407C1801.4752,799.6644,1725.0463,818.7469,1699.311,847.864Z"/><path class="cls-4" d="M1794.52,868.0757c31.7115,25.9749,50.6695-14.4153,45.9853-39.2822C1808.7827,802.8194,1789.8247,843.21,1794.52,868.0757Z"/><path class="cls-4" d="M1893.8611,901.8614c43.2437-61.6639-32.7477-48.6185-59.4205-68.0759l-16.8552,39.975"/><path class="cls-4" d="M1834.2939,812.4629c-21.6542,76.0556-103.7276,74.4506-144.1388,43.795-.4944.5414,43.6437-90.1181,44.65-92.574C1734.805,763.6839,1730.47,772.6739,1834.2939,812.4629Z"/><path class="cls-3" d="M1837.07,954.6156c94.9306-20.8712,65.8005-119.18-13.9494-33.082"/><path class="cls-5" d="M1854.5324,1056.4037c60.361-140.6361,142.05-122.3881,344.828-33.9222,141.9479,119.5652,300.3059,22.919,302.2211,18.7033,0,0,82.1635,372.6987-13.1121,383.9941s-194.4787-112.01-352.25-80.9166C1792.6759,1411.9671,1854.5324,1056.4037,1854.5324,1056.4037Z"/><g class="cls-27"><path class="cls-28" d="M1924.7916,1171.8223c-46.0572,45.5524,94.6127,136.5065,83.2,197.91s323.0723-1.858,323.0723-1.858l-161.59-150.6212"/></g><path class="cls-15" d="M2616.8925,1488.7978c29.2577,16.3865,97.1946,79.9967,211.9084,70.6727-13.4161-15.74-79.7067-23.8261-74.4184-29.352-5.45,2.7508,114.6868.1106,81.5671-17.6345-12.7029-6.3429-74.21,10.83-71.1981-7.6951,31.6307,1.4807,113.1769-16.2736-2.5293-18.1658-5.8917-2.0218,58.5056-11.7315,56.5963-26.539-19.03-8.0814-69.2371,13.6974-71.1,6.6694-71.5354-18.257-128.777-33.8794-195.8319-84.7568-262.1914-141.4335-463.2233-409.6393-605.5182-362.8154-104.4973,31.4524-31.48,174.8728,52.4329,228.9673,51.4353,34.465,101.06,16.7967,165.7181,42.7582,91.247,27.0247,131.8683,71.2,228.8094,122.1524C2492.084,1459.9194,2614.0352,1487.7618,2616.8925,1488.7978Z"/><g class="cls-29"><path class="cls-17" d="M2103.696,1190.0231c67.7168-21.4668,1.0438,140.5414,34.6675,189.5183s-150.6954,45.2361-150.6954,45.2361l-10.8827-130.7967,101.1233-98.4751"/></g><path class="cls-8" d="M2616.8925,1488.7978c29.2577,16.3865,97.1946,79.9967,211.9084,70.6727-13.4161-15.74-79.7067-23.8261-74.4184-29.352-5.45,2.7508,114.6868.1106,81.5671-17.6345-12.7029-6.3429-74.21,10.83-71.1981-7.6951,31.6307,1.4807,113.1769-16.2736-2.5293-18.1658-5.8917-2.0218,58.5056-11.7315,56.5963-26.539-19.03-8.0814-69.2371,13.6974-71.1,6.6694-71.5354-18.257-128.777-33.8794-195.8319-84.7568-262.1914-141.4335-463.2233-409.6393-605.5182-362.8154-104.4973,31.4524-31.48,174.8728,52.4329,228.9673,51.4353,34.465,101.06,16.7967,165.7181,42.7582,91.247,27.0247,131.8683,71.2,228.8094,122.1524C2492.084,1459.9194,2614.0352,1487.7618,2616.8925,1488.7978Z"/><path class="cls-5" d="M2152.6617,1079.3966c-.426,22.9265-67.7933,322.6072-109.0427,247.7614C1760.5547,1049.4331,1903.259,907.2717,2152.6617,1079.3966Z"/><path class="cls-17" d="M1861.5558,905.6376c21.9913-15.8465,24.1291,11.6965,10.2125,22.9538S1870.6333,911.8409,1861.5558,905.6376Z"/><path class="cls-25" d="M2661.5992,1299.3515c78.9165-24.26,68.1759-90.36,68.1759-90.36"/><path class="cls-28" d="M2380.1532,1185.95c37.434-50.4956-1.2325-81.0088-1.2325-81.0088"/><path class="cls-14" d="M1930.8355,875.9914c20.93-58.2058-26.0254-75.4861-26.0254-75.4861"/><line class="cls-8" x1="3233.9384" y1="967.2845" x2="2996.1795" y2="1106.5636"/><line class="cls-8" x1="2018.9884" y1="1308.5544" x2="1911.1884" y2="1171.8223"/><path class="cls-8" d="M2533.6336,1287.0815s-7.4909-118.3838-19.7715-182.14"/><path class="cls-8" d="M2241.6228,992.89c28.424,29.0456,72.324,41.98,112.1221,33.0362"/><path class="cls-8" d="M660.7794,1789.6754c271.0258-224.2711,396.1151-163.4518,428.6968,140.6446s396.5-235.6747,459.3433,95.03,294.6279,338.3073,386.3245,247.0784,148.4189-38.0121,148.4189-38.0121"/></g></svg>