<?xml version="1.0" encoding="UTF-8"?>
<svg width="208px" height="200px" viewBox="0 0 208 200" version="1.1" xmlns="http://www.w3.org/2000/svg" xmlns:xlink="http://www.w3.org/1999/xlink">
    <title>Group 261</title>
    <defs>
        <path d="M14.135,0.949 C6.356,0.949 0.051,7.254 0.051,15.033 L0.051,15.033 L0.051,83.156 C0.051,90.935 6.356,97.24 14.135,97.24 L14.135,97.24 L82.258,97.24 C90.037,97.24 96.342,90.935 96.342,83.156 L96.342,83.156 L96.342,15.033 C96.342,7.254 90.037,0.949 82.258,0.949 L82.258,0.949" id="path-1"></path>
        <path d="M0.476,49.412 C0.476,54.934 2.485,59.982 5.799,63.886 L5.799,63.886 L49.089,26.819 L0.476,0.094" id="path-3"></path>
        <path d="M0.933,0.89 C0.154,2.367 2.133,6.09 1.716,6.97 L1.716,6.97 C-1.046,8.832 3.493,8.923 3.882,11.302 L3.882,11.302 C4.354,13.744 3.666,17.703 3.651,17.968 L3.651,17.968 C3.614,17.978 10.491,25.079 10.579,25.204 L10.579,25.204 C9.624,23.914 8.543,0.511 2.349,0.511 L2.349,0.511 C1.904,0.511 1.433,0.632 0.933,0.89" id="path-5"></path>
        <polygon id="path-7" points="1 0.5 1.5 0.5 1.5 1 1 1"></polygon>
        <polygon id="path-9" points="1 0.5 1.5 0.5 1.5 1 1 1"></polygon>
        <polygon id="path-11" points="1 0.5 1.5 0.5 1.5 1 1 1"></polygon>
        <polygon id="path-13" points="1 0.5 1.5 0.5 1.5 1 1 1"></polygon>
        <polygon id="path-15" points="1 0.5 1.5 0.5 1.5 1 1 1"></polygon>
        <polygon id="path-17" points="1 0.5 1.5 0.5 1.5 1 1 1"></polygon>
        <polygon id="path-19" points="1 0.5 1.5 0.5 1.5 1 1 1"></polygon>
        <polygon id="path-21" points="1 0.5 1.5 0.5 1.5 1 1 1"></polygon>
        <polygon id="path-23" points="1 0.5 1.5 0.5 1.5 1 1 1"></polygon>
        <path d="M0.778,19.782 C0.405,21.333 1.36,22.893 2.911,23.267 L2.911,23.267 L32.481,30.38 C34.031,30.754 35.592,29.799 35.965,28.247 L35.965,28.247 L40.608,8.949 L5.42,0.483 L0.778,19.782 Z" id="path-25"></path>
        <path d="M0.778,19.782 C0.405,21.333 1.36,22.893 2.911,23.267 L2.911,23.267 L32.481,30.38 C34.031,30.754 35.592,29.799 35.965,28.247 L35.965,28.247 L40.608,8.949 L5.42,0.483 L0.778,19.782 Z" id="path-27"></path>
        <path d="M0.778,19.782 C0.405,21.333 1.36,22.893 2.911,23.267 L2.911,23.267 L32.481,30.38 C34.031,30.754 35.592,29.799 35.965,28.247 L35.965,28.247 L40.608,8.949 L5.42,0.483 L0.778,19.782 Z" id="path-29"></path>
        <path d="M0.778,19.782 C0.405,21.333 1.36,22.893 2.911,23.267 L2.911,23.267 L32.481,30.38 C34.031,30.754 35.592,29.799 35.965,28.247 L35.965,28.247 L40.608,8.949 L5.42,0.483 L0.778,19.782 Z" id="path-31"></path>
        <path d="M0.778,19.782 C0.405,21.333 1.36,22.893 2.911,23.267 L2.911,23.267 L32.481,30.38 C34.031,30.754 35.592,29.799 35.965,28.247 L35.965,28.247 L40.608,8.949 L5.42,0.483 L0.778,19.782 Z" id="path-33"></path>
        <path d="M0.778,19.782 C0.405,21.333 1.36,22.893 2.911,23.267 L2.911,23.267 L32.481,30.38 C34.031,30.754 35.592,29.799 35.965,28.247 L35.965,28.247 L40.608,8.949 L5.42,0.483 L0.778,19.782 Z" id="path-35"></path>
        <path d="M0.778,19.782 C0.405,21.333 1.36,22.893 2.911,23.267 L2.911,23.267 L32.481,30.38 C34.031,30.754 35.592,29.799 35.965,28.247 L35.965,28.247 L40.608,8.949 L5.42,0.483 L0.778,19.782 Z" id="path-37"></path>
        <path d="M28.803,19.999 C28.803,19.999 4.622,4.481 0.658,11.071 L0.658,11.071 C-3.307,17.661 29.341,35.731 34.694,34.243 L34.694,34.243 C40.048,32.755 38.593,5.434 38.593,5.434 L38.593,5.434 C36.944,2.67 30.84,0.772 30.84,0.772 L30.84,0.772" id="path-39"></path>
        <path d="M9.033,0.231 C3.532,19.095 -1.476,37.832 0.439,37.832 L0.439,37.832 C4.202,37.832 23.112,39.96 23.1461605,38.471 L23.1461605,38.471 C23.204,35.902 7.524,35.599 9.649,28.992 L9.649,28.992 C10.522,26.279 14.86,12.302 19.538,0.231 L19.538,0.231" id="path-41"></path>
        <path d="M11.56,5.991 C11.115,7.684 5.344,26.016 0.033,44.231 L0.033,44.231 L10.538,44.231 C17.258,26.894 29.006,7.854 26.113,2.015 L26.113,2.015 C25.45,0.677 24.326,0.161 22.987,0.161 L22.987,0.161 C18.487,0.161 11.56,5.991 11.56,5.991" id="path-43"></path>
        <path d="M1.772,0.776 C0.928,5.135 0.129,22.512 1.24,22.623 L1.24,22.623 C2.957,22.795 3.922,19.862 4.922,16.929 L4.922,16.929 C6.064,13.583 7.252,10.237 9.656,11.5 L9.656,11.5 C11.507,12.474 19.024,17.228 27.242,22.496 L27.242,22.496 L27.543,10.159 C16.947,5.143 6.757,-0.003 3.137,-0.004 L3.137,-0.004 C2.352,-0.004 1.876,0.238 1.772,0.776" id="path-45"></path>
        <path d="M0.242,12.495 C12.152,18.991 23.421,31.084 28.219,25.596 L28.219,25.596 L42.127,10.924 C27.498,18.982 10.289,4.665 0.543,0.159 L0.543,0.159 C0.543,0.159 0.543,0.159 0.543,0.159 L0.543,0.159 C0.543,0.158 0.246,12.346 0.242,12.495" id="path-47"></path>
        <path d="M16.97,2.549 C18.992,26.966 -9.387,30.652 3.372,47.727 L3.372,47.727 C16.881,65.803 54.521,51.295 52.001,38.594 L52.001,38.594 C48.18,19.334 34.125,0.33 34.125,0.33 L34.125,0.33" id="path-49"></path>
        <path d="M0.006,1.837 L4.241,12.475 L14.925,11.027 C14.925,11.027 5.578,3.661 7.696,0.115 L7.696,0.115 L0.006,1.837 Z" id="path-51"></path>
        <path d="M6.726,35.221 C4.85,38.515 20.207,38.865 33.955,32.913 L33.955,32.913 C39.766,30.397 23.034,1.929 8.902,0.767 L8.902,0.767 C8.507,0.734 8.126,0.718 7.762,0.718 L7.762,0.718 C-8.994,0.715 7.16,34.458 6.726,35.221" id="path-53"></path>
        <path d="M59.279,0.191 C50.967,0.932 49.102,9.469 43.826,17.115 L43.826,17.115 C40.667,21.694 34.366,19.676 27.117,17.658 L27.117,17.658 C20.433,15.798 12.942,13.937 6.37,17.251 L6.37,17.251 C-13.658,27.351 17.326,58.964 46.85,50.33 L46.85,50.33 C76.375,41.696 58.142,14.436 58.142,14.436 L58.142,14.436 C58.909,12.118 59.138,10.308 64.01,9.321 L64.01,9.321 C71.214,7.86 69.329,0.128 60.669,0.128 L60.669,0.128 C60.223,0.128 59.76,0.148 59.279,0.191" id="path-55"></path>
        <path d="M5.777,0.386 C3.988,1.737 4.896,6.797 3.439,6.242 L3.439,6.242 C1.984,5.688 2.242,8.121 3.694,9.39 L3.694,9.39 C5.147,10.659 0.715,17.081 0.715,17.081 L0.715,17.081 L5.23,32.189 C5.23,32.189 7.187,13.346 8.427,9.498 L8.427,9.498 C9.556,5.998 7.919,0.208 6.266,0.207 L6.266,0.207 C6.102,0.207 5.938,0.264 5.777,0.386" id="path-57"></path>
        <path d="M32.511,20.347 C32.511,20.347 6.403,16.094 1.658,19.071 L1.658,19.071 C-3.087,22.047 7.205,36.001 34.537,35.915 L34.537,35.915 C42.111,35.892 49.441,9.115 49.441,9.115 L49.441,9.115 C49.441,9.115 48.596,5.156 41.206,0.788 L41.206,0.788" id="path-59"></path>
    </defs>
    <g id="最终" stroke="none" stroke-width="1" fill="none" fill-rule="evenodd">
        <g id="领会员-无数据" transform="translate(-176.000000, -443.000000)">
            <g id="Group-261" transform="translate(176.000000, 443.000000)">
                <g id="Group-9" transform="translate(84.000000, 68.492000)">
                    <path d="M121.0594,51.5308 L74.8374,5.3088 C67.8564,-1.6732 56.5374,-1.6732 49.5564,5.3088 L3.0954,51.7698 C1.4184,53.4468 0.4764,55.7218 0.4764,58.0938 L62.1964,92.0248 L123.9174,58.0938 C123.8284,55.6238 122.8074,53.2788 121.0594,51.5308" id="Fill-1" fill="#FFB200"></path>
                    <path d="M92.4261,91.252 L35.0871,91.252 C27.3081,91.252 21.0031,84.946 21.0031,77.168 L21.0031,19.829 C21.0031,12.05 27.3081,5.745 35.0871,5.745 L92.4261,5.745 C100.2041,5.745 106.5101,12.05 106.5101,19.829 L106.5101,77.168 C106.5101,84.946 100.2041,91.252 92.4261,91.252" id="Fill-3" fill="#FFFFFF"></path>
                    <path d="M92.4261,91.252 L35.0871,91.252 C27.3081,91.252 21.0031,84.946 21.0031,77.168 L21.0031,19.829 C21.0031,12.05 27.3081,5.745 35.0871,5.745 L92.4261,5.745 C100.2041,5.745 106.5101,12.05 106.5101,19.829 L106.5101,77.168 C106.5101,84.946 100.2041,91.252 92.4261,91.252 Z" id="Stroke-5" stroke="#3A4D5C" stroke-width="0.4" stroke-linecap="round" stroke-linejoin="round"></path>
                    <path d="M96.2586,106.2398 L28.1346,106.2398 C20.3566,106.2398 14.0506,99.9348 14.0506,92.1568 L14.0506,24.0328 C14.0506,16.2548 20.3566,9.9488 28.1346,9.9488 L96.2586,9.9488 C104.0366,9.9488 110.3416,16.2548 110.3416,24.0328 L110.3416,92.1568 C110.3416,99.9348 104.0366,106.2398 96.2586,106.2398" id="Fill-7" fill="#F8749B"></path>
                </g>
                <g id="Group-12" transform="translate(98.000000, 77.492000)">
                    <mask id="mask-2" fill="white">
                        <use xlink:href="#path-1"></use>
                    </mask>
                    <g id="Clip-11"></g>
                    <polyline id="Fill-10" fill="#383351" mask="url(#mask-2)" points="116.9017 32.6158 61.3037 75.8198 38.7907 112.9788 103.7907 103.9788 130.7907 30.9788"></polyline>
                </g>
                <g id="Group-23" transform="translate(84.000000, 97.492000)">
                    <path d="M97.3177,9.5323 L27.0757,9.5323 C26.2617,9.5323 25.6027,8.8733 25.6027,8.0593 L25.6027,1.8993 C25.6027,1.0853 26.2617,0.4263 27.0757,0.4263 L97.3177,0.4263 C98.1307,0.4263 98.7907,1.0853 98.7907,1.8993 L98.7907,8.0593 C98.7907,8.8733 98.1307,9.5323 97.3177,9.5323" id="Fill-13" fill="#FFFFFF"></path>
                    <path d="M97.3177,9.5323 L27.0757,9.5323 C26.2617,9.5323 25.6027,8.8733 25.6027,8.0593 L25.6027,1.8993 C25.6027,1.0853 26.2617,0.4263 27.0757,0.4263 L97.3177,0.4263 C98.1307,0.4263 98.7907,1.0853 98.7907,1.8993 L98.7907,8.0593 C98.7907,8.8733 98.1307,9.5323 97.3177,9.5323 Z" id="Stroke-15" stroke="#3A4D5C" stroke-width="0.4" stroke-linecap="round" stroke-linejoin="round"></path>
                    <path d="M74.0936,25.7881 L27.0756,25.7881 C26.2616,25.7881 25.6026,25.1291 25.6026,24.3151 L25.6026,18.1551 C25.6026,17.3411 26.2616,16.6821 27.0756,16.6821 L74.0936,16.6821 C74.9066,16.6821 75.5666,17.3411 75.5666,18.1551 L75.5666,24.3151 C75.5666,25.1291 74.9066,25.7881 74.0936,25.7881" id="Fill-17" fill="#FFFFFF"></path>
                    <path d="M74.0936,25.7881 L27.0756,25.7881 C26.2616,25.7881 25.6026,25.1291 25.6026,24.3151 L25.6026,18.1551 C25.6026,17.3411 26.2616,16.6821 27.0756,16.6821 L74.0936,16.6821 C74.9066,16.6821 75.5666,17.3411 75.5666,18.1551 L75.5666,24.3151 C75.5666,25.1291 74.9066,25.7881 74.0936,25.7881 Z" id="Stroke-19" stroke="#3A4D5C" stroke-width="0.4" stroke-linecap="round" stroke-linejoin="round"></path>
                    <path d="M0.4759,29.0943 L0.4759,78.4113 C0.4759,83.9343 2.4849,88.9823 5.7999,92.8853 L49.0889,55.8193 L0.4759,29.0943 Z" id="Fill-21" fill="#FFC969"></path>
                </g>
                <g id="Group-26" transform="translate(84.000000, 126.492000)">
                    <mask id="mask-4" fill="white">
                        <use xlink:href="#path-3"></use>
                    </mask>
                    <g id="Clip-25"></g>
                    <path d="M41.3656,21.9078 C52.6286,26.6948 27.5356,45.2738 27.5356,45.2738 L52.9096,31.9898 L58.8226,23.8788" id="Fill-24" fill="#383351" mask="url(#mask-4)"></path>
                </g>
                <g id="Group-41" transform="translate(89.000000, 28.492000)">
                    <path d="M118.9173,98.0943 L70.3043,124.8193 L113.5933,161.8853 C116.9083,157.9823 118.9173,152.9343 118.9173,147.4113 L118.9173,98.0943 Z" id="Fill-27" fill="#FFC969"></path>
                    <path d="M88.6395,140.5186 L70.3045,124.8196 L63.6735,119.1426 C59.9455,115.9506 54.4475,115.9506 50.7195,119.1426 L44.0895,124.8196 L0.7995,161.8856 C4.9065,166.7226 11.0215,169.7996 17.8635,169.7996 L23.8835,169.7996" id="Fill-29" fill="#FFFFFF"></path>
                    <g id="Group-34" transform="translate(23.000000, 140.000000)">
                        <path d="M0.8832,29.7999 L73.5292,29.7999 C80.3712,29.7999 86.4872,26.7219 90.5932,21.8849 L65.6392,0.5189" id="Fill-31" fill="#FFFFFF"></path>
                        <path d="M0.8832,29.7999 L73.5292,29.7999 C80.3712,29.7999 86.4872,26.7219 90.5932,21.8849 L65.6392,0.5189" id="Stroke-33" stroke="#3A4D5C" stroke-width="0.4" stroke-linecap="round" stroke-linejoin="round"></path>
                    </g>
                    <path d="M33.0653,56.8179 C29.4003,59.1569 25.7363,61.4969 22.0713,63.8369" id="Stroke-35" stroke="#3A4D5C" stroke-width="0.4" stroke-linecap="round" stroke-linejoin="round"></path>
                    <path d="M67.4793,149.2818 C65.6703,150.2758 63.7633,151.0898 61.7933,151.7068" id="Stroke-37" stroke="#3A4D5C" stroke-width="0.4" stroke-linecap="round" stroke-linejoin="round"></path>
                    <path d="M13.5785,25.2047 C12.5555,23.8217 11.3865,-2.9643 3.9325,0.8907 C3.1535,2.3667 5.1335,6.0907 4.7165,6.9707 C1.9535,8.8317 6.4935,8.9227 6.8815,11.3017 C7.3535,13.7437 6.6655,17.7037 6.6515,17.9687 C6.6145,17.9787 13.4915,25.0797 13.5785,25.2047" id="Fill-39" fill="#FDFFFE"></path>
                </g>
                <g id="Group-44" transform="translate(92.000000, 28.492000)">
                    <mask id="mask-6" fill="white">
                        <use xlink:href="#path-5"></use>
                    </mask>
                    <g id="Clip-43"></g>
                    <path d="M3.5179,12.8663 C7.3439,13.6573 12.9189,17.1983 12.9189,17.1983 C12.3019,17.0843 6.0199,18.8643 6.2549,18.1183 C3.0249,16.1073 -0.1451,15.8043 1.7469,12.7663" id="Fill-42" fill="#383351" mask="url(#mask-6)"></path>
                </g>
                <g id="Group-110" transform="translate(0.000000, 0.492000)">
                    <path d="M102.5785,53.2047 C101.5555,51.8217 100.3865,25.0357 92.9325,28.8907 C92.1535,30.3667 94.1335,34.0907 93.7165,34.9707 C90.9535,36.8317 95.4935,36.9227 95.8815,39.3017 C96.3535,41.7437 95.6655,45.7037 95.6515,45.9687 C95.6145,45.9787 102.4915,53.0797 102.5785,53.2047 Z" id="Stroke-45" stroke="#3A4D5C" stroke-width="0.4" stroke-linecap="round" stroke-linejoin="round"></path>
                    <path d="M108.6918,12.9 L119.6898,15.546 C120.3178,15.697 120.9358,15.27 121.0258,14.629 C121.2218,13.236 121.1758,11.856 120.9188,10.533 C120.7958,9.9 120.1558,9.51 119.5378,9.693 L108.6918,12.9 Z" id="Fill-47" fill="#FFC969"></path>
                    <path d="M104.0243,1.3565 C102.7523,1.8725 101.5713,2.5945 100.5343,3.4935 C100.0453,3.9165 100.0243,4.6675 100.4933,5.1125 L105.7413,10.0975 C106.5503,10.8665 107.8543,10.0675 107.5383,8.9985 L105.4853,2.0565 C105.3023,1.4365 104.6233,1.1135 104.0243,1.3565" id="Fill-49" fill="#FFC969"></path>
                    <path d="M116.3607,3.0875 C115.2997,2.2565 114.0917,1.5875 112.7617,1.1295 C112.1507,0.9185 111.4887,1.2735 111.3377,1.9025 L109.6437,8.9445 C109.3827,10.0285 110.7257,10.7585 111.4937,9.9495 L116.4807,4.6995 C116.9247,4.2325 116.8677,3.4845 116.3607,3.0875" id="Fill-51" fill="#FFC969"></path>
                    <g id="Group-55" transform="translate(0.000000, 197.000000)">
                        <mask id="mask-8" fill="white">
                            <use xlink:href="#path-7"></use>
                        </mask>
                        <g id="Clip-54"></g>
                        <path d="" id="Fill-53" fill="#FFB200" mask="url(#mask-8)"></path>
                    </g>
                    <path d="" id="Stroke-56" stroke="#3A4D5C" stroke-width="0.4" stroke-linecap="round" stroke-linejoin="round"></path>
                    <g id="Group-60" transform="translate(0.000000, 197.000000)">
                        <mask id="mask-10" fill="white">
                            <use xlink:href="#path-9"></use>
                        </mask>
                        <g id="Clip-59"></g>
                        <path d="" id="Fill-58" fill="#FFB200" mask="url(#mask-10)"></path>
                    </g>
                    <path d="" id="Stroke-61" stroke="#3A4D5C" stroke-width="0.4" stroke-linecap="round" stroke-linejoin="round"></path>
                    <g id="Group-65" transform="translate(0.000000, 197.000000)">
                        <mask id="mask-12" fill="white">
                            <use xlink:href="#path-11"></use>
                        </mask>
                        <g id="Clip-64"></g>
                        <path d="" id="Fill-63" fill="#FFB200" mask="url(#mask-12)"></path>
                    </g>
                    <path d="" id="Stroke-66" stroke="#3A4D5C" stroke-width="0.4" stroke-linecap="round" stroke-linejoin="round"></path>
                    <g id="Group-70" transform="translate(0.000000, 197.000000)">
                        <mask id="mask-14" fill="white">
                            <use xlink:href="#path-13"></use>
                        </mask>
                        <g id="Clip-69"></g>
                        <path d="" id="Fill-68" fill="#FFB200" mask="url(#mask-14)"></path>
                    </g>
                    <path d="" id="Stroke-71" stroke="#3A4D5C" stroke-width="0.4" stroke-linecap="round" stroke-linejoin="round"></path>
                    <g id="Group-75" transform="translate(0.000000, 197.000000)">
                        <mask id="mask-16" fill="white">
                            <use xlink:href="#path-15"></use>
                        </mask>
                        <g id="Clip-74"></g>
                        <path d="" id="Fill-73" fill="#FFB200" mask="url(#mask-16)"></path>
                    </g>
                    <path d="" id="Stroke-76" stroke="#3A4D5C" stroke-width="0.4" stroke-linecap="round" stroke-linejoin="round"></path>
                    <g id="Group-80" transform="translate(0.000000, 197.000000)">
                        <mask id="mask-18" fill="white">
                            <use xlink:href="#path-17"></use>
                        </mask>
                        <g id="Clip-79"></g>
                        <path d="" id="Fill-78" fill="#FFB200" mask="url(#mask-18)"></path>
                    </g>
                    <path d="" id="Stroke-81" stroke="#3A4D5C" stroke-width="0.4" stroke-linecap="round" stroke-linejoin="round"></path>
                    <g id="Group-85" transform="translate(0.000000, 197.000000)">
                        <mask id="mask-20" fill="white">
                            <use xlink:href="#path-19"></use>
                        </mask>
                        <g id="Clip-84"></g>
                        <path d="" id="Fill-83" fill="#FFB200" mask="url(#mask-20)"></path>
                    </g>
                    <path d="" id="Stroke-86" stroke="#3A4D5C" stroke-width="0.4" stroke-linecap="round" stroke-linejoin="round"></path>
                    <g id="Group-90" transform="translate(0.000000, 197.000000)">
                        <mask id="mask-22" fill="white">
                            <use xlink:href="#path-21"></use>
                        </mask>
                        <g id="Clip-89"></g>
                        <path d="" id="Fill-88" fill="#FFB200" mask="url(#mask-22)"></path>
                    </g>
                    <path d="" id="Stroke-91" stroke="#3A4D5C" stroke-width="0.4" stroke-linecap="round" stroke-linejoin="round"></path>
                    <g id="Group-95" transform="translate(0.000000, 197.000000)">
                        <mask id="mask-24" fill="white">
                            <use xlink:href="#path-23"></use>
                        </mask>
                        <g id="Clip-94"></g>
                        <path d="" id="Fill-93" fill="#FFB200" mask="url(#mask-24)"></path>
                    </g>
                    <path d="" id="Stroke-96" stroke="#3A4D5C" stroke-width="0.4" stroke-linecap="round" stroke-linejoin="round"></path>
                    <path d="M108.6918,12.9 L119.5358,9.693 C120.1548,9.51 120.4788,8.832 120.2348,8.233 C119.7198,6.961 118.9978,5.78 118.0988,4.742 C117.6758,4.254 116.9248,4.233 116.4798,4.701 L108.6918,12.9 Z" id="Fill-98" fill="#FFB200"></path>
                    <path d="M108.6918,12.9 L108.6918,12.9 L111.3378,1.903 C111.4888,1.274 111.0618,0.656 110.4208,0.566 C109.0278,0.37 107.6478,0.416 106.3248,0.673 C105.6918,0.796 105.3018,1.436 105.4848,2.054 L108.6918,12.9 Z" id="Fill-100" fill="#FFB200"></path>
                    <path d="M108.6918,12.9 L100.4908,5.111 C100.0248,4.667 99.2768,4.724 98.8788,5.231 C98.0478,6.292 97.3788,7.501 96.9208,8.83 C96.7098,9.442 97.0658,10.103 97.6938,10.254 L108.6918,12.9 Z" id="Fill-102" fill="#FFB200"></path>
                    <path d="M112.5404,13.8257 C112.0284,15.9507 109.8914,17.2597 107.7664,16.7487 C105.6404,16.2377 104.3324,14.0997 104.8434,11.9737 C105.3544,9.8487 107.4924,8.5397 109.6174,9.0517 C111.7434,9.5627 113.0514,11.7007 112.5404,13.8257" id="Fill-104" fill="#FFFFFF"></path>
                    <path d="M112.5404,13.8257 C112.0284,15.9507 109.8914,17.2597 107.7664,16.7487 C105.6404,16.2377 104.3324,14.0997 104.8434,11.9737 C105.3544,9.8487 107.4924,8.5397 109.6174,9.0517 C111.7434,9.5627 113.0514,11.7007 112.5404,13.8257 Z" id="Stroke-106" stroke="#3A4D5C" stroke-width="0.4" stroke-linecap="round" stroke-linejoin="round"></path>
                    <path d="M117.4803,41.3804 L87.9113,34.2664 C86.3593,33.8934 85.4043,32.3334 85.7783,30.7814 L90.4203,11.4834 L125.6073,19.9484 L120.9653,39.2474 C120.5913,40.7984 119.0313,41.7534 117.4803,41.3804" id="Fill-108" fill="#968DE0"></path>
                </g>
                <g id="Group-132" transform="translate(85.000000, 11.492000)">
                    <g id="Group-113">
                        <mask id="mask-26" fill="white">
                            <use xlink:href="#path-25"></use>
                        </mask>
                        <g id="Clip-112"></g>
                        <polygon id="Fill-111" fill="#F2F7FE" mask="url(#mask-26)" points="48.5199 18.6695 0.2359 7.0535 1.3659 2.3575 49.6499 13.9735"></polygon>
                    </g>
                    <g id="Group-116">
                        <mask id="mask-28" fill="white">
                            <use xlink:href="#path-27"></use>
                        </mask>
                        <g id="Clip-115"></g>
                        <polygon id="Fill-114" fill="#F2F7FE" mask="url(#mask-28)" points="45.2005 32.4664 -3.0835 20.8504 -1.9535 16.1544 46.3305 27.7704"></polygon>
                    </g>
                    <g id="Group-119">
                        <mask id="mask-30" fill="white">
                            <use xlink:href="#path-29"></use>
                        </mask>
                        <g id="Clip-118"></g>
                        <polygon id="Fill-117" fill="#F2F7FE" mask="url(#mask-30)" points="47.1483 24.3707 -1.1357 12.7547 -0.4407 9.8647 47.8433 21.4807"></polygon>
                    </g>
                    <g id="Group-122">
                        <mask id="mask-32" fill="white">
                            <use xlink:href="#path-31"></use>
                        </mask>
                        <g id="Clip-121"></g>
                        <polygon id="Fill-120" fill="#FFFFFF" mask="url(#mask-32)" points="27.4281 -7.1303 15.8121 41.1537 11.1161 40.0247 22.7321 -8.2603"></polygon>
                    </g>
                    <g id="Group-125">
                        <mask id="mask-34" fill="white">
                            <use xlink:href="#path-33"></use>
                        </mask>
                        <g id="Clip-124"></g>
                        <polygon id="Stroke-123" stroke="#3A4D5C" stroke-width="0.4" stroke-linecap="round" stroke-linejoin="round" mask="url(#mask-34)" points="27.4281 -7.1303 15.8121 41.1537 11.1161 40.0247 22.7321 -8.2603"></polygon>
                    </g>
                    <g id="Group-128">
                        <mask id="mask-36" fill="white">
                            <use xlink:href="#path-35"></use>
                        </mask>
                        <g id="Clip-127"></g>
                        <polygon id="Fill-126" fill="#FFFFFF" mask="url(#mask-36)" points="6.5121 -12.162 -5.1039 36.122 -9.7999 34.992 1.8161 -13.292"></polygon>
                    </g>
                    <g id="Group-131">
                        <mask id="mask-38" fill="white">
                            <use xlink:href="#path-37"></use>
                        </mask>
                        <g id="Clip-130"></g>
                        <polygon id="Stroke-129" stroke="#3A4D5C" stroke-width="0.4" stroke-linecap="round" stroke-linejoin="round" mask="url(#mask-38)" points="6.5121 -12.162 -5.1039 36.122 -9.7999 34.992 1.8161 -13.292"></polygon>
                    </g>
                </g>
                <g id="Group-159" transform="translate(65.000000, 0.492000)">
                    <path d="M60.9925,23.2862 L23.5595,14.2812 C22.7475,14.0852 22.2485,13.2692 22.4435,12.4572 L23.5635,7.8042 C23.7585,6.9922 24.5745,6.4932 25.3865,6.6882 L62.8195,15.6932 C63.6315,15.8892 64.1305,16.7052 63.9355,17.5162 L62.8165,22.1702 C62.6205,22.9822 61.8045,23.4812 60.9925,23.2862" id="Fill-133" fill="#4191EB"></path>
                    <polygon id="Fill-135" fill="#FFB200" points="48.8934 12.2574 42.4664 38.9714 32.9244 36.6754 39.3514 9.9624"></polygon>
                    <path d="M49.681,12.2999 L51.441,13.7379 C52.239,14.3909 52.606,15.2059 52.431,15.9369 L49.348,28.7499 L52.413,26.8399 L55.395,29.9839 L58.456,17.2569 C58.653,16.4409 58.171,15.5259 57.189,14.8499 L55.833,13.9179 L49.681,12.2999 Z" id="Fill-137" fill="#FFB200"></path>
                    <path d="M32.202,10.9322 C31.542,11.1312 30.882,11.3292 30.222,11.5282" id="Stroke-139" stroke="#3A4D5C" stroke-width="0.4" stroke-linecap="round" stroke-linejoin="round"></path>
                    <path d="M42.432,30.8648 C41.623,31.4858 40.764,32.0418 39.866,32.5248" id="Stroke-141" stroke="#3A4D5C" stroke-width="0.4" stroke-linecap="round" stroke-linejoin="round"></path>
                    <path d="M54.6835,21.8487 C54.1935,22.1907 53.7035,22.5327 53.2135,22.8737" id="Stroke-143" stroke="#3A4D5C" stroke-width="0.4" stroke-linecap="round" stroke-linejoin="round"></path>
                    <line x1="48.6449" y1="11.4356" x2="54.5359" y2="9.6936" id="Stroke-145" stroke="#3A4D5C" stroke-width="0.4" stroke-linecap="round" stroke-linejoin="round"></line>
                    <path d="M45.4208,0.566 C44.0278,0.37 42.6478,0.416 41.3248,0.673" id="Stroke-147" stroke="#3A4D5C" stroke-width="0.4" stroke-linecap="round" stroke-linejoin="round"></path>
                    <path d="M33.8793,5.231 C33.0483,6.292 32.3793,7.501 31.9213,8.83" id="Stroke-149" stroke="#3A4D5C" stroke-width="0.4" stroke-linecap="round" stroke-linejoin="round"></path>
                    <path d="M22.911,34.2667 C21.36,33.8927 20.405,32.3327 20.778,30.7817 L24.508,15.2787" id="Stroke-151" stroke="#3A4D5C" stroke-width="0.4" stroke-linecap="round" stroke-linejoin="round"></path>
                    <line x1="32.9247" y1="36.6754" x2="39.3517" y2="9.9624" id="Stroke-153" stroke="#3A4D5C" stroke-width="0.4" stroke-linecap="round" stroke-linejoin="round"></line>
                    <path d="M55.3949,29.9839 L58.4569,17.2569 C58.6529,16.4409 58.1709,15.5259 57.1889,14.8499" id="Stroke-155" stroke="#3A4D5C" stroke-width="0.4" stroke-linecap="round" stroke-linejoin="round"></path>
                    <path d="M30.8402,40.772 C30.8402,40.772 36.9442,42.67 38.5922,45.434 C38.5922,45.434 40.0482,72.755 34.6942,74.243 C29.3402,75.731 -3.3068,57.661 0.6582,51.071 C4.6222,44.48 28.8022,60 28.8022,60 L30.8402,40.772 Z" id="Fill-157" fill="#49ACD9"></path>
                </g>
                <g id="Group-162" transform="translate(65.000000, 40.492000)">
                    <mask id="mask-40" fill="white">
                        <use xlink:href="#path-39"></use>
                    </mask>
                    <g id="Clip-161"></g>
                    <path d="M39.8475,24.7701 C36.2385,30.3611 34.2025,30.3331 24.0705,27.1451 C17.2915,25.0131 43.0315,22.1141 43.0315,22.1141" id="Fill-160" fill="#383351" mask="url(#mask-40)"></path>
                </g>
                <path d="M81.5384,159.7225 L71.0324,159.7225 C65.5314,178.5865 60.5244,197.3245 62.4384,197.3245 C66.2024,197.3245 85.1124,199.4525 85.1465605,197.9625 C85.2044,195.3945 69.5244,195.0915 71.6494,188.4835 C72.5214,185.7715 76.8594,171.7945 81.5384,159.7225" id="Fill-163" fill="#3A4D5C"></path>
                <g id="Group-167" transform="translate(62.000000, 159.492000)">
                    <mask id="mask-42" fill="white">
                        <use xlink:href="#path-41"></use>
                    </mask>
                    <g id="Clip-166"></g>
                    <path d="M10.0736,27.6597 C6.2536,35.7677 5.5726,34.6827 13.0656,34.2467" id="Fill-165" fill="#383351" mask="url(#mask-42)"></path>
                </g>
                <path d="M97.1131,117.5077 C94.2201,111.6697 82.5591,121.4827 82.5591,121.4827 C82.1151,123.1757 76.3431,141.5077 71.0321,159.7227 L81.5381,159.7227 C88.2581,142.3857 100.0071,123.3457 97.1131,117.5077" id="Fill-168" fill="#FDFFFE"></path>
                <g id="Group-172" transform="translate(71.000000, 115.492000)">
                    <mask id="mask-44" fill="white">
                        <use xlink:href="#path-43"></use>
                    </mask>
                    <g id="Clip-171"></g>
                    <path d="M-2.8141,19.5606 C17.3109,18.0336 13.5069,13.2116 23.7889,10.2856 C34.0709,7.3586 11.5599,5.9906 11.5599,5.9906 L7.1159,11.3196" id="Fill-170" fill="#383351" mask="url(#mask-44)"></path>
                </g>
                <g id="Group-177" transform="translate(16.000000, 98.492000)">
                    <path d="M81.1131,19.0157 C78.2201,13.1777 66.5591,22.9907 66.5591,22.9907 C66.1151,24.6837 60.3431,43.0157 55.0321,61.2307 L65.5381,61.2307 C72.2581,43.8937 84.0071,24.8537 81.1131,19.0157 Z" id="Stroke-173" stroke="#3A4D5C" stroke-width="0.4" stroke-linecap="round" stroke-linejoin="round"></path>
                    <path d="M27.2425,22.4952 L27.5425,10.1602 C14.6485,4.0552 2.3565,-2.2418 1.7725,0.7752 C0.9285,5.1362 0.1295,22.5122 1.2405,22.6232 C4.9155,22.9912 5.1445,9.1292 9.6555,11.5002 C11.5065,12.4742 19.0235,17.2282 27.2425,22.4952" id="Fill-175" fill="#3A4D5C"></path>
                </g>
                <g id="Group-180" transform="translate(16.000000, 98.492000)">
                    <mask id="mask-46" fill="white">
                        <use xlink:href="#path-45"></use>
                    </mask>
                    <g id="Clip-179"></g>
                    <path d="M11.638,13.3174 C7.182,8.4714 7.266,8.9844 6.369,13.9694" id="Fill-178" fill="#383351" mask="url(#mask-46)"></path>
                </g>
                <path d="M71.2191,134.0878 L85.1261,119.4158 C70.4981,127.4738 53.2891,113.1568 43.5431,108.651676 C43.5441,108.6068 43.2461,120.8378 43.2421,120.9868 C55.1521,127.4838 66.4211,139.5758 71.2191,134.0878" id="Fill-181" fill="#FDFFFE"></path>
                <g id="Group-185" transform="translate(43.000000, 108.492000)">
                    <mask id="mask-48" fill="white">
                        <use xlink:href="#path-47"></use>
                    </mask>
                    <g id="Clip-184"></g>
                    <path d="M7.369,1.313 C7.217,18.832 28.634,21.111 28.634,21.111 L13.043,1.313" id="Fill-183" fill="#383351" mask="url(#mask-48)"></path>
                </g>
                <g id="Group-190" transform="translate(43.000000, 74.492000)">
                    <path d="M28.2191,59.5958 L42.1261,44.9238 C27.4981,52.9818 10.2891,38.6648 0.5431,34.1596761 C0.5441,34.1148 0.2461,46.3458 0.2421,46.4948 C12.1521,52.9918 23.4211,65.0838 28.2191,59.5958 Z" id="Stroke-186" stroke="#3A4D5C" stroke-width="0.4" stroke-linecap="round" stroke-linejoin="round"></path>
                    <path d="M26.9701,2.5499 C28.9911,26.9669 0.6131,30.6519 13.3721,47.7269 C26.8801,65.8029 64.5211,51.2949 62.0011,38.5929 C58.1791,19.3339 44.1241,0.3299 44.1241,0.3299 L26.9701,2.5499 Z" id="Fill-188" fill="#CBDDFC"></path>
                </g>
                <g id="Group-193" transform="translate(53.000000, 74.492000)">
                    <mask id="mask-50" fill="white">
                        <use xlink:href="#path-49"></use>
                    </mask>
                    <g id="Clip-192"></g>
                    <path d="M37.0438,7.0777 C43.5508,12.3107 11.5758,18.1677 7.1808,22.0807 C2.7848,25.9947 10.3998,6.4257 10.3998,6.4257" id="Fill-191" fill="#383351" mask="url(#mask-50)"></path>
                </g>
                <path d="M65.6957,41.6068 C63.5777,45.1528 72.9257,52.5198 72.9257,52.5198 L62.2417,53.9678 L58.0057,43.3298 L65.6957,41.6068 Z" id="Fill-194" fill="#FDFFFE"></path>
                <g id="Group-198" transform="translate(58.000000, 41.492000)">
                    <mask id="mask-52" fill="white">
                        <use xlink:href="#path-51"></use>
                    </mask>
                    <g id="Clip-197"></g>
                    <path d="M13.9413,5.878 C13.9413,5.878 1.0333,5.598 4.4863,3.012 C6.0603,1.834 7.7473,0.579 7.7473,0.579 L13.9413,5.878 Z" id="Fill-196" fill="#383351" mask="url(#mask-52)"></path>
                </g>
                <g id="Group-203" transform="translate(58.000000, 41.492000)">
                    <path d="M7.6957,0.1148 C5.5777,3.6608 14.9257,11.0278 14.9257,11.0278 L4.2417,12.4758 L0.0057,1.8378 L7.6957,0.1148 Z" id="Stroke-199" stroke="#3A4D5C" stroke-width="0.4" stroke-linecap="round" stroke-linejoin="round"></path>
                    <path d="M34.9549,39.9131 C40.7669,37.3971 24.0339,8.9291 9.9019,7.7661 C-8.7011,6.2341 8.1699,41.4411 7.7259,42.2211 C5.8499,45.5151 21.2069,45.8651 34.9549,39.9131" id="Fill-201" fill="#49ACD9"></path>
                </g>
                <g id="Group-206" transform="translate(59.000000, 48.492000)">
                    <mask id="mask-54" fill="white">
                        <use xlink:href="#path-53"></use>
                    </mask>
                    <g id="Clip-205"></g>
                    <path d="M11.5321,15.7242 C13.7461,17.3312 17.8431,19.2122 24.8431,21.2292 C36.2811,24.5242 38.2921,34.6262 43.4271,34.9142 C57.1181,35.6812 29.9181,12.6402 29.9181,12.6402 L14.1461,6.6492 C14.1461,6.6492 14.7041,9.8042 11.4291,10.6202 C9.3821,11.1292 7.8421,13.0452 11.5321,15.7242" id="Fill-204" fill="#383351" mask="url(#mask-54)"></path>
                </g>
                <g id="Group-213" transform="translate(1.000000, 24.492000)">
                    <g id="Group-210" transform="translate(53.000000, 5.000000)">
                        <path d="M4.1962,13.9947 C-5.6578,4.1207 7.6232,3.3487 11.3242,0.6427 C19.4592,6.9737 18.1532,15.9327 10.1172,15.5667" id="Fill-207" fill="#FDFFFE"></path>
                        <path d="M4.1962,13.9947 C-5.6578,4.1207 7.6232,3.3487 11.3242,0.6427 C19.4592,6.9737 18.1532,15.9327 10.1172,15.5667" id="Stroke-209" stroke="#3A4D5C" stroke-width="0.4" stroke-linecap="round" stroke-linejoin="round"></path>
                    </g>
                    <path d="M58.142,14.4366 C58.909,12.1186 59.138,10.3076 64.01,9.3206 C71.585,7.7846 69.111,-0.6854 59.278,0.1916 C50.967,0.9316 49.102,9.4696 43.827,17.1146 C37.754,25.9166 20.069,10.3436 6.371,17.2506 C-13.657,27.3516 17.326,58.9636 46.85,50.3296 C76.375,41.6956 58.142,14.4366 58.142,14.4366" id="Fill-211" fill="#F8749B"></path>
                </g>
                <g id="Group-216" transform="translate(1.000000, 24.492000)">
                    <mask id="mask-56" fill="white">
                        <use xlink:href="#path-55"></use>
                    </mask>
                    <g id="Clip-215"></g>
                    <path d="M25.4823,15.8936 C46.6263,28.6786 50.0303,22.6546 38.5923,12.6786" id="Fill-214" fill="#383351" mask="url(#mask-56)"></path>
                </g>
                <path d="M108.2294,52.6815 C108.2294,52.6815 110.1874,33.8375 111.4274,29.9905 C112.6674,26.1425 110.5674,19.5275 108.7774,20.8785 C106.9874,22.2285 107.8954,27.2885 106.4394,26.7345 C104.9844,26.1805 105.2424,28.6135 106.6944,29.8825 C108.1464,31.1515 103.7154,37.5725 103.7154,37.5725 L108.2294,52.6815 Z" id="Fill-217" fill="#FDFFFE"></path>
                <g id="Group-221" transform="translate(103.000000, 20.492000)">
                    <mask id="mask-58" fill="white">
                        <use xlink:href="#path-57"></use>
                    </mask>
                    <g id="Clip-220"></g>
                    <path d="M8.4188,18.7452 C7.6948,14.2722 2.6978,13.4372 2.6978,13.4372 C1.8248,20.7182 3.8348,18.6202 7.3338,20.0382" id="Fill-219" fill="#383351" mask="url(#mask-58)"></path>
                </g>
                <g id="Group-226" transform="translate(64.000000, 20.492000)">
                    <path d="M44.2294,32.1895 C44.2294,32.1895 46.1874,13.3455 47.4274,9.4985 C48.6674,5.6505 46.5674,-0.9645 44.7774,0.3865 C42.9874,1.7365 43.8954,6.7965 42.4394,6.2425 C40.9844,5.6885 41.2424,8.1215 42.6944,9.3905 C44.1464,10.6595 39.7154,17.0805 39.7154,17.0805 L44.2294,32.1895 Z" id="Stroke-222" stroke="#3A4D5C" stroke-width="0.4" stroke-linecap="round" stroke-linejoin="round"></path>
                    <path d="M41.2064,12.7881 C48.5954,17.1561 49.4414,21.1151 49.4414,21.1151 C49.4414,21.1151 42.1114,47.8911 34.5364,47.9151 C7.2054,48.0011 -3.0866,34.0471 1.6584,31.0711 C6.4024,28.0941 32.5114,32.3461 32.5114,32.3461 L41.2064,12.7881 Z" id="Fill-224" fill="#49ACD9"></path>
                </g>
                <g id="Group-229" transform="translate(64.000000, 32.492000)">
                    <mask id="mask-60" fill="white">
                        <use xlink:href="#path-59"></use>
                    </mask>
                    <g id="Clip-228"></g>
                    <path d="M29.2088,19.211 C25.1208,32.63 32.8568,20.199 33.0048,17.7" id="Fill-227" fill="#383351" mask="url(#mask-60)"></path>
                </g>
                <g id="Group-260" transform="translate(21.000000, 34.492000)">
                    <g id="Group-233" transform="translate(34.000000, 1.000000)">
                        <path d="M5.8094,5.773 C3.6714,6.218 1.0084,5.58 0.7674,3.436 C0.7724,1.263 4.7734,0.323 7.0304,1.44" id="Fill-230" fill="#FDFFFE"></path>
                        <path d="M5.8094,5.773 C3.6714,6.218 1.0084,5.58 0.7674,3.436 C0.7724,1.263 4.7734,0.323 7.0304,1.44" id="Stroke-232" stroke="#3A4D5C" stroke-width="0.4" stroke-linecap="round" stroke-linejoin="round"></path>
                    </g>
                    <path d="M38.2074,3.8575 C36.1264,3.1215 36.1694,5.2325 37.4974,5.7895 C38.8244,6.3475 37.4564,4.5095 38.2074,3.8575" id="Fill-234" fill="#383351"></path>
                    <path d="M64.4745,83.4175 C73.5955,80.8945 72.3765,74.0885 72.3765,74.0885" id="Fill-236" fill="#383351"></path>
                    <path d="M2.1586,31.7725 C9.0746,37.9885 14.2056,33.1795 14.2056,33.1795" id="Fill-238" fill="#383351"></path>
                    <path d="M44.9696,1.0069 C44.9526,1.3809 45.2426,1.6979 45.6166,1.7149 C45.9906,1.7319 46.3076,1.4419 46.3246,1.0679 C46.3416,0.6939 46.0526,0.3769 45.6776,0.3599 C45.3036,0.3429 44.9866,0.6319 44.9696,1.0069" id="Fill-240" fill="#3A4D5C"></path>
                    <g id="Group-245" transform="translate(47.000000, 0.000000)">
                        <path d="M0.8563,0.1348 C3.7013,-0.5862 1.9363,2.5368 1.9363,2.5368" id="Fill-242" fill="#FDFFFE"></path>
                        <path d="M0.8563,0.1348 C3.7013,-0.5862 1.9363,2.5368 1.9363,2.5368" id="Stroke-244" stroke="#3A4D5C" stroke-width="0.4" stroke-linecap="round" stroke-linejoin="round"></path>
                    </g>
                    <g id="Group-249" transform="translate(46.000000, 4.000000)">
                        <path d="M0.0355,0.6563 C0.3325,1.2393 1.0475,1.4723 1.6315,1.1753" id="Fill-246" fill="#FDFFFE"></path>
                        <path d="M0.0355,0.6563 C0.3325,1.2393 1.0475,1.4723 1.6315,1.1753" id="Stroke-248" stroke="#3A4D5C" stroke-width="0.4" stroke-linecap="round" stroke-linejoin="round"></path>
                    </g>
                    <g id="Group-253" transform="translate(37.000000, 3.000000)">
                        <line x1="0.3749" y1="1.1495" x2="1.4239" y2="1.7245" id="Fill-250" fill="#FDFFFE"></line>
                        <line x1="0.3749" y1="1.1495" x2="1.4239" y2="1.7245" id="Stroke-252" stroke="#3A4D5C" stroke-width="0.4" stroke-linecap="round" stroke-linejoin="round"></line>
                    </g>
                    <path d="M84.0013,78.5933 C82.9193,73.1403 81.0173,67.7083 78.8453,62.7213" id="Stroke-254" stroke="#3A4D5C" stroke-width="0.4" stroke-linecap="round" stroke-linejoin="round"></path>
                    <path d="M77.5365,33.9151 C67.0585,33.9481 59.0845,31.9181 53.5025,29.2331" id="Stroke-256" stroke="#3A4D5C" stroke-width="0.4" stroke-linecap="round" stroke-linejoin="round"></path>
                    <path d="M0.2557,38.481 C8.1847,41.786 17.5887,43.038 26.8507,40.33" id="Stroke-258" stroke="#3A4D5C" stroke-width="0.4" stroke-linecap="round" stroke-linejoin="round"></path>
                </g>
            </g>
        </g>
    </g>
</svg>