<?xml version="1.0" standalone="no"?><!DOCTYPE svg PUBLIC "-//W3C//DTD SVG 1.1//EN" "http://www.w3.org/Graphics/SVG/1.1/DTD/svg11.dtd"><svg t="1681895060620" class="icon" viewBox="0 0 1024 1024" version="1.1" xmlns="http://www.w3.org/2000/svg" p-id="4496" xmlns:xlink="http://www.w3.org/1999/xlink" width="200" height="200"><path d="M200.2 823h-27.3c-3.8 0-7.3 2.7-7.8 6.5-0.6 4.5 3 8.5 7.4 8.5h27.7c4.1 0 7.5-3.4 7.5-7.5s-3.4-7.5-7.5-7.5zM780.2 823H674.5c-4.1 0-7.5 3.4-7.5 7.5s3.4 7.5 7.5 7.5h105.7c4.1 0 7.5-3.4 7.5-7.5s-3.4-7.5-7.5-7.5zM797.7 830.5c0 4.1 3.4 7.5 7.5 7.5h47c4.1 0 7.5-3.4 7.5-7.5s-3.4-7.5-7.5-7.5h-47c-4.2 0-7.5 3.4-7.5 7.5zM649.5 823H225.2c-4.1 0-7.5 3.4-7.5 7.5s3.4 7.5 7.5 7.5h424.3c4.1 0 7.5-3.4 7.5-7.5s-3.4-7.5-7.5-7.5zM599.8 885H330.7c-4.4 0-8 3.6-8 8s3.6 8 8 8H600c4.8 0 8.7-4.3 7.9-9.3-0.6-3.9-4.2-6.7-8.1-6.7zM304.7 885h-54.4c-4 0-7.5 2.8-8.1 6.7-0.8 5 3.1 9.3 7.9 9.3h54.7c4.4 0 8-3.6 8-8-0.1-4.4-3.7-8-8.1-8z" fill="#76B767" p-id="4497"></path><path d="M216.7 214.7h-8.5v-8.5c0-1.8-1.5-3.3-3.3-3.3s-3.3 1.5-3.3 3.3v8.5h-8.5c-1.8 0-3.3 1.5-3.3 3.3s1.5 3.3 3.3 3.3h8.5v8.5c0 1.8 1.5 3.3 3.3 3.3s3.3-1.5 3.3-3.3v-8.5h8.5c1.8 0 3.3-1.5 3.3-3.3s-1.5-3.3-3.3-3.3z" fill="#F4AD9F" p-id="4498"></path><path d="M897.7 321.7h-8.5v-8.5c0-1.8-1.5-3.3-3.3-3.3s-3.3 1.5-3.3 3.3v8.5h-8.5c-1.8 0-3.3 1.5-3.3 3.3s1.5 3.3 3.3 3.3h8.5v8.5c0 1.8 1.5 3.3 3.3 3.3s3.3-1.5 3.3-3.3v-8.5h8.5c1.8 0 3.3-1.5 3.3-3.3s-1.5-3.3-3.3-3.3z" fill="#76B767" p-id="4499"></path><path d="M839.2 737.2c-0.7 0-1.3-0.6-1.3-1.3v-9.6c0-0.7 0.6-1.3 1.3-1.3 0.7 0 1.3 0.6 1.3 1.3v9.6c0 0.7-0.6 1.3-1.3 1.3zM835.6 738.3c-0.6 0.4-1.4 0.1-1.8-0.5l-4.8-8.3c-0.4-0.6-0.1-1.4 0.5-1.8 0.6-0.4 1.4-0.1 1.8 0.5l4.8 8.3c0.3 0.7 0.1 1.5-0.5 1.8zM833 741.1c-0.4 0.6-1.2 0.8-1.8 0.5l-8.3-4.8c-0.6-0.4-0.8-1.2-0.5-1.8 0.4-0.6 1.2-0.8 1.8-0.5l8.3 4.8c0.7 0.4 0.9 1.2 0.5 1.8zM832.2 744.8c0 0.7-0.6 1.3-1.3 1.3h-9.6c-0.7 0-1.3-0.6-1.3-1.3 0-0.7 0.6-1.3 1.3-1.3h9.6c0.7 0 1.3 0.6 1.3 1.3zM833.3 748.4c0.4 0.6 0.1 1.4-0.5 1.8l-8.3 4.8c-0.6 0.4-1.4 0.1-1.8-0.5-0.4-0.6-0.1-1.4 0.5-1.8l8.3-4.8c0.7-0.3 1.5-0.1 1.8 0.5zM836.1 751c0.6 0.4 0.8 1.2 0.5 1.8l-4.8 8.3c-0.4 0.6-1.2 0.8-1.8 0.5-0.6-0.4-0.8-1.2-0.5-1.8l4.8-8.3c0.4-0.7 1.2-0.9 1.8-0.5zM839.8 751.8c0.7 0 1.3 0.6 1.3 1.3v9.6c0 0.7-0.6 1.3-1.3 1.3-0.7 0-1.3-0.6-1.3-1.3v-9.6c0-0.7 0.6-1.3 1.3-1.3zM843.4 750.7c0.6-0.4 1.4-0.1 1.8 0.5l4.8 8.3c0.4 0.6 0.1 1.4-0.5 1.8-0.6 0.4-1.4 0.1-1.8-0.5l-4.8-8.3c-0.3-0.7-0.1-1.5 0.5-1.8zM846 747.9c0.4-0.6 1.2-0.8 1.8-0.5l8.3 4.8c0.6 0.4 0.8 1.2 0.5 1.8-0.4 0.6-1.2 0.8-1.8 0.5l-8.3-4.8c-0.7-0.4-0.9-1.2-0.5-1.8zM846.8 744.2c0-0.7 0.6-1.3 1.3-1.3h9.6c0.7 0 1.3 0.6 1.3 1.3 0 0.7-0.6 1.3-1.3 1.3h-9.6c-0.7 0-1.3-0.6-1.3-1.3zM845.7 740.6c-0.4-0.6-0.1-1.4 0.5-1.8l8.3-4.8c0.6-0.4 1.4-0.1 1.8 0.5 0.4 0.6 0.1 1.4-0.5 1.8l-8.3 4.8c-0.7 0.3-1.5 0.1-1.8-0.5zM842.9 738c-0.6-0.4-0.8-1.2-0.5-1.8l4.8-8.3c0.4-0.6 1.2-0.8 1.8-0.5 0.6 0.4 0.8 1.2 0.5 1.8l-4.8 8.3c-0.4 0.7-1.2 0.9-1.8 0.5z" fill="#F4D676" p-id="4500"></path><path d="M779.2 159.2c-0.7 0-1.3-0.6-1.3-1.3v-9.6c0-0.7 0.6-1.3 1.3-1.3 0.7 0 1.3 0.6 1.3 1.3v9.6c0 0.7-0.6 1.3-1.3 1.3zM775.6 160.3c-0.6 0.4-1.4 0.1-1.8-0.5l-4.8-8.3c-0.4-0.6-0.1-1.4 0.5-1.8 0.6-0.4 1.4-0.1 1.8 0.5l4.8 8.3c0.3 0.7 0.1 1.5-0.5 1.8zM773 163.1c-0.4 0.6-1.2 0.8-1.8 0.5l-8.3-4.8c-0.6-0.4-0.8-1.2-0.5-1.8 0.4-0.6 1.2-0.8 1.8-0.5l8.3 4.8c0.7 0.4 0.9 1.2 0.5 1.8zM772.2 166.8c0 0.7-0.6 1.3-1.3 1.3h-9.6c-0.7 0-1.3-0.6-1.3-1.3 0-0.7 0.6-1.3 1.3-1.3h9.6c0.7 0 1.3 0.6 1.3 1.3zM773.3 170.4c0.4 0.6 0.1 1.4-0.5 1.8l-8.3 4.8c-0.6 0.4-1.4 0.1-1.8-0.5-0.4-0.6-0.1-1.4 0.5-1.8l8.3-4.8c0.7-0.3 1.5-0.1 1.8 0.5zM776.1 173c0.6 0.4 0.8 1.2 0.5 1.8l-4.8 8.3c-0.4 0.6-1.2 0.8-1.8 0.5-0.6-0.4-0.8-1.2-0.5-1.8l4.8-8.3c0.4-0.7 1.2-0.9 1.8-0.5zM779.8 173.8c0.7 0 1.3 0.6 1.3 1.3v9.6c0 0.7-0.6 1.3-1.3 1.3-0.7 0-1.3-0.6-1.3-1.3v-9.6c0-0.7 0.6-1.3 1.3-1.3zM783.4 172.7c0.6-0.4 1.4-0.1 1.8 0.5l4.8 8.3c0.4 0.6 0.1 1.4-0.5 1.8-0.6 0.4-1.4 0.1-1.8-0.5l-4.8-8.3c-0.3-0.7-0.1-1.5 0.5-1.8zM786 169.9c0.4-0.6 1.2-0.8 1.8-0.5l8.3 4.8c0.6 0.4 0.8 1.2 0.5 1.8-0.4 0.6-1.2 0.8-1.8 0.5l-8.3-4.8c-0.7-0.4-0.9-1.2-0.5-1.8zM786.8 166.2c0-0.7 0.6-1.3 1.3-1.3h9.6c0.7 0 1.3 0.6 1.3 1.3 0 0.7-0.6 1.3-1.3 1.3h-9.6c-0.7 0-1.3-0.6-1.3-1.3zM785.7 162.6c-0.4-0.6-0.1-1.4 0.5-1.8l8.3-4.8c0.6-0.4 1.4-0.1 1.8 0.5 0.4 0.6 0.1 1.4-0.5 1.8l-8.3 4.8c-0.7 0.3-1.5 0.1-1.8-0.5zM782.9 160c-0.6-0.4-0.8-1.2-0.5-1.8l4.8-8.3c0.4-0.6 1.2-0.8 1.8-0.5 0.6 0.4 0.8 1.2 0.5 1.8l-4.8 8.3c-0.4 0.7-1.2 0.9-1.8 0.5z" fill="#F4AD9F" p-id="4501"></path><path d="M219.2 758.7l2.9 5.8c0.2 0.4 0.5 0.6 1 0.7l6.4 0.9c1.1 0.2 1.5 1.4 0.7 2.2l-4.7 4.5c-0.3 0.3-0.4 0.7-0.4 1.1l1.1 6.4c0.2 1-0.9 1.8-1.9 1.4l-5.7-3c-0.4-0.2-0.8-0.2-1.2 0l-5.7 3c-0.9 0.5-2-0.3-1.9-1.4l1.1-6.4c0.1-0.4-0.1-0.8-0.4-1.1l-4.7-4.5c-0.8-0.7-0.3-2 0.7-2.2l6.4-0.9c0.4-0.1 0.8-0.3 1-0.7l2.9-5.8c0.5-0.9 1.9-0.9 2.4 0z" fill="#F4AD9F" p-id="4502"></path><path d="M716.2 92.7l2.9 5.8c0.2 0.4 0.5 0.6 1 0.7l6.4 0.9c1.1 0.2 1.5 1.4 0.7 2.2l-4.7 4.5c-0.3 0.3-0.4 0.7-0.4 1.1l1.1 6.4c0.2 1-0.9 1.8-1.9 1.4l-5.7-3c-0.4-0.2-0.8-0.2-1.2 0l-5.7 3c-0.9 0.5-2-0.3-1.9-1.4l1.1-6.4c0.1-0.4-0.1-0.8-0.4-1.1l-4.7-4.5c-0.8-0.7-0.3-2 0.7-2.2l6.4-0.9c0.4-0.1 0.8-0.3 1-0.7l2.9-5.8c0.5-0.9 1.9-0.9 2.4 0zM658.5 803c-14.9 5.4-31.6-2.4-37-17.3L595.2 713c-5.4-14.9 2.4-31.6 17.3-37 14.9-5.4 31.6 2.4 37 17.3l26.3 72.7c5.5 14.9-2.3 31.6-17.3 37zM403.3 287.5c23-3.6 46.3-3.9 69.5-2.3 24 1.7 47.8 5.9 71.9 6.8 3.3 0.1 6.6 0.2 10 0.1 0.9 0 7.5-0.9 8.3-0.5 1.4-0.2 2.7-0.4 4.1-0.7 2.7-0.5 5.4-1.2 8-2l1.8-0.6c0.7-0.3 1.3-0.6 2-0.9 2.7-1.2 5.2-2.6 7.7-4.2 0.4-0.2 1.1-0.7 1.7-1 1-0.8 2-1.6 2.9-2.4 2.8-2.3 5.5-4.8 8.2-7.3 11-10.6 20.7-22.4 32.4-32.2 3-2.5 6.1-4.8 9.2-7l-4.5-12.4c-16.1-44.6-48.9-80.1-92.2-100.2-43.2-20-91.5-22.1-136.1-5.9-44.9 16.3-80.8 49.1-101.1 92.4-19.1 40.7-22.1 86-8.7 128.4 30-25 66-42 104.9-48.1z" fill="#F4D676" p-id="4503"></path><path d="M649.5 283.9c-10.1 10.5-19.8 21.3-31.6 30-11.6 8.6-24.4 15-38.8 17.8-12.4 2.4-25.2 2.7-37.8 2.1-23-1.2-45.9-5.1-68.9-6.7-10.7-0.7-21.5-1.1-32.2-0.9-5.7 0.1-11.4 0.5-17.1 1-1.2 0.2-2.5 0.3-3.7 0.5-2.6 0.4-5.3 0.8-7.9 1.2-10.9 1.9-21.6 4.8-32 8.5-0.6 0.2-1.2 0.5-1.9 0.7-0.8 0.3-1.6 0.6-2.3 0.9-2.8 1.1-5.5 2.4-8.3 3.6-4.9 2.2-9.7 4.6-14.4 7.2-2.7 1.5-5.3 3.1-7.8 4.7-1.4 0.9-2.9 1.9-4.3 2.9l-0.9 0.6c-6.3 4.9-12.5 9.9-18.4 15.4-1.7 1.5-3.3 3.1-4.9 4.7L379 551.6c1.4-1.2 2.7-2.3 4.1-3.5 47.4-38.8 109.9-47 169.1-48.8 11.2-0.3 22.5 0 33.7 0 5.7 0 11.3-0.1 17-0.5 1.4-0.1 2.9-0.2 4.3-0.3h0.1c2.8-0.4 5.6-0.8 8.4-1.4 2.7-0.6 5.5-1.2 8.1-2 1-0.3 2.3-1 3.3-1.2 2.6-1.1 5.1-2.5 7.5-3.9 0.1-0.1 0.3-0.2 0.4-0.3 0.7-0.5 1.4-1 2-1.5 1.8-1.6 3.4-3.3 5-5 0.2-0.3 0.5-0.6 0.7-0.8 0.7-1 1.4-2.1 2.1-3.2 1.6-2.5 3-5.1 4.4-7.7 0.6-1.1 1.1-2.3 1.7-3.5 0.1-0.1 0.1-0.2 0.2-0.4 8.7-22.3 13.8-45.7 24.1-67.4 4.9-10.2 11.3-19.3 19.1-26.9l-35.6-98.5c-3.2 3-6.2 6-9.2 9.1z" fill="#F4AD9F" p-id="4504"></path><path d="M707.1 414.6c-0.2 0.6-0.5 1.2-0.6 1.4-1 2.5-1.9 5-2.8 7.5-7.8 22.3-12.8 46.1-25.2 66.6-14.1 23.3-37.3 37-64 40.9-23.5 3.4-47.2 1.8-70.9 2.4-6.5 0.1-13 0.3-19.5 0.7-3.8 0.2-7.5 0.5-11.3 0.8-1.4 0.1-3.7-0.1-4.9 0.5 0.1 0 4-0.5 1.5-0.2-0.8 0.1-1.6 0.2-2.5 0.3-13.8 1.6-27.6 4.1-41.1 7.6-6.7 1.8-13.4 3.8-19.9 6.2-0.1 0-0.2 0.1-0.3 0.1-0.4 0.2-1.1 0.4-1.3 0.5-1.5 0.6-3 1.3-4.6 1.9-3 1.3-6 2.7-8.9 4.2-6 3-11.9 6.4-17.5 10.2-0.5 0.4-3.4 2.6-0.9 0.6 2.6-2-0.2 0.1-0.8 0.6-1.3 1-2.5 2-3.7 3-1.6 1.3-3.1 2.6-4.7 4-4.5 3.9-8.8 8-13 12.2l31.2 86.1c16.3 45.1 46.2 69.1 88.6 71.1 35.1 1.6 75.5-11.8 117.2-26.9C687 695.2 737.9 674 757.6 632c10.8-23.1 10.7-50.3-0.3-80.9l-49.7-137.4c-0.2 0.3-0.4 0.6-0.5 0.9z" fill="#76B767" p-id="4505"></path></svg>