<?xml version="1.0" standalone="no"?><!DOCTYPE svg PUBLIC "-//W3C//DTD SVG 1.1//EN" "http://www.w3.org/Graphics/SVG/1.1/DTD/svg11.dtd"><svg t="1681895070954" class="icon" viewBox="0 0 1024 1024" version="1.1" xmlns="http://www.w3.org/2000/svg" p-id="4805" xmlns:xlink="http://www.w3.org/1999/xlink" width="200" height="200"><path d="M200.2 823h-27.3c-3.8 0-7.3 2.7-7.8 6.5-0.6 4.5 3 8.5 7.4 8.5h27.7c4.1 0 7.5-3.4 7.5-7.5s-3.4-7.5-7.5-7.5zM780.2 823H674.5c-4.1 0-7.5 3.4-7.5 7.5s3.4 7.5 7.5 7.5h105.7c4.1 0 7.5-3.4 7.5-7.5s-3.4-7.5-7.5-7.5zM797.7 830.5c0 4.1 3.4 7.5 7.5 7.5h47c4.1 0 7.5-3.4 7.5-7.5s-3.4-7.5-7.5-7.5h-47c-4.2 0-7.5 3.4-7.5 7.5zM649.5 823H225.2c-4.1 0-7.5 3.4-7.5 7.5s3.4 7.5 7.5 7.5h424.3c4.1 0 7.5-3.4 7.5-7.5s-3.4-7.5-7.5-7.5zM599.8 885H330.7c-4.4 0-8 3.6-8 8s3.6 8 8 8H600c4.8 0 8.7-4.3 7.9-9.3-0.6-3.9-4.2-6.7-8.1-6.7zM304.7 885h-54.4c-4 0-7.5 2.8-8.1 6.7-0.8 5 3.1 9.3 7.9 9.3h54.7c4.4 0 8-3.6 8-8-0.1-4.4-3.7-8-8.1-8z" fill="#76B767" p-id="4806"></path><path d="M216.7 214.7h-8.5v-8.5c0-1.8-1.5-3.3-3.3-3.3s-3.3 1.5-3.3 3.3v8.5h-8.5c-1.8 0-3.3 1.5-3.3 3.3s1.5 3.3 3.3 3.3h8.5v8.5c0 1.8 1.5 3.3 3.3 3.3s3.3-1.5 3.3-3.3v-8.5h8.5c1.8 0 3.3-1.5 3.3-3.3s-1.5-3.3-3.3-3.3z" fill="#F4AD9F" p-id="4807"></path><path d="M897.7 321.7h-8.5v-8.5c0-1.8-1.5-3.3-3.3-3.3s-3.3 1.5-3.3 3.3v8.5h-8.5c-1.8 0-3.3 1.5-3.3 3.3s1.5 3.3 3.3 3.3h8.5v8.5c0 1.8 1.5 3.3 3.3 3.3s3.3-1.5 3.3-3.3v-8.5h8.5c1.8 0 3.3-1.5 3.3-3.3s-1.5-3.3-3.3-3.3z" fill="#76B767" p-id="4808"></path><path d="M839.2 737.2c-0.7 0-1.3-0.6-1.3-1.3v-9.6c0-0.7 0.6-1.3 1.3-1.3 0.7 0 1.3 0.6 1.3 1.3v9.6c0 0.7-0.6 1.3-1.3 1.3zM835.6 738.3c-0.6 0.4-1.4 0.1-1.8-0.5l-4.8-8.3c-0.4-0.6-0.1-1.4 0.5-1.8 0.6-0.4 1.4-0.1 1.8 0.5l4.8 8.3c0.3 0.7 0.1 1.5-0.5 1.8zM833 741.1c-0.4 0.6-1.2 0.8-1.8 0.5l-8.3-4.8c-0.6-0.4-0.8-1.2-0.5-1.8 0.4-0.6 1.2-0.8 1.8-0.5l8.3 4.8c0.7 0.4 0.9 1.2 0.5 1.8zM832.2 744.8c0 0.7-0.6 1.3-1.3 1.3h-9.6c-0.7 0-1.3-0.6-1.3-1.3 0-0.7 0.6-1.3 1.3-1.3h9.6c0.7 0 1.3 0.6 1.3 1.3zM833.3 748.4c0.4 0.6 0.1 1.4-0.5 1.8l-8.3 4.8c-0.6 0.4-1.4 0.1-1.8-0.5-0.4-0.6-0.1-1.4 0.5-1.8l8.3-4.8c0.7-0.3 1.5-0.1 1.8 0.5zM836.1 751c0.6 0.4 0.8 1.2 0.5 1.8l-4.8 8.3c-0.4 0.6-1.2 0.8-1.8 0.5-0.6-0.4-0.8-1.2-0.5-1.8l4.8-8.3c0.4-0.7 1.2-0.9 1.8-0.5zM839.8 751.8c0.7 0 1.3 0.6 1.3 1.3v9.6c0 0.7-0.6 1.3-1.3 1.3-0.7 0-1.3-0.6-1.3-1.3v-9.6c0-0.7 0.6-1.3 1.3-1.3zM843.4 750.7c0.6-0.4 1.4-0.1 1.8 0.5l4.8 8.3c0.4 0.6 0.1 1.4-0.5 1.8-0.6 0.4-1.4 0.1-1.8-0.5l-4.8-8.3c-0.3-0.7-0.1-1.5 0.5-1.8zM846 747.9c0.4-0.6 1.2-0.8 1.8-0.5l8.3 4.8c0.6 0.4 0.8 1.2 0.5 1.8-0.4 0.6-1.2 0.8-1.8 0.5l-8.3-4.8c-0.7-0.4-0.9-1.2-0.5-1.8zM846.8 744.2c0-0.7 0.6-1.3 1.3-1.3h9.6c0.7 0 1.3 0.6 1.3 1.3 0 0.7-0.6 1.3-1.3 1.3h-9.6c-0.7 0-1.3-0.6-1.3-1.3zM845.7 740.6c-0.4-0.6-0.1-1.4 0.5-1.8l8.3-4.8c0.6-0.4 1.4-0.1 1.8 0.5 0.4 0.6 0.1 1.4-0.5 1.8l-8.3 4.8c-0.7 0.3-1.5 0.1-1.8-0.5zM842.9 738c-0.6-0.4-0.8-1.2-0.5-1.8l4.8-8.3c0.4-0.6 1.2-0.8 1.8-0.5 0.6 0.4 0.8 1.2 0.5 1.8l-4.8 8.3c-0.4 0.7-1.2 0.9-1.8 0.5z" fill="#F4D676" p-id="4809"></path><path d="M779.2 159.2c-0.7 0-1.3-0.6-1.3-1.3v-9.6c0-0.7 0.6-1.3 1.3-1.3 0.7 0 1.3 0.6 1.3 1.3v9.6c0 0.7-0.6 1.3-1.3 1.3zM775.6 160.3c-0.6 0.4-1.4 0.1-1.8-0.5l-4.8-8.3c-0.4-0.6-0.1-1.4 0.5-1.8 0.6-0.4 1.4-0.1 1.8 0.5l4.8 8.3c0.3 0.7 0.1 1.5-0.5 1.8zM773 163.1c-0.4 0.6-1.2 0.8-1.8 0.5l-8.3-4.8c-0.6-0.4-0.8-1.2-0.5-1.8 0.4-0.6 1.2-0.8 1.8-0.5l8.3 4.8c0.7 0.4 0.9 1.2 0.5 1.8zM772.2 166.8c0 0.7-0.6 1.3-1.3 1.3h-9.6c-0.7 0-1.3-0.6-1.3-1.3 0-0.7 0.6-1.3 1.3-1.3h9.6c0.7 0 1.3 0.6 1.3 1.3zM773.3 170.4c0.4 0.6 0.1 1.4-0.5 1.8l-8.3 4.8c-0.6 0.4-1.4 0.1-1.8-0.5-0.4-0.6-0.1-1.4 0.5-1.8l8.3-4.8c0.7-0.3 1.5-0.1 1.8 0.5zM776.1 173c0.6 0.4 0.8 1.2 0.5 1.8l-4.8 8.3c-0.4 0.6-1.2 0.8-1.8 0.5-0.6-0.4-0.8-1.2-0.5-1.8l4.8-8.3c0.4-0.7 1.2-0.9 1.8-0.5zM779.8 173.8c0.7 0 1.3 0.6 1.3 1.3v9.6c0 0.7-0.6 1.3-1.3 1.3-0.7 0-1.3-0.6-1.3-1.3v-9.6c0-0.7 0.6-1.3 1.3-1.3zM783.4 172.7c0.6-0.4 1.4-0.1 1.8 0.5l4.8 8.3c0.4 0.6 0.1 1.4-0.5 1.8-0.6 0.4-1.4 0.1-1.8-0.5l-4.8-8.3c-0.3-0.7-0.1-1.5 0.5-1.8zM786 169.9c0.4-0.6 1.2-0.8 1.8-0.5l8.3 4.8c0.6 0.4 0.8 1.2 0.5 1.8-0.4 0.6-1.2 0.8-1.8 0.5l-8.3-4.8c-0.7-0.4-0.9-1.2-0.5-1.8zM786.8 166.2c0-0.7 0.6-1.3 1.3-1.3h9.6c0.7 0 1.3 0.6 1.3 1.3 0 0.7-0.6 1.3-1.3 1.3h-9.6c-0.7 0-1.3-0.6-1.3-1.3zM785.7 162.6c-0.4-0.6-0.1-1.4 0.5-1.8l8.3-4.8c0.6-0.4 1.4-0.1 1.8 0.5 0.4 0.6 0.1 1.4-0.5 1.8l-8.3 4.8c-0.7 0.3-1.5 0.1-1.8-0.5zM782.9 160c-0.6-0.4-0.8-1.2-0.5-1.8l4.8-8.3c0.4-0.6 1.2-0.8 1.8-0.5 0.6 0.4 0.8 1.2 0.5 1.8l-4.8 8.3c-0.4 0.7-1.2 0.9-1.8 0.5z" fill="#F4AD9F" p-id="4810"></path><path d="M219.2 758.7l2.9 5.8c0.2 0.4 0.5 0.6 1 0.7l6.4 0.9c1.1 0.2 1.5 1.4 0.7 2.2l-4.7 4.5c-0.3 0.3-0.4 0.7-0.4 1.1l1.1 6.4c0.2 1-0.9 1.8-1.9 1.4l-5.7-3c-0.4-0.2-0.8-0.2-1.2 0l-5.7 3c-0.9 0.5-2-0.3-1.9-1.4l1.1-6.4c0.1-0.4-0.1-0.8-0.4-1.1l-4.7-4.5c-0.8-0.7-0.3-2 0.7-2.2l6.4-0.9c0.4-0.1 0.8-0.3 1-0.7l2.9-5.8c0.5-0.9 1.9-0.9 2.4 0z" fill="#F4AD9F" p-id="4811"></path><path d="M716.2 92.7l2.9 5.8c0.2 0.4 0.5 0.6 1 0.7l6.4 0.9c1.1 0.2 1.5 1.4 0.7 2.2l-4.7 4.5c-0.3 0.3-0.4 0.7-0.4 1.1l1.1 6.4c0.2 1-0.9 1.8-1.9 1.4l-5.7-3c-0.4-0.2-0.8-0.2-1.2 0l-5.7 3c-0.9 0.5-2-0.3-1.9-1.4l1.1-6.4c0.1-0.4-0.1-0.8-0.4-1.1l-4.7-4.5c-0.8-0.7-0.3-2 0.7-2.2l6.4-0.9c0.4-0.1 0.8-0.3 1-0.7l2.9-5.8c0.5-0.9 1.9-0.9 2.4 0z" fill="#F4D676" p-id="4812"></path><path d="M528.5 761.5c0.6-11.4 0.5-22.7-0.4-34.1-0.2-1.8-0.3-3.7-0.5-5.5 0-0.4-0.2-1.9-0.3-2.9-0.5-3.5-1.1-6.9-1.8-10.3-1.5-7.7-3.4-15.3-5.7-22.8-1.3-4.2-2.7-8.3-4.3-12.4-0.5-1.2-1-2.5-1.5-3.7-2.4-5.4-4.9-10.8-7.7-16.1-5.7-10.9-12.4-21.2-19.7-31.1-0.1-0.1-0.1-0.1-0.1-0.2l-1.2-1.5c-1-1.2-2-2.5-3-3.7-1.7-2-3.5-4-5.2-6-3.9-4.3-8-8.5-12.3-12.5s-9.3-9.8-14.5-12.6c6.1 3.2-1.9-1.4-3.8-3l-3.9-3c-2.1-1.7-4.3-3.4-6.4-5.1-20.6-16.9-39.4-35.8-54.8-57.6-14.7-20.8-23.8-44-27.2-69.2-5.9-42.7-0.5-86.1 13.9-126.6 0.9-2.6 1.8-5.1 2.8-7.7-10.2 2-20.4 5-30.4 8.9C234.6 364.3 187.8 497.6 236 620.4c48 122.7 172.9 188.7 278.8 147.2 4.7-1.8 9.3-3.9 13.7-6.1z" fill="#F4AD9F" p-id="4813"></path><path d="M469.2 460.7c9.8-20.1 21.8-39.6 36.2-56.8 14.8-17.6 34.4-31.1 54.6-41.7 18.9-9.9 38.7-17.7 57.9-27.1 9.1-4.5 18.1-9.3 26.7-14.8 2.5-1.6 5-3.4 7.5-5.1 3-3.2 2.3-2 1-0.9 0.6-0.5 1.3-0.9 1.8-1.4 3.8-3.1 7.4-6.5 10.7-10.1 1.5-1.6 2.9-3.2 4.4-4.9 1.6-2.3 3-4.6 4.4-7 1.9-3.3 3.6-6.6 5.2-10.1 0.5-1 0.9-2 1.4-3 1.6-4.8 1.5-3.8 1-2.4 6.1-15.4 10.3-31.4 12.9-47.8v-0.1c0.1-1.1 0.2-2.2 0.3-3.2 0.2-2 0.3-3.9 0.5-5.9 0.2-4 0.3-8.1 0.2-12.1-0.1-2-0.2-4.1-0.3-6.1 0-0.5-0.1-1-0.1-1.5-0.7-2.7-0.9-3.7-0.8-3.7-0.4-2-0.7-4-1.2-5.9-0.5-1.7-1.1-3.3-1.6-4.9-0.2-0.5-0.4-0.9-0.7-1.4-0.6-1.2-1.3-2.3-2-3.5-92.1-23.5-198.3 26.6-253.4 126.3-48.7 88.2-43.4 189.6 6.2 257.2-0.5-35.3 12.5-72 27.2-102.1z" fill="#F4AD9F" p-id="4814"></path><path d="M695.2 197.2c-0.1-1.2-0.5-2.3-0.6-2.2 0.2 1.2 0.5 2.5 0.8 3.7-0.1-0.6-0.1-1.1-0.2-1.5z" fill="#F4AD9F" p-id="4815"></path><path d="M740.9 201.6c0.6 12.7-0.6 25.5-2.4 38-2.5 16.8-7 33.4-13.3 49.1-6.5 16.1-13.9 31.2-25.7 44.2-30.4 33.4-74 46.6-113 66.5-9.4 4.8-18.6 10-27.2 16.1-0.9 0.6-1.8 1.4-2.7 2.1 1.3-0.7 2-0.8-1.4 1-2.1 1.7-4.1 3.5-6.1 5.3-3.8 3.4-7.3 7.1-10.7 11-0.3 0.4-2.8 3.8-3.5 4.3l-0.1 0.1c-1.4 2-2.9 4-4.3 6-2.6 3.8-5.2 7.7-7.6 11.6-5.8 9.4-11.1 19.2-15.9 29.2-1.5 3.1-2.8 6.2-4.2 9.3-0.4 0.9-0.7 1.8-1.1 2.7-2.2 5.5-4.2 11-6 16.7-1.8 5.6-3.4 11.2-4.7 16.9-0.7 2.8-1.3 5.6-1.8 8.5-0.3 1.4-0.5 2.8-0.7 4.2 0.1 2.8 0 3.3-0.1 2.9-0.2 4.4-1 9-1.1 13.4 0 2.7 0.1 5.4 0.2 8.1l0.3 3.9c0.9 4.8 1.9 9.6 3.6 14.3 0.2 0.6 0.4 1.1 0.7 1.7-0.5-1.6-0.5-2.7 0.5 1.2 1.1 2.3 2.3 4.4 3.6 6.6 3.3 5.3 3.8 11.3 2.3 16.8 0.6 0.3 1.2 0.7 1.7 1 99.5 55 232 6 295.8-109.5C857.9 393 832.8 260 740.9 201.6z" fill="#F4D676" p-id="4816"></path><path d="M619.3 469.9c-36.3-92.7-116.4-153-199-159.2-0.2 0.5-0.5 1.1-0.7 1.6-0.7 1.8-1.5 3.5-2.2 5.3-1.6 4.1-3.2 8.2-4.7 12.3-2 5.6-4 11.2-5.8 16.9-2.8 9.1-5.1 18.4-6.9 27.7-0.6 3-1 6-1.5 9.1v0.2c-0.2 1.6-0.4 3.1-0.5 4.7-0.5 5.2-0.9 10.5-1.1 15.8-0.3 6.3-0.3 12.7 0 19 0.1 2.6 0.2 5.2 0.4 7.9 0.1 1.9-0.3 7.9 0.9 9.3-0.5-3.5-0.5-3.9-0.2-1.4 0.1 0.5 0.2 1 0.2 1.5 0.2 1.5 0.5 3 0.8 4.5 0.5 2.5 1 4.9 1.5 7.4 1.2 5.2 2.7 10.4 4.6 15.5 0.6 1.6 3.6 7.1 0.4 1.2 0.4 0.8 0.8 1.7 1.2 2.6 1.4 3 3.1 5.9 4.7 8.8 2.9 5 6 9.9 9.4 14.6 1.1 1.5 2.1 3.3 3.4 4.6l-0.5-0.5c0.4 0.4 0.8 0.9 1 1.1 1.7 2.1 3.5 4.2 5.3 6.3 4 4.6 8.1 8.9 12.3 13.2 8.5 8.5 17.6 16.5 27 24.1 2.8 2.2 5.5 4.4 8.3 6.6 0.6 0.4 0.8 0.6 0.7 0.5l2.5 2c1.3 1 2.5 2 3.8 3 4.5 3.7 8.9 7.6 13.2 11.7 37.6 36.2 64.6 85.5 72.7 137.2 1.3 8.5 2.2 16.9 2.7 25.3 62.9-59.7 84.2-163.2 46.1-260.4z" fill="#E0E6E7" p-id="4817"></path></svg>