<?xml version="1.0" standalone="no"?><!DOCTYPE svg PUBLIC "-//W3C//DTD SVG 1.1//EN" "http://www.w3.org/Graphics/SVG/1.1/DTD/svg11.dtd"><svg t="1681895064907" class="icon" viewBox="0 0 1024 1024" version="1.1" xmlns="http://www.w3.org/2000/svg" p-id="4650" xmlns:xlink="http://www.w3.org/1999/xlink" width="200" height="200"><path d="M200.2 823h-27.3c-3.8 0-7.3 2.7-7.8 6.5-0.6 4.5 3 8.5 7.4 8.5h27.7c4.1 0 7.5-3.4 7.5-7.5s-3.4-7.5-7.5-7.5zM780.2 823H674.5c-4.1 0-7.5 3.4-7.5 7.5s3.4 7.5 7.5 7.5h105.7c4.1 0 7.5-3.4 7.5-7.5s-3.4-7.5-7.5-7.5zM797.7 830.5c0 4.1 3.4 7.5 7.5 7.5h47c4.1 0 7.5-3.4 7.5-7.5s-3.4-7.5-7.5-7.5h-47c-4.2 0-7.5 3.4-7.5 7.5zM649.5 823H225.2c-4.1 0-7.5 3.4-7.5 7.5s3.4 7.5 7.5 7.5h424.3c4.1 0 7.5-3.4 7.5-7.5s-3.4-7.5-7.5-7.5zM599.8 885H330.7c-4.4 0-8 3.6-8 8s3.6 8 8 8H600c4.8 0 8.7-4.3 7.9-9.3-0.6-3.9-4.2-6.7-8.1-6.7zM304.7 885h-54.4c-4 0-7.5 2.8-8.1 6.7-0.8 5 3.1 9.3 7.9 9.3h54.7c4.4 0 8-3.6 8-8-0.1-4.4-3.7-8-8.1-8z" fill="#76B767" p-id="4651"></path><path d="M216.7 214.7h-8.5v-8.5c0-1.8-1.5-3.3-3.3-3.3s-3.3 1.5-3.3 3.3v8.5h-8.5c-1.8 0-3.3 1.5-3.3 3.3s1.5 3.3 3.3 3.3h8.5v8.5c0 1.8 1.5 3.3 3.3 3.3s3.3-1.5 3.3-3.3v-8.5h8.5c1.8 0 3.3-1.5 3.3-3.3s-1.5-3.3-3.3-3.3z" fill="#F4AD9F" p-id="4652"></path><path d="M897.7 321.7h-8.5v-8.5c0-1.8-1.5-3.3-3.3-3.3s-3.3 1.5-3.3 3.3v8.5h-8.5c-1.8 0-3.3 1.5-3.3 3.3s1.5 3.3 3.3 3.3h8.5v8.5c0 1.8 1.5 3.3 3.3 3.3s3.3-1.5 3.3-3.3v-8.5h8.5c1.8 0 3.3-1.5 3.3-3.3s-1.5-3.3-3.3-3.3z" fill="#76B767" p-id="4653"></path><path d="M839.2 737.2c-0.7 0-1.3-0.6-1.3-1.3v-9.6c0-0.7 0.6-1.3 1.3-1.3 0.7 0 1.3 0.6 1.3 1.3v9.6c0 0.7-0.6 1.3-1.3 1.3zM835.6 738.3c-0.6 0.4-1.4 0.1-1.8-0.5l-4.8-8.3c-0.4-0.6-0.1-1.4 0.5-1.8 0.6-0.4 1.4-0.1 1.8 0.5l4.8 8.3c0.3 0.7 0.1 1.5-0.5 1.8zM833 741.1c-0.4 0.6-1.2 0.8-1.8 0.5l-8.3-4.8c-0.6-0.4-0.8-1.2-0.5-1.8 0.4-0.6 1.2-0.8 1.8-0.5l8.3 4.8c0.7 0.4 0.9 1.2 0.5 1.8zM832.2 744.8c0 0.7-0.6 1.3-1.3 1.3h-9.6c-0.7 0-1.3-0.6-1.3-1.3 0-0.7 0.6-1.3 1.3-1.3h9.6c0.7 0 1.3 0.6 1.3 1.3zM833.3 748.4c0.4 0.6 0.1 1.4-0.5 1.8l-8.3 4.8c-0.6 0.4-1.4 0.1-1.8-0.5-0.4-0.6-0.1-1.4 0.5-1.8l8.3-4.8c0.7-0.3 1.5-0.1 1.8 0.5zM836.1 751c0.6 0.4 0.8 1.2 0.5 1.8l-4.8 8.3c-0.4 0.6-1.2 0.8-1.8 0.5-0.6-0.4-0.8-1.2-0.5-1.8l4.8-8.3c0.4-0.7 1.2-0.9 1.8-0.5zM839.8 751.8c0.7 0 1.3 0.6 1.3 1.3v9.6c0 0.7-0.6 1.3-1.3 1.3-0.7 0-1.3-0.6-1.3-1.3v-9.6c0-0.7 0.6-1.3 1.3-1.3zM843.4 750.7c0.6-0.4 1.4-0.1 1.8 0.5l4.8 8.3c0.4 0.6 0.1 1.4-0.5 1.8-0.6 0.4-1.4 0.1-1.8-0.5l-4.8-8.3c-0.3-0.7-0.1-1.5 0.5-1.8zM846 747.9c0.4-0.6 1.2-0.8 1.8-0.5l8.3 4.8c0.6 0.4 0.8 1.2 0.5 1.8-0.4 0.6-1.2 0.8-1.8 0.5l-8.3-4.8c-0.7-0.4-0.9-1.2-0.5-1.8zM846.8 744.2c0-0.7 0.6-1.3 1.3-1.3h9.6c0.7 0 1.3 0.6 1.3 1.3 0 0.7-0.6 1.3-1.3 1.3h-9.6c-0.7 0-1.3-0.6-1.3-1.3zM845.7 740.6c-0.4-0.6-0.1-1.4 0.5-1.8l8.3-4.8c0.6-0.4 1.4-0.1 1.8 0.5 0.4 0.6 0.1 1.4-0.5 1.8l-8.3 4.8c-0.7 0.3-1.5 0.1-1.8-0.5zM842.9 738c-0.6-0.4-0.8-1.2-0.5-1.8l4.8-8.3c0.4-0.6 1.2-0.8 1.8-0.5 0.6 0.4 0.8 1.2 0.5 1.8l-4.8 8.3c-0.4 0.7-1.2 0.9-1.8 0.5z" fill="#F4D676" p-id="4654"></path><path d="M779.2 159.2c-0.7 0-1.3-0.6-1.3-1.3v-9.6c0-0.7 0.6-1.3 1.3-1.3 0.7 0 1.3 0.6 1.3 1.3v9.6c0 0.7-0.6 1.3-1.3 1.3zM775.6 160.3c-0.6 0.4-1.4 0.1-1.8-0.5l-4.8-8.3c-0.4-0.6-0.1-1.4 0.5-1.8 0.6-0.4 1.4-0.1 1.8 0.5l4.8 8.3c0.3 0.7 0.1 1.5-0.5 1.8zM773 163.1c-0.4 0.6-1.2 0.8-1.8 0.5l-8.3-4.8c-0.6-0.4-0.8-1.2-0.5-1.8 0.4-0.6 1.2-0.8 1.8-0.5l8.3 4.8c0.7 0.4 0.9 1.2 0.5 1.8zM772.2 166.8c0 0.7-0.6 1.3-1.3 1.3h-9.6c-0.7 0-1.3-0.6-1.3-1.3 0-0.7 0.6-1.3 1.3-1.3h9.6c0.7 0 1.3 0.6 1.3 1.3zM773.3 170.4c0.4 0.6 0.1 1.4-0.5 1.8l-8.3 4.8c-0.6 0.4-1.4 0.1-1.8-0.5-0.4-0.6-0.1-1.4 0.5-1.8l8.3-4.8c0.7-0.3 1.5-0.1 1.8 0.5zM776.1 173c0.6 0.4 0.8 1.2 0.5 1.8l-4.8 8.3c-0.4 0.6-1.2 0.8-1.8 0.5-0.6-0.4-0.8-1.2-0.5-1.8l4.8-8.3c0.4-0.7 1.2-0.9 1.8-0.5zM779.8 173.8c0.7 0 1.3 0.6 1.3 1.3v9.6c0 0.7-0.6 1.3-1.3 1.3-0.7 0-1.3-0.6-1.3-1.3v-9.6c0-0.7 0.6-1.3 1.3-1.3zM783.4 172.7c0.6-0.4 1.4-0.1 1.8 0.5l4.8 8.3c0.4 0.6 0.1 1.4-0.5 1.8-0.6 0.4-1.4 0.1-1.8-0.5l-4.8-8.3c-0.3-0.7-0.1-1.5 0.5-1.8zM786 169.9c0.4-0.6 1.2-0.8 1.8-0.5l8.3 4.8c0.6 0.4 0.8 1.2 0.5 1.8-0.4 0.6-1.2 0.8-1.8 0.5l-8.3-4.8c-0.7-0.4-0.9-1.2-0.5-1.8zM786.8 166.2c0-0.7 0.6-1.3 1.3-1.3h9.6c0.7 0 1.3 0.6 1.3 1.3 0 0.7-0.6 1.3-1.3 1.3h-9.6c-0.7 0-1.3-0.6-1.3-1.3zM785.7 162.6c-0.4-0.6-0.1-1.4 0.5-1.8l8.3-4.8c0.6-0.4 1.4-0.1 1.8 0.5 0.4 0.6 0.1 1.4-0.5 1.8l-8.3 4.8c-0.7 0.3-1.5 0.1-1.8-0.5zM782.9 160c-0.6-0.4-0.8-1.2-0.5-1.8l4.8-8.3c0.4-0.6 1.2-0.8 1.8-0.5 0.6 0.4 0.8 1.2 0.5 1.8l-4.8 8.3c-0.4 0.7-1.2 0.9-1.8 0.5z" fill="#F4AD9F" p-id="4655"></path><path d="M219.2 758.7l2.9 5.8c0.2 0.4 0.5 0.6 1 0.7l6.4 0.9c1.1 0.2 1.5 1.4 0.7 2.2l-4.7 4.5c-0.3 0.3-0.4 0.7-0.4 1.1l1.1 6.4c0.2 1-0.9 1.8-1.9 1.4l-5.7-3c-0.4-0.2-0.8-0.2-1.2 0l-5.7 3c-0.9 0.5-2-0.3-1.9-1.4l1.1-6.4c0.1-0.4-0.1-0.8-0.4-1.1l-4.7-4.5c-0.8-0.7-0.3-2 0.7-2.2l6.4-0.9c0.4-0.1 0.8-0.3 1-0.7l2.9-5.8c0.5-0.9 1.9-0.9 2.4 0z" fill="#F4AD9F" p-id="4656"></path><path d="M716.2 92.7l2.9 5.8c0.2 0.4 0.5 0.6 1 0.7l6.4 0.9c1.1 0.2 1.5 1.4 0.7 2.2l-4.7 4.5c-0.3 0.3-0.4 0.7-0.4 1.1l1.1 6.4c0.2 1-0.9 1.8-1.9 1.4l-5.7-3c-0.4-0.2-0.8-0.2-1.2 0l-5.7 3c-0.9 0.5-2-0.3-1.9-1.4l1.1-6.4c0.1-0.4-0.1-0.8-0.4-1.1l-4.7-4.5c-0.8-0.7-0.3-2 0.7-2.2l6.4-0.9c0.4-0.1 0.8-0.3 1-0.7l2.9-5.8c0.5-0.9 1.9-0.9 2.4 0z" fill="#F4D676" p-id="4657"></path><path d="M551.6 284.5c-1-16.6 4.1-33.1 2-49.8-2.3-18.7-8.1-36.9-19.4-52.2-12.6-17-28.2-29.5-48-37.1-17.3-6.6-36.7-6.8-54.7-3.1-19 3.9-38.1 14.7-50.6 29.6-5 6-8.4 12.2-8.4 20.3 0 7 3.1 15.4 8.4 20.3 10.6 9.7 30.3 12.3 40.5 0 2.2-2.6 4.5-5 7.1-7.3 2.7-1.8 5.4-3.4 8.3-4.8 3.6-1.3 7.3-2.3 11-3 3.8-0.3 7.7-0.3 11.5 0 3.3 0.7 6.6 1.5 9.8 2.6 3.1 1.5 6 3.2 8.8 5.2 3 2.6 5.8 5.4 8.4 8.4 2.6 3.7 4.8 7.6 6.8 11.6 1.5 4.3 2.7 8.6 3.6 13.1 0.6 8.3-0.2 16.5-1.2 24.8-1.5 12.7-1.8 24.7 1 37.4 3.2 14.7 21.1 24.6 35.3 20 15.4-5 23.5-19.6 20-35.3-0.1-0.1-0.1-0.4-0.2-0.7z" fill="#76B767" p-id="4658"></path><path d="M662.5 754.5c-102.7 0-173.9-94.7-173.9-229.7 0-136.5 71.2-289.2 173.9-289.2s173.9 152.7 173.9 289.2c0 135-71.2 229.7-173.9 229.7z" fill="#F4AD9F" p-id="4659"></path><path d="M362.4 754.5c-102.7 0-173.9-94.7-173.9-229.7 0-136.5 71.2-289.2 173.9-289.2s173.9 152.7 173.9 289.2c0 135-71.2 229.7-173.9 229.7z" fill="#F4AD9F" p-id="4660"></path><path d="M511.1 754.5c-102.7 0-173.9-94.7-173.9-229.7 0-136.5 71.2-289.2 173.9-289.2S685 388.3 685 524.8c0 135-71.2 229.7-173.9 229.7z" fill="#FC5D42" p-id="4661"></path><path d="M456.8 287.5c-2-3.4-5.9-3.9-9.2-2.4-15.5 7-27.1 19.9-33.4 35.6-1.4 3.4 1.5 7.3 4.7 8.3 3.8 1.1 6.9-1.3 8.3-4.7 5-12.5 15-22.1 27.2-27.6 3.4-1.5 4.1-6.3 2.4-9.2zM406.7 339.9c-8.6 0-8.7 13.4 0 13.4 8.6 0 8.7-13.4 0-13.4z" fill="#FFFFFF" p-id="4662"></path></svg>