<?xml version="1.0" standalone="no"?><!DOCTYPE svg PUBLIC "-//W3C//DTD SVG 1.1//EN" "http://www.w3.org/Graphics/SVG/1.1/DTD/svg11.dtd"><svg t="1681895105342" class="icon" viewBox="0 0 1024 1024" version="1.1" xmlns="http://www.w3.org/2000/svg" p-id="6209" xmlns:xlink="http://www.w3.org/1999/xlink" width="200" height="200"><path d="M200.2 823h-27.3c-3.8 0-7.3 2.7-7.8 6.5-0.6 4.5 3 8.5 7.4 8.5h27.7c4.1 0 7.5-3.4 7.5-7.5s-3.4-7.5-7.5-7.5zM780.2 823H674.5c-4.1 0-7.5 3.4-7.5 7.5s3.4 7.5 7.5 7.5h105.7c4.1 0 7.5-3.4 7.5-7.5s-3.4-7.5-7.5-7.5zM797.7 830.5c0 4.1 3.4 7.5 7.5 7.5h47c4.1 0 7.5-3.4 7.5-7.5s-3.4-7.5-7.5-7.5h-47c-4.2 0-7.5 3.4-7.5 7.5zM649.5 823H225.2c-4.1 0-7.5 3.4-7.5 7.5s3.4 7.5 7.5 7.5h424.3c4.1 0 7.5-3.4 7.5-7.5s-3.4-7.5-7.5-7.5zM599.8 885H330.7c-4.4 0-8 3.6-8 8s3.6 8 8 8H600c4.8 0 8.7-4.3 7.9-9.3-0.6-3.9-4.2-6.7-8.1-6.7zM304.7 885h-54.4c-4 0-7.5 2.8-8.1 6.7-0.8 5 3.1 9.3 7.9 9.3h54.7c4.4 0 8-3.6 8-8-0.1-4.4-3.7-8-8.1-8z" fill="#76B767" p-id="6210"></path><path d="M216.7 214.7h-8.5v-8.5c0-1.8-1.5-3.3-3.3-3.3s-3.3 1.5-3.3 3.3v8.5h-8.5c-1.8 0-3.3 1.5-3.3 3.3s1.5 3.3 3.3 3.3h8.5v8.5c0 1.8 1.5 3.3 3.3 3.3s3.3-1.5 3.3-3.3v-8.5h8.5c1.8 0 3.3-1.5 3.3-3.3s-1.5-3.3-3.3-3.3z" fill="#F4AD9F" p-id="6211"></path><path d="M897.7 321.7h-8.5v-8.5c0-1.8-1.5-3.3-3.3-3.3s-3.3 1.5-3.3 3.3v8.5h-8.5c-1.8 0-3.3 1.5-3.3 3.3s1.5 3.3 3.3 3.3h8.5v8.5c0 1.8 1.5 3.3 3.3 3.3s3.3-1.5 3.3-3.3v-8.5h8.5c1.8 0 3.3-1.5 3.3-3.3s-1.5-3.3-3.3-3.3z" fill="#76B767" p-id="6212"></path><path d="M839.2 737.2c-0.7 0-1.3-0.6-1.3-1.3v-9.6c0-0.7 0.6-1.3 1.3-1.3 0.7 0 1.3 0.6 1.3 1.3v9.6c0 0.7-0.6 1.3-1.3 1.3zM835.6 738.3c-0.6 0.4-1.4 0.1-1.8-0.5l-4.8-8.3c-0.4-0.6-0.1-1.4 0.5-1.8 0.6-0.4 1.4-0.1 1.8 0.5l4.8 8.3c0.3 0.7 0.1 1.5-0.5 1.8zM833 741.1c-0.4 0.6-1.2 0.8-1.8 0.5l-8.3-4.8c-0.6-0.4-0.8-1.2-0.5-1.8 0.4-0.6 1.2-0.8 1.8-0.5l8.3 4.8c0.7 0.4 0.9 1.2 0.5 1.8zM832.2 744.8c0 0.7-0.6 1.3-1.3 1.3h-9.6c-0.7 0-1.3-0.6-1.3-1.3 0-0.7 0.6-1.3 1.3-1.3h9.6c0.7 0 1.3 0.6 1.3 1.3zM833.3 748.4c0.4 0.6 0.1 1.4-0.5 1.8l-8.3 4.8c-0.6 0.4-1.4 0.1-1.8-0.5-0.4-0.6-0.1-1.4 0.5-1.8l8.3-4.8c0.7-0.3 1.5-0.1 1.8 0.5zM836.1 751c0.6 0.4 0.8 1.2 0.5 1.8l-4.8 8.3c-0.4 0.6-1.2 0.8-1.8 0.5-0.6-0.4-0.8-1.2-0.5-1.8l4.8-8.3c0.4-0.7 1.2-0.9 1.8-0.5zM839.8 751.8c0.7 0 1.3 0.6 1.3 1.3v9.6c0 0.7-0.6 1.3-1.3 1.3-0.7 0-1.3-0.6-1.3-1.3v-9.6c0-0.7 0.6-1.3 1.3-1.3zM843.4 750.7c0.6-0.4 1.4-0.1 1.8 0.5l4.8 8.3c0.4 0.6 0.1 1.4-0.5 1.8-0.6 0.4-1.4 0.1-1.8-0.5l-4.8-8.3c-0.3-0.7-0.1-1.5 0.5-1.8zM846 747.9c0.4-0.6 1.2-0.8 1.8-0.5l8.3 4.8c0.6 0.4 0.8 1.2 0.5 1.8-0.4 0.6-1.2 0.8-1.8 0.5l-8.3-4.8c-0.7-0.4-0.9-1.2-0.5-1.8zM846.8 744.2c0-0.7 0.6-1.3 1.3-1.3h9.6c0.7 0 1.3 0.6 1.3 1.3 0 0.7-0.6 1.3-1.3 1.3h-9.6c-0.7 0-1.3-0.6-1.3-1.3zM845.7 740.6c-0.4-0.6-0.1-1.4 0.5-1.8l8.3-4.8c0.6-0.4 1.4-0.1 1.8 0.5 0.4 0.6 0.1 1.4-0.5 1.8l-8.3 4.8c-0.7 0.3-1.5 0.1-1.8-0.5zM842.9 738c-0.6-0.4-0.8-1.2-0.5-1.8l4.8-8.3c0.4-0.6 1.2-0.8 1.8-0.5 0.6 0.4 0.8 1.2 0.5 1.8l-4.8 8.3c-0.4 0.7-1.2 0.9-1.8 0.5z" fill="#F4D676" p-id="6213"></path><path d="M779.2 159.2c-0.7 0-1.3-0.6-1.3-1.3v-9.6c0-0.7 0.6-1.3 1.3-1.3 0.7 0 1.3 0.6 1.3 1.3v9.6c0 0.7-0.6 1.3-1.3 1.3zM775.6 160.3c-0.6 0.4-1.4 0.1-1.8-0.5l-4.8-8.3c-0.4-0.6-0.1-1.4 0.5-1.8 0.6-0.4 1.4-0.1 1.8 0.5l4.8 8.3c0.3 0.7 0.1 1.5-0.5 1.8zM773 163.1c-0.4 0.6-1.2 0.8-1.8 0.5l-8.3-4.8c-0.6-0.4-0.8-1.2-0.5-1.8 0.4-0.6 1.2-0.8 1.8-0.5l8.3 4.8c0.7 0.4 0.9 1.2 0.5 1.8zM772.2 166.8c0 0.7-0.6 1.3-1.3 1.3h-9.6c-0.7 0-1.3-0.6-1.3-1.3 0-0.7 0.6-1.3 1.3-1.3h9.6c0.7 0 1.3 0.6 1.3 1.3zM773.3 170.4c0.4 0.6 0.1 1.4-0.5 1.8l-8.3 4.8c-0.6 0.4-1.4 0.1-1.8-0.5-0.4-0.6-0.1-1.4 0.5-1.8l8.3-4.8c0.7-0.3 1.5-0.1 1.8 0.5zM776.1 173c0.6 0.4 0.8 1.2 0.5 1.8l-4.8 8.3c-0.4 0.6-1.2 0.8-1.8 0.5-0.6-0.4-0.8-1.2-0.5-1.8l4.8-8.3c0.4-0.7 1.2-0.9 1.8-0.5zM779.8 173.8c0.7 0 1.3 0.6 1.3 1.3v9.6c0 0.7-0.6 1.3-1.3 1.3-0.7 0-1.3-0.6-1.3-1.3v-9.6c0-0.7 0.6-1.3 1.3-1.3zM783.4 172.7c0.6-0.4 1.4-0.1 1.8 0.5l4.8 8.3c0.4 0.6 0.1 1.4-0.5 1.8-0.6 0.4-1.4 0.1-1.8-0.5l-4.8-8.3c-0.3-0.7-0.1-1.5 0.5-1.8zM786 169.9c0.4-0.6 1.2-0.8 1.8-0.5l8.3 4.8c0.6 0.4 0.8 1.2 0.5 1.8-0.4 0.6-1.2 0.8-1.8 0.5l-8.3-4.8c-0.7-0.4-0.9-1.2-0.5-1.8zM786.8 166.2c0-0.7 0.6-1.3 1.3-1.3h9.6c0.7 0 1.3 0.6 1.3 1.3 0 0.7-0.6 1.3-1.3 1.3h-9.6c-0.7 0-1.3-0.6-1.3-1.3zM785.7 162.6c-0.4-0.6-0.1-1.4 0.5-1.8l8.3-4.8c0.6-0.4 1.4-0.1 1.8 0.5 0.4 0.6 0.1 1.4-0.5 1.8l-8.3 4.8c-0.7 0.3-1.5 0.1-1.8-0.5zM782.9 160c-0.6-0.4-0.8-1.2-0.5-1.8l4.8-8.3c0.4-0.6 1.2-0.8 1.8-0.5 0.6 0.4 0.8 1.2 0.5 1.8l-4.8 8.3c-0.4 0.7-1.2 0.9-1.8 0.5z" fill="#F4AD9F" p-id="6214"></path><path d="M219.2 758.7l2.9 5.8c0.2 0.4 0.5 0.6 1 0.7l6.4 0.9c1.1 0.2 1.5 1.4 0.7 2.2l-4.7 4.5c-0.3 0.3-0.4 0.7-0.4 1.1l1.1 6.4c0.2 1-0.9 1.8-1.9 1.4l-5.7-3c-0.4-0.2-0.8-0.2-1.2 0l-5.7 3c-0.9 0.5-2-0.3-1.9-1.4l1.1-6.4c0.1-0.4-0.1-0.8-0.4-1.1l-4.7-4.5c-0.8-0.7-0.3-2 0.7-2.2l6.4-0.9c0.4-0.1 0.8-0.3 1-0.7l2.9-5.8c0.5-0.9 1.9-0.9 2.4 0z" fill="#F4AD9F" p-id="6215"></path><path d="M716.2 92.7l2.9 5.8c0.2 0.4 0.5 0.6 1 0.7l6.4 0.9c1.1 0.2 1.5 1.4 0.7 2.2l-4.7 4.5c-0.3 0.3-0.4 0.7-0.4 1.1l1.1 6.4c0.2 1-0.9 1.8-1.9 1.4l-5.7-3c-0.4-0.2-0.8-0.2-1.2 0l-5.7 3c-0.9 0.5-2-0.3-1.9-1.4l1.1-6.4c0.1-0.4-0.1-0.8-0.4-1.1l-4.7-4.5c-0.8-0.7-0.3-2 0.7-2.2l6.4-0.9c0.4-0.1 0.8-0.3 1-0.7l2.9-5.8c0.5-0.9 1.9-0.9 2.4 0zM598.6 779.6c-49.7 0-97.8-9.7-143-28.8-44.1-18.7-83.3-45.4-116.3-79.3-64.9-66.7-99.5-155-97.2-248.7 0-7.6 3.8-43.6 21.8-79.8 23.5-47.2 61.7-74.4 110.1-78.5 23.2-1.9 46.5 3.7 67.3 16.2 18.7 11.2 34.9 27.8 47 47.7 0.4 0.8 0.9 1.5 1.3 2.2 0.3 0.6 0.8 1.3 1.3 2.3 26.3 49.8 69.9 78.8 125.9 83.7h0.7c50.6 3.6 96.5 23.3 129.1 55.8C779.8 505.3 798 550 798 598.1v0.2c-0.8 41.6-11.6 77.2-31.9 105.5-16.4 22.8-38.9 41.1-67.1 54-44.1 20.3-88 21.7-98.9 21.7h-1.5z" fill="#F4D676" p-id="6216"></path><path d="M219.5 441.8c-6.3 0-12.5-3-15.7-8.1-2.6-3.7-3.3-8.2-2-12.5 2.1-11.2 7.2-33.5 18.7-57.8 17.4-36.9 41.9-62.5 72.4-76.1 3.3-1.5 5.1-5.6 3.7-8.9l-17.6-44c-2.7-6.6-2.1-14 1.7-20.1 3.8-6 10-10 17.2-10.6 11.3-0.9 32.4-2.8 37.8 12.2 0.3 1 2.9 7.1 18.2 41.1 1.4 3 4.5 4.7 7.9 4 7-1.3 14.4-2.3 21.8-2.9 50.1-4.3 98.8 14.8 137.1 53.9 6.1 6.2 7.5 15.1 3.5 22.7-3.9 7.6-11.9 11.8-20.5 10.4-12.6-1.9-25.7-2.9-38.8-2.9-5 0-9.4 3.2-10.9 8-6.2 19.2-22.1 45.4-63.2 61.3-39.8 15.4-86.9 15.3-112.1-0.7-3.7-2.3-8.5-2.1-12.2 0.4-6.7 4.5-14 9.8-20.4 14.4-21.4 15.4-22.7 16.2-26.6 16.2z m0 0" fill="#76B767" p-id="6217"></path><path d="M711.6 470.7c18.1 6.3 32.3 21.7 35.7 40.7 0.8 4.6-1.2 9.2-6 10.6-4.1 1.1-9.7-1.4-10.6-6-2.3-13.1-10.9-24.4-23.7-28.8-10.3-3.6-5.9-20.2 4.6-16.5zM754.5 536.6c11 0 11.1 17.2 0 17.2-11-0.1-11-17.2 0-17.2z" fill="#FFFFFF" p-id="6218"></path></svg>