<?xml version="1.0" standalone="no"?><!DOCTYPE svg PUBLIC "-//W3C//DTD SVG 1.1//EN" "http://www.w3.org/Graphics/SVG/1.1/DTD/svg11.dtd"><svg t="1681895102227" class="icon" viewBox="0 0 1024 1024" version="1.1" xmlns="http://www.w3.org/2000/svg" p-id="6051" xmlns:xlink="http://www.w3.org/1999/xlink" width="200" height="200"><path d="M200.2 823h-27.3c-3.8 0-7.3 2.7-7.8 6.5-0.6 4.5 3 8.5 7.4 8.5h27.7c4.1 0 7.5-3.4 7.5-7.5s-3.4-7.5-7.5-7.5zM780.2 823H674.5c-4.1 0-7.5 3.4-7.5 7.5s3.4 7.5 7.5 7.5h105.7c4.1 0 7.5-3.4 7.5-7.5s-3.4-7.5-7.5-7.5zM797.7 830.5c0 4.1 3.4 7.5 7.5 7.5h47c4.1 0 7.5-3.4 7.5-7.5s-3.4-7.5-7.5-7.5h-47c-4.2 0-7.5 3.4-7.5 7.5zM649.5 823H225.2c-4.1 0-7.5 3.4-7.5 7.5s3.4 7.5 7.5 7.5h424.3c4.1 0 7.5-3.4 7.5-7.5s-3.4-7.5-7.5-7.5zM599.8 885H330.7c-4.4 0-8 3.6-8 8s3.6 8 8 8H600c4.8 0 8.7-4.3 7.9-9.3-0.6-3.9-4.2-6.7-8.1-6.7zM304.7 885h-54.4c-4 0-7.5 2.8-8.1 6.7-0.8 5 3.1 9.3 7.9 9.3h54.7c4.4 0 8-3.6 8-8-0.1-4.4-3.7-8-8.1-8z" fill="#76B767" p-id="6052"></path><path d="M216.7 214.7h-8.5v-8.5c0-1.8-1.5-3.3-3.3-3.3s-3.3 1.5-3.3 3.3v8.5h-8.5c-1.8 0-3.3 1.5-3.3 3.3s1.5 3.3 3.3 3.3h8.5v8.5c0 1.8 1.5 3.3 3.3 3.3s3.3-1.5 3.3-3.3v-8.5h8.5c1.8 0 3.3-1.5 3.3-3.3s-1.5-3.3-3.3-3.3z" fill="#F4AD9F" p-id="6053"></path><path d="M897.7 321.7h-8.5v-8.5c0-1.8-1.5-3.3-3.3-3.3s-3.3 1.5-3.3 3.3v8.5h-8.5c-1.8 0-3.3 1.5-3.3 3.3s1.5 3.3 3.3 3.3h8.5v8.5c0 1.8 1.5 3.3 3.3 3.3s3.3-1.5 3.3-3.3v-8.5h8.5c1.8 0 3.3-1.5 3.3-3.3s-1.5-3.3-3.3-3.3z" fill="#76B767" p-id="6054"></path><path d="M839.2 737.2c-0.7 0-1.3-0.6-1.3-1.3v-9.6c0-0.7 0.6-1.3 1.3-1.3 0.7 0 1.3 0.6 1.3 1.3v9.6c0 0.7-0.6 1.3-1.3 1.3zM835.6 738.3c-0.6 0.4-1.4 0.1-1.8-0.5l-4.8-8.3c-0.4-0.6-0.1-1.4 0.5-1.8 0.6-0.4 1.4-0.1 1.8 0.5l4.8 8.3c0.3 0.7 0.1 1.5-0.5 1.8zM833 741.1c-0.4 0.6-1.2 0.8-1.8 0.5l-8.3-4.8c-0.6-0.4-0.8-1.2-0.5-1.8 0.4-0.6 1.2-0.8 1.8-0.5l8.3 4.8c0.7 0.4 0.9 1.2 0.5 1.8zM832.2 744.8c0 0.7-0.6 1.3-1.3 1.3h-9.6c-0.7 0-1.3-0.6-1.3-1.3 0-0.7 0.6-1.3 1.3-1.3h9.6c0.7 0 1.3 0.6 1.3 1.3zM833.3 748.4c0.4 0.6 0.1 1.4-0.5 1.8l-8.3 4.8c-0.6 0.4-1.4 0.1-1.8-0.5-0.4-0.6-0.1-1.4 0.5-1.8l8.3-4.8c0.7-0.3 1.5-0.1 1.8 0.5zM836.1 751c0.6 0.4 0.8 1.2 0.5 1.8l-4.8 8.3c-0.4 0.6-1.2 0.8-1.8 0.5-0.6-0.4-0.8-1.2-0.5-1.8l4.8-8.3c0.4-0.7 1.2-0.9 1.8-0.5zM839.8 751.8c0.7 0 1.3 0.6 1.3 1.3v9.6c0 0.7-0.6 1.3-1.3 1.3-0.7 0-1.3-0.6-1.3-1.3v-9.6c0-0.7 0.6-1.3 1.3-1.3zM843.4 750.7c0.6-0.4 1.4-0.1 1.8 0.5l4.8 8.3c0.4 0.6 0.1 1.4-0.5 1.8-0.6 0.4-1.4 0.1-1.8-0.5l-4.8-8.3c-0.3-0.7-0.1-1.5 0.5-1.8zM846 747.9c0.4-0.6 1.2-0.8 1.8-0.5l8.3 4.8c0.6 0.4 0.8 1.2 0.5 1.8-0.4 0.6-1.2 0.8-1.8 0.5l-8.3-4.8c-0.7-0.4-0.9-1.2-0.5-1.8zM846.8 744.2c0-0.7 0.6-1.3 1.3-1.3h9.6c0.7 0 1.3 0.6 1.3 1.3 0 0.7-0.6 1.3-1.3 1.3h-9.6c-0.7 0-1.3-0.6-1.3-1.3zM845.7 740.6c-0.4-0.6-0.1-1.4 0.5-1.8l8.3-4.8c0.6-0.4 1.4-0.1 1.8 0.5 0.4 0.6 0.1 1.4-0.5 1.8l-8.3 4.8c-0.7 0.3-1.5 0.1-1.8-0.5zM842.9 738c-0.6-0.4-0.8-1.2-0.5-1.8l4.8-8.3c0.4-0.6 1.2-0.8 1.8-0.5 0.6 0.4 0.8 1.2 0.5 1.8l-4.8 8.3c-0.4 0.7-1.2 0.9-1.8 0.5z" fill="#F4D676" p-id="6055"></path><path d="M779.2 159.2c-0.7 0-1.3-0.6-1.3-1.3v-9.6c0-0.7 0.6-1.3 1.3-1.3 0.7 0 1.3 0.6 1.3 1.3v9.6c0 0.7-0.6 1.3-1.3 1.3zM775.6 160.3c-0.6 0.4-1.4 0.1-1.8-0.5l-4.8-8.3c-0.4-0.6-0.1-1.4 0.5-1.8 0.6-0.4 1.4-0.1 1.8 0.5l4.8 8.3c0.3 0.7 0.1 1.5-0.5 1.8zM773 163.1c-0.4 0.6-1.2 0.8-1.8 0.5l-8.3-4.8c-0.6-0.4-0.8-1.2-0.5-1.8 0.4-0.6 1.2-0.8 1.8-0.5l8.3 4.8c0.7 0.4 0.9 1.2 0.5 1.8zM772.2 166.8c0 0.7-0.6 1.3-1.3 1.3h-9.6c-0.7 0-1.3-0.6-1.3-1.3 0-0.7 0.6-1.3 1.3-1.3h9.6c0.7 0 1.3 0.6 1.3 1.3zM773.3 170.4c0.4 0.6 0.1 1.4-0.5 1.8l-8.3 4.8c-0.6 0.4-1.4 0.1-1.8-0.5-0.4-0.6-0.1-1.4 0.5-1.8l8.3-4.8c0.7-0.3 1.5-0.1 1.8 0.5zM776.1 173c0.6 0.4 0.8 1.2 0.5 1.8l-4.8 8.3c-0.4 0.6-1.2 0.8-1.8 0.5-0.6-0.4-0.8-1.2-0.5-1.8l4.8-8.3c0.4-0.7 1.2-0.9 1.8-0.5zM779.8 173.8c0.7 0 1.3 0.6 1.3 1.3v9.6c0 0.7-0.6 1.3-1.3 1.3-0.7 0-1.3-0.6-1.3-1.3v-9.6c0-0.7 0.6-1.3 1.3-1.3zM783.4 172.7c0.6-0.4 1.4-0.1 1.8 0.5l4.8 8.3c0.4 0.6 0.1 1.4-0.5 1.8-0.6 0.4-1.4 0.1-1.8-0.5l-4.8-8.3c-0.3-0.7-0.1-1.5 0.5-1.8zM786 169.9c0.4-0.6 1.2-0.8 1.8-0.5l8.3 4.8c0.6 0.4 0.8 1.2 0.5 1.8-0.4 0.6-1.2 0.8-1.8 0.5l-8.3-4.8c-0.7-0.4-0.9-1.2-0.5-1.8zM786.8 166.2c0-0.7 0.6-1.3 1.3-1.3h9.6c0.7 0 1.3 0.6 1.3 1.3 0 0.7-0.6 1.3-1.3 1.3h-9.6c-0.7 0-1.3-0.6-1.3-1.3zM785.7 162.6c-0.4-0.6-0.1-1.4 0.5-1.8l8.3-4.8c0.6-0.4 1.4-0.1 1.8 0.5 0.4 0.6 0.1 1.4-0.5 1.8l-8.3 4.8c-0.7 0.3-1.5 0.1-1.8-0.5zM782.9 160c-0.6-0.4-0.8-1.2-0.5-1.8l4.8-8.3c0.4-0.6 1.2-0.8 1.8-0.5 0.6 0.4 0.8 1.2 0.5 1.8l-4.8 8.3c-0.4 0.7-1.2 0.9-1.8 0.5z" fill="#F4AD9F" p-id="6056"></path><path d="M219.2 758.7l2.9 5.8c0.2 0.4 0.5 0.6 1 0.7l6.4 0.9c1.1 0.2 1.5 1.4 0.7 2.2l-4.7 4.5c-0.3 0.3-0.4 0.7-0.4 1.1l1.1 6.4c0.2 1-0.9 1.8-1.9 1.4l-5.7-3c-0.4-0.2-0.8-0.2-1.2 0l-5.7 3c-0.9 0.5-2-0.3-1.9-1.4l1.1-6.4c0.1-0.4-0.1-0.8-0.4-1.1l-4.7-4.5c-0.8-0.7-0.3-2 0.7-2.2l6.4-0.9c0.4-0.1 0.8-0.3 1-0.7l2.9-5.8c0.5-0.9 1.9-0.9 2.4 0z" fill="#F4AD9F" p-id="6057"></path><path d="M716.2 92.7l2.9 5.8c0.2 0.4 0.5 0.6 1 0.7l6.4 0.9c1.1 0.2 1.5 1.4 0.7 2.2l-4.7 4.5c-0.3 0.3-0.4 0.7-0.4 1.1l1.1 6.4c0.2 1-0.9 1.8-1.9 1.4l-5.7-3c-0.4-0.2-0.8-0.2-1.2 0l-5.7 3c-0.9 0.5-2-0.3-1.9-1.4l1.1-6.4c0.1-0.4-0.1-0.8-0.4-1.1l-4.7-4.5c-0.8-0.7-0.3-2 0.7-2.2l6.4-0.9c0.4-0.1 0.8-0.3 1-0.7l2.9-5.8c0.5-0.9 1.9-0.9 2.4 0z" fill="#F4D676" p-id="6058"></path><path d="M849.9 368.3c-4.8-7.7-11-13.4-18.3-16.8 0-10.1-1.7-20.8-4.9-31.3-6.4-21-18.1-37.8-32.9-47.4-11.5-7.5-24.6-10.4-38-8.4-2.9 0.4-5.8 1.1-8.8 2-1.6-6.9-3.9-13.9-6.8-20.6-8.3-19.3-21.4-35.9-36.9-46.6-21.4-14.9-46.1-18.5-70.8-10.7-15.9-16.7-37.2-24.4-59-20.6-15.4 2.7-28.8 11-38 22.6-20.1-13.3-43.5-16-65.6-6.5-17.3 7.4-31.8 21.8-40.7 40.3-5 10.4-8.1 21.8-9.3 33.7-3.8-0.2-7.5 0-11.2 0.6-12.6 1.8-24.5 7.7-34.5 17-19.5 18.2-29.9 47.2-28.7 74.7-3.8 1-7.4 2.7-11 4.9-24 15.3-36.6 55.7-26.4 84.8 7.5 21.4 25.8 33.6 49.7 33.6h0.2c58.9 41.7 135.5 64.1 218.6 64.1 6.6 0 13.3-0.1 20-0.4 41.6-1.8 83.4-9.3 120.9-21.8 34-11.3 64.6-26.8 89-44.9 1.9 0.3 3.8 0.4 5.7 0.4 11.8 0 22.9-5.1 31.3-14.9 18.6-21.2 21.6-63.2 6.4-87.8z" fill="#F4AD9F" p-id="6059"></path><path d="M789.1 379.7c8.9-7.5 11.2-20.6 3.9-30.2-38.1-49.3-101.7-71.6-161.7-78.2-59.4-6.4-121.5 2-175.8 27.5-31.7 14.9-59.7 35.3-83.7 60.7-7.8 8.2-4.9 23.9 3.9 30.2 10.3 7.3 21.9 4.8 30.2-3.9 0.9-0.9 1.8-1.8 2.6-2.8l0.6-0.6c0.4-0.4 0.6-0.6 0.8-0.7l0.3-0.3c2.4-2.3 4.9-4.6 7.4-6.8 5.2-4.6 10.6-8.9 16.1-13 5.3-4 10.8-7.7 16.5-11.2l3-1.8c0.7-0.4 1.4-0.9 2.1-1.2 2.9-1.6 5.8-3.2 8.8-4.7 12.1-6.2 24.7-11.5 37.5-15.9 3.2-1.1 6.4-2.1 9.6-3.1 1.5-0.4 2.9-0.9 4.4-1.3l1.2-0.4c0.3-0.1 0.6-0.1 0.8-0.2 0.1 0 0.2-0.1 0.2-0.1-0.1 0-0.1 0-0.2 0.1 6.5-1.6 13-3.1 19.6-4.3 13.3-2.5 26.7-4.1 40.2-4.9 3.4-0.2 6.8-0.3 10.1-0.4 1.6 0 3.1-0.1 4.7-0.1h2.3c6.7 0.1 13.3 0.4 20 0.9 13.4 1 26.8 2.8 40 5.5 3.3 0.7 6.6 1.4 9.9 2.2 1.5 0.4 3 0.7 4.6 1.1 0.9 0.2 1.8 0.5 2.7 0.7 6.4 1.9 12.7 3.9 18.9 6.2 7.3 2.7 14.5 5.8 21.5 9.3 2.8 1.4 5.5 2.9 8.2 4.4 0.3 0.4 2.8 1.7 3.3 2 1.5 1 3 1.9 4.5 3 6.4 4.3 12.5 9 18.1 14.2 0.3 0.3 1.5 1.4 2.3 2.2 0.7 0.7 2.1 2.2 2.5 2.6 2.8 3 5.4 6.2 8 9.5 6.8 8.8 21.3 11.3 30.1 3.8z" fill="#E0E6E7" p-id="6060"></path><path d="M408.5 383c1.2-0.2 2.1-1.8 1.4-1.3-0.5 0.5-1.1 1.2-1.4 1.3zM515.4 322.4c-0.1 0.1 1.2-0.2 2.1-0.6h-0.1c-0.6 0.3-1.3 0.4-2 0.6z" fill="#E0E6E7" p-id="6061"></path><path d="M719.4 591.1c-5-8.1-11.6-14.1-19.3-17.7 0-10.7-1.7-22-5.1-33-6.8-22.1-19.1-39.9-34.6-50-12.1-7.9-26-10.9-40-8.8-3.1 0.5-6.2 1.2-9.2 2.1-1.7-7.3-4.1-14.6-7.2-21.7-8.8-20.4-22.6-37.8-38.8-49.1-22.6-15.7-48.6-19.5-74.6-11.2-16.8-17.6-39.2-25.7-62.2-21.7-16.2 2.9-30.3 11.5-40.1 23.8-21.2-14-45.9-16.8-69.2-6.8-18.3 7.8-33.5 22.9-42.9 42.5-5.3 11-8.6 23-9.8 35.5-4-0.2-7.9 0-11.8 0.6-13.3 1.9-25.8 8.1-36.3 17.9-20.5 19.2-31.5 49.7-30.2 78.7-4 1.1-7.8 2.8-11.6 5.2-25.3 16.1-38.6 58.7-27.8 89.4 7.9 22.6 27.2 35.4 52.4 35.4h0.2c62 43.9 142.8 67.6 230.4 67.6 7 0 14.1-0.2 21.1-0.5 43.8-1.9 87.9-9.8 127.4-23 35.9-11.9 68-28.2 93.8-47.3 2 0.3 4.1 0.4 6 0.4 12.5 0 24.1-5.4 33-15.7 19.2-22.4 22.3-66.6 6.4-92.6z" fill="#76B767" p-id="6062"></path><path d="M643 627.4c9.4-6.9 12.6-19.9 5.8-29.8C614 545.9 552 519.4 492.5 509c-58.8-10.3-121.4-6-177.2 15.9-32.6 12.8-61.9 31.3-87.5 55-8.3 7.7-6.5 23.5 1.9 30.3 9.8 7.9 21.5 6.3 30.3-1.9 0.9-0.9 1.9-1.7 2.8-2.6 0.2-0.2 0.4-0.4 0.6-0.5 0.4-0.3 0.6-0.6 0.8-0.7l0.3-0.3c2.6-2.2 5.1-4.3 7.8-6.3 5.5-4.2 11.1-8.2 16.9-12 5.6-3.6 11.3-7 17.2-10.1 1-0.5 2.1-1.1 3.1-1.6 0.7-0.3 1.5-0.8 2.2-1.1 3-1.4 6-2.8 9.1-4.1 12.5-5.4 25.4-9.9 38.5-13.4 3.2-0.9 6.5-1.7 9.8-2.4 1.5-0.3 3-0.7 4.5-1 0 0 0.3-0.1 1.2-0.3 0.3-0.1 0.6-0.1 0.8-0.2 0.1 0 0.2 0 0.2-0.1-0.1 0-0.1 0-0.2 0.1 6.6-1.2 13.2-2.2 19.8-3 13.4-1.6 26.9-2.3 40.4-2.2 3.4 0 6.8 0.1 10.1 0.2 1.6 0.1 3.1 0.1 4.7 0.2 0.8 0 1.5 0.1 2.3 0.1 6.7 0.6 13.3 1.3 19.9 2.2 13.3 1.9 26.6 4.6 39.6 8.1 3.3 0.9 6.5 1.8 9.7 2.8 1.5 0.5 3 0.9 4.5 1.4l2.7 0.9c6.2 2.3 12.4 4.7 18.5 7.4 7.1 3.2 14.1 6.8 20.9 10.7 2.7 1.6 5.3 3.2 7.9 4.9 0.3 0.5 2.7 1.8 3.1 2.2 1.5 1.1 2.9 2.1 4.3 3.2 6.1 4.7 11.8 9.8 17.2 15.4 0.3 0.3 1.4 1.5 2.2 2.3 0.7 0.8 2 2.4 2.3 2.8 2.6 3.2 5 6.6 7.3 10 6.4 9.6 20.7 13 30 6.1z" fill="#F4D676" p-id="6063"></path><path d="M262.9 605.8c1.2-0.2 2.2-1.7 1.4-1.2-0.3 0.4-1 1.1-1.4 1.2zM373.7 552.2c0 0.1-0.1 0.1 0 0-0.1 0.1 1.2-0.1 2.1-0.4h-0.1c-0.6 0.2-1.4 0.3-2 0.4z" fill="#F4D676" p-id="6064"></path></svg>