<?xml version="1.0" standalone="no"?><!DOCTYPE svg PUBLIC "-//W3C//DTD SVG 1.1//EN" "http://www.w3.org/Graphics/SVG/1.1/DTD/svg11.dtd"><svg t="1681895082069" class="icon" viewBox="0 0 1024 1024" version="1.1" xmlns="http://www.w3.org/2000/svg" p-id="5118" xmlns:xlink="http://www.w3.org/1999/xlink" width="200" height="200"><path d="M200.2 823h-27.3c-3.8 0-7.3 2.7-7.8 6.5-0.6 4.5 3 8.5 7.4 8.5h27.7c4.1 0 7.5-3.4 7.5-7.5s-3.4-7.5-7.5-7.5zM780.2 823H674.5c-4.1 0-7.5 3.4-7.5 7.5s3.4 7.5 7.5 7.5h105.7c4.1 0 7.5-3.4 7.5-7.5s-3.4-7.5-7.5-7.5zM797.7 830.5c0 4.1 3.4 7.5 7.5 7.5h47c4.1 0 7.5-3.4 7.5-7.5s-3.4-7.5-7.5-7.5h-47c-4.2 0-7.5 3.4-7.5 7.5zM649.5 823H225.2c-4.1 0-7.5 3.4-7.5 7.5s3.4 7.5 7.5 7.5h424.3c4.1 0 7.5-3.4 7.5-7.5s-3.4-7.5-7.5-7.5zM599.8 885H330.7c-4.4 0-8 3.6-8 8s3.6 8 8 8H600c4.8 0 8.7-4.3 7.9-9.3-0.6-3.9-4.2-6.7-8.1-6.7zM304.7 885h-54.4c-4 0-7.5 2.8-8.1 6.7-0.8 5 3.1 9.3 7.9 9.3h54.7c4.4 0 8-3.6 8-8-0.1-4.4-3.7-8-8.1-8z" fill="#76B767" p-id="5119"></path><path d="M216.7 214.7h-8.5v-8.5c0-1.8-1.5-3.3-3.3-3.3s-3.3 1.5-3.3 3.3v8.5h-8.5c-1.8 0-3.3 1.5-3.3 3.3s1.5 3.3 3.3 3.3h8.5v8.5c0 1.8 1.5 3.3 3.3 3.3s3.3-1.5 3.3-3.3v-8.5h8.5c1.8 0 3.3-1.5 3.3-3.3s-1.5-3.3-3.3-3.3z" fill="#F4AD9F" p-id="5120"></path><path d="M897.7 321.7h-8.5v-8.5c0-1.8-1.5-3.3-3.3-3.3s-3.3 1.5-3.3 3.3v8.5h-8.5c-1.8 0-3.3 1.5-3.3 3.3s1.5 3.3 3.3 3.3h8.5v8.5c0 1.8 1.5 3.3 3.3 3.3s3.3-1.5 3.3-3.3v-8.5h8.5c1.8 0 3.3-1.5 3.3-3.3s-1.5-3.3-3.3-3.3z" fill="#76B767" p-id="5121"></path><path d="M839.2 737.2c-0.7 0-1.3-0.6-1.3-1.3v-9.6c0-0.7 0.6-1.3 1.3-1.3 0.7 0 1.3 0.6 1.3 1.3v9.6c0 0.7-0.6 1.3-1.3 1.3zM835.6 738.3c-0.6 0.4-1.4 0.1-1.8-0.5l-4.8-8.3c-0.4-0.6-0.1-1.4 0.5-1.8 0.6-0.4 1.4-0.1 1.8 0.5l4.8 8.3c0.3 0.7 0.1 1.5-0.5 1.8zM833 741.1c-0.4 0.6-1.2 0.8-1.8 0.5l-8.3-4.8c-0.6-0.4-0.8-1.2-0.5-1.8 0.4-0.6 1.2-0.8 1.8-0.5l8.3 4.8c0.7 0.4 0.9 1.2 0.5 1.8zM832.2 744.8c0 0.7-0.6 1.3-1.3 1.3h-9.6c-0.7 0-1.3-0.6-1.3-1.3 0-0.7 0.6-1.3 1.3-1.3h9.6c0.7 0 1.3 0.6 1.3 1.3zM833.3 748.4c0.4 0.6 0.1 1.4-0.5 1.8l-8.3 4.8c-0.6 0.4-1.4 0.1-1.8-0.5-0.4-0.6-0.1-1.4 0.5-1.8l8.3-4.8c0.7-0.3 1.5-0.1 1.8 0.5zM836.1 751c0.6 0.4 0.8 1.2 0.5 1.8l-4.8 8.3c-0.4 0.6-1.2 0.8-1.8 0.5-0.6-0.4-0.8-1.2-0.5-1.8l4.8-8.3c0.4-0.7 1.2-0.9 1.8-0.5zM839.8 751.8c0.7 0 1.3 0.6 1.3 1.3v9.6c0 0.7-0.6 1.3-1.3 1.3-0.7 0-1.3-0.6-1.3-1.3v-9.6c0-0.7 0.6-1.3 1.3-1.3zM843.4 750.7c0.6-0.4 1.4-0.1 1.8 0.5l4.8 8.3c0.4 0.6 0.1 1.4-0.5 1.8-0.6 0.4-1.4 0.1-1.8-0.5l-4.8-8.3c-0.3-0.7-0.1-1.5 0.5-1.8zM846 747.9c0.4-0.6 1.2-0.8 1.8-0.5l8.3 4.8c0.6 0.4 0.8 1.2 0.5 1.8-0.4 0.6-1.2 0.8-1.8 0.5l-8.3-4.8c-0.7-0.4-0.9-1.2-0.5-1.8zM846.8 744.2c0-0.7 0.6-1.3 1.3-1.3h9.6c0.7 0 1.3 0.6 1.3 1.3 0 0.7-0.6 1.3-1.3 1.3h-9.6c-0.7 0-1.3-0.6-1.3-1.3zM845.7 740.6c-0.4-0.6-0.1-1.4 0.5-1.8l8.3-4.8c0.6-0.4 1.4-0.1 1.8 0.5 0.4 0.6 0.1 1.4-0.5 1.8l-8.3 4.8c-0.7 0.3-1.5 0.1-1.8-0.5zM842.9 738c-0.6-0.4-0.8-1.2-0.5-1.8l4.8-8.3c0.4-0.6 1.2-0.8 1.8-0.5 0.6 0.4 0.8 1.2 0.5 1.8l-4.8 8.3c-0.4 0.7-1.2 0.9-1.8 0.5z" fill="#F4D676" p-id="5122"></path><path d="M779.2 159.2c-0.7 0-1.3-0.6-1.3-1.3v-9.6c0-0.7 0.6-1.3 1.3-1.3 0.7 0 1.3 0.6 1.3 1.3v9.6c0 0.7-0.6 1.3-1.3 1.3zM775.6 160.3c-0.6 0.4-1.4 0.1-1.8-0.5l-4.8-8.3c-0.4-0.6-0.1-1.4 0.5-1.8 0.6-0.4 1.4-0.1 1.8 0.5l4.8 8.3c0.3 0.7 0.1 1.5-0.5 1.8zM773 163.1c-0.4 0.6-1.2 0.8-1.8 0.5l-8.3-4.8c-0.6-0.4-0.8-1.2-0.5-1.8 0.4-0.6 1.2-0.8 1.8-0.5l8.3 4.8c0.7 0.4 0.9 1.2 0.5 1.8zM772.2 166.8c0 0.7-0.6 1.3-1.3 1.3h-9.6c-0.7 0-1.3-0.6-1.3-1.3 0-0.7 0.6-1.3 1.3-1.3h9.6c0.7 0 1.3 0.6 1.3 1.3zM773.3 170.4c0.4 0.6 0.1 1.4-0.5 1.8l-8.3 4.8c-0.6 0.4-1.4 0.1-1.8-0.5-0.4-0.6-0.1-1.4 0.5-1.8l8.3-4.8c0.7-0.3 1.5-0.1 1.8 0.5zM776.1 173c0.6 0.4 0.8 1.2 0.5 1.8l-4.8 8.3c-0.4 0.6-1.2 0.8-1.8 0.5-0.6-0.4-0.8-1.2-0.5-1.8l4.8-8.3c0.4-0.7 1.2-0.9 1.8-0.5zM779.8 173.8c0.7 0 1.3 0.6 1.3 1.3v9.6c0 0.7-0.6 1.3-1.3 1.3-0.7 0-1.3-0.6-1.3-1.3v-9.6c0-0.7 0.6-1.3 1.3-1.3zM783.4 172.7c0.6-0.4 1.4-0.1 1.8 0.5l4.8 8.3c0.4 0.6 0.1 1.4-0.5 1.8-0.6 0.4-1.4 0.1-1.8-0.5l-4.8-8.3c-0.3-0.7-0.1-1.5 0.5-1.8zM786 169.9c0.4-0.6 1.2-0.8 1.8-0.5l8.3 4.8c0.6 0.4 0.8 1.2 0.5 1.8-0.4 0.6-1.2 0.8-1.8 0.5l-8.3-4.8c-0.7-0.4-0.9-1.2-0.5-1.8zM786.8 166.2c0-0.7 0.6-1.3 1.3-1.3h9.6c0.7 0 1.3 0.6 1.3 1.3 0 0.7-0.6 1.3-1.3 1.3h-9.6c-0.7 0-1.3-0.6-1.3-1.3zM785.7 162.6c-0.4-0.6-0.1-1.4 0.5-1.8l8.3-4.8c0.6-0.4 1.4-0.1 1.8 0.5 0.4 0.6 0.1 1.4-0.5 1.8l-8.3 4.8c-0.7 0.3-1.5 0.1-1.8-0.5zM782.9 160c-0.6-0.4-0.8-1.2-0.5-1.8l4.8-8.3c0.4-0.6 1.2-0.8 1.8-0.5 0.6 0.4 0.8 1.2 0.5 1.8l-4.8 8.3c-0.4 0.7-1.2 0.9-1.8 0.5z" fill="#F4AD9F" p-id="5123"></path><path d="M219.2 758.7l2.9 5.8c0.2 0.4 0.5 0.6 1 0.7l6.4 0.9c1.1 0.2 1.5 1.4 0.7 2.2l-4.7 4.5c-0.3 0.3-0.4 0.7-0.4 1.1l1.1 6.4c0.2 1-0.9 1.8-1.9 1.4l-5.7-3c-0.4-0.2-0.8-0.2-1.2 0l-5.7 3c-0.9 0.5-2-0.3-1.9-1.4l1.1-6.4c0.1-0.4-0.1-0.8-0.4-1.1l-4.7-4.5c-0.8-0.7-0.3-2 0.7-2.2l6.4-0.9c0.4-0.1 0.8-0.3 1-0.7l2.9-5.8c0.5-0.9 1.9-0.9 2.4 0z" fill="#F4AD9F" p-id="5124"></path><path d="M716.2 92.7l2.9 5.8c0.2 0.4 0.5 0.6 1 0.7l6.4 0.9c1.1 0.2 1.5 1.4 0.7 2.2l-4.7 4.5c-0.3 0.3-0.4 0.7-0.4 1.1l1.1 6.4c0.2 1-0.9 1.8-1.9 1.4l-5.7-3c-0.4-0.2-0.8-0.2-1.2 0l-5.7 3c-0.9 0.5-2-0.3-1.9-1.4l1.1-6.4c0.1-0.4-0.1-0.8-0.4-1.1l-4.7-4.5c-0.8-0.7-0.3-2 0.7-2.2l6.4-0.9c0.4-0.1 0.8-0.3 1-0.7l2.9-5.8c0.5-0.9 1.9-0.9 2.4 0z" fill="#F4D676" p-id="5125"></path><path d="M219.3 479.3c23.3-5.5 49-8.6 72.9-5.9 33.4 3.8 63.8 17.3 91.8 35.5 26.8 17.4 51.1 38.7 79 54.5 6.8 3.9 13.8 7.4 20.9 10.5 0.3 0.1 3.5 1.4 4.1 1.6 1.7 0.7 3.5 1.3 5.2 1.9 3.5 1.2 7 2.3 10.5 3.2 4 1.1 8.1 2 12.2 2.7 1.4 0.2 2.7 0.5 4.1 0.7 0.1 0 2.7 0.3 3.5 0.4 7.9 0.7 15.9 0.7 23.8 0 1.3-0.1 2.6-0.3 3.9-0.4 1.8-0.3 3.5-0.6 5.3-0.9 3.9-0.7 7.8-1.6 11.7-2.7 8.1-2.2 16.2-5.1 24.1-8 4.1-1.5 8.2-3.1 12.3-4.8 1.8-0.7 3.6-1.5 5.3-2.2 0.5-0.2 2.8-1.2 3.4-1.4 7.3-3.1 14.6-6.3 21.9-9.5 31.5-13.7 63-26.5 97.3-30.9 17.1-2.2 34.8-1.9 51.7 1.6 17.8 3.7 34.8 11.3 50.9 19.4 0 0 0.1 0 0.1 0.1 5.1 2.5 11-1.1 11-6.8V379c0-4.2-1.8-8.2-4.9-10.9-3.1-2.8-7.3-4.1-11.4-3.7L209 432.2c-7.5 0.8-13.1 7.1-13.1 14.6v33.8c0 2.8 2.8 4.8 5.5 3.8 5.8-2 11.9-3.7 17.9-5.1z" fill="#F4AD9F" p-id="5126"></path><path d="M806.4 570c-1.3-0.6-2.6-1.2-4-1.8 0 0-0.1 0-0.1-0.1-1.7-0.7-3.5-1.4-5.2-2.1-4-1.5-8.1-2.9-12.2-4.1-4.3-1.3-8.6-2.4-13.1-3.1-0.4-0.1-0.8-0.1-1.2-0.2-0.4 0-0.9-0.1-1.1-0.1-2-0.2-3.9-0.4-5.9-0.5-7.9-0.5-15.9-0.4-23.8 0.3-2 0.2-3.9 0.4-5.9 0.6 2.6-0.3-3 0.5-3.8 0.6-3.7 0.6-7.4 1.4-11 2.2-15.2 3.5-30 8.6-44.5 14.4-3.8 1.5-7.6 3.1-11.3 4.6-0.6 0.2-2.8 1.2-3.3 1.4-1.8 0.8-3.5 1.5-5.3 2.3-7.3 3.2-14.6 6.4-21.9 9.5-31.6 13.5-64 26.8-99 26.4-33.7-0.5-65.8-12.5-94.4-29.7-27.1-16.3-51.1-37.2-77.9-54.1-6.4-4-12.9-7.8-19.6-11.3-3.4-1.8-6.9-3.5-10.5-5.1-0.8-0.4-1.7-0.7-2.5-1.1-1.6-0.6-3.2-1.3-4.8-1.9-7.3-2.7-14.8-5-22.5-6.6-2.1-0.4-4.1-0.8-6.2-1.2-0.8-0.1-1.6-0.2-2.4-0.4h-0.1c-3.8-0.4-7.6-0.7-11.4-0.9-10.2-0.4-20.6 0.4-30.7 1.5-1.2 0.1-2.8 0.6-4 0.6h-0.9c-2.8 0.4-5.6 0.9-8.4 1.4-5.7 1.1-11.4 2.4-17.1 4-3.1 0.9-6.1 1.8-9.2 2.9-1.3 0.5-2.6 0.9-3.9 1.4-0.5 0.2-1.1 0.4-1.6 0.6-2.5 1 0.8-0.6 1-0.4-0.7-0.5-6.8 3.3-7.7 3.8-1.9 1.1-3.1 3.1-3.1 5.3V723c0 3.9 1.6 7.6 4.3 10.4 2.8 2.8 6.5 4.3 10.4 4.3 0.5 0 1.1 0 1.6-0.1l621.1-68.8c7.4-0.8 13.1-7.1 13.1-14.6v-50.8c0-8.1-4.5-15.5-11.6-19.2-9.4-4.9-18.8-9.8-28.4-14.2z" fill="#76B767" p-id="5127"></path><path d="M201 439.4c-1.3 0.1-1.9-1.6-0.9-2.3L538 204.6c13.3-9.4 31-9.9 44.8-1.1l258.7 164.6L201 439.4z" fill="#F4D676" p-id="5128"></path><path d="M345 376c-4.7-2.5-10.8-2.8-15.3 0.4-0.7 0.5-1.3 1-1.9 1.7-3.4 1.3-6.2 4.9-6 8.5 0.2 5.2 4 8.6 9 9 4.9 0.4 10.3-1.1 14.2-4.1 2.6-2 4.5-4.3 4.5-7.8 0-3-1.7-6.2-4.5-7.7zM507.8 292.6c-0.2-5.3-4-8.5-9-9-0.5-0.1-1.1-0.1-1.6 0-4.6 0.1-9.2 1.4-13.1 3.7-4.1 2.4-5.9 8.2-3.2 12.3 2.6 4.1 8 5.8 12.3 3.2 0.1 0 0.1-0.1 0.2-0.1 1.9 0.3 3.9 0.1 5.6-1.1 4.5 0.2 9-4.4 8.8-9zM636.2 275.6c-2.2-1.4-4.6-2.4-7.1-3.1-3.5-2.9-9.1-3.4-12.4 0.2-1 1.1-1.8 2.6-2.2 4.1-0.6 1.2-0.9 2.5-0.9 3.9 0.2 4.8 4 9.1 9 9h0.2c2 1.1 4.2 1.9 6.5 2.3 4.4 0.8 8.8-0.9 10.6-5.2 1.8-4.2 0.1-8.7-3.7-11.2zM759.2 328.3c-3.6-3.1-8.2-5.2-13.1-4.7-2.4 0.2-4.6 0.8-6.4 2.6-1.6 1.6-2.7 4.1-2.6 6.4 0.1 2.3 0.9 4.7 2.6 6.4 0.1 0.1 0.2 0.2 0.3 0.2 0.4 1.2 1.1 2.4 2.1 3.3 1.8 1.7 3.9 2.4 6.4 2.6 4 0.4 7.8-1.5 10.7-4.1 3.4-3 3.6-9.7 0-12.7zM557.8 366.9c-2.4-8-11.4-12.4-19.1-9.5-3.3 0.7-6.3 3.3-7 6.5-1.1 5 1.5 9.4 6.3 11.1l8.7 3c6.5 2.3 12.9-4.7 11.1-11.1z" fill="#E0E6E7" p-id="5129"></path></svg>