<?xml version="1.0" standalone="no"?><!DOCTYPE svg PUBLIC "-//W3C//DTD SVG 1.1//EN" "http://www.w3.org/Graphics/SVG/1.1/DTD/svg11.dtd"><svg t="1681962422905" class="icon" viewBox="0 0 1024 1024" version="1.1" xmlns="http://www.w3.org/2000/svg" p-id="10440" xmlns:xlink="http://www.w3.org/1999/xlink" width="200" height="200"><path d="M300.202667 768H170.666667a42.666667 42.666667 0 0 1-42.666667-42.666667v-129.536a21.333333 21.333333 0 0 1 6.229333-15.061333L615.893333 99.072a42.666667 42.666667 0 0 1 60.330667 0l120.704 120.704a42.666667 42.666667 0 0 1 0 60.330667L315.264 761.770667a21.333333 21.333333 0 0 1-15.061333 6.229333zM170.666667 853.333333h682.666666a42.666667 42.666667 0 0 1 0 85.333334H170.666667a42.666667 42.666667 0 0 1 0-85.333334z" fill="#ffbc05" p-id="10441"></path></svg>