<?xml version="1.0" standalone="no"?><!DOCTYPE svg PUBLIC "-//W3C//DTD SVG 1.1//EN" "http://www.w3.org/Graphics/SVG/1.1/DTD/svg11.dtd"><svg t="1681894957057" class="icon" viewBox="0 0 1024 1024" version="1.1" xmlns="http://www.w3.org/2000/svg" p-id="3557" xmlns:xlink="http://www.w3.org/1999/xlink" width="200" height="200"><path d="M200.2 823h-27.3c-3.8 0-7.3 2.7-7.8 6.5-0.6 4.5 3 8.5 7.4 8.5h27.7c4.1 0 7.5-3.4 7.5-7.5s-3.4-7.5-7.5-7.5zM780.2 823H674.5c-4.1 0-7.5 3.4-7.5 7.5s3.4 7.5 7.5 7.5h105.7c4.1 0 7.5-3.4 7.5-7.5s-3.4-7.5-7.5-7.5zM797.7 830.5c0 4.1 3.4 7.5 7.5 7.5h47c4.1 0 7.5-3.4 7.5-7.5s-3.4-7.5-7.5-7.5h-47c-4.2 0-7.5 3.4-7.5 7.5zM649.5 823H225.2c-4.1 0-7.5 3.4-7.5 7.5s3.4 7.5 7.5 7.5h424.3c4.1 0 7.5-3.4 7.5-7.5s-3.4-7.5-7.5-7.5zM599.8 885H330.7c-4.4 0-8 3.6-8 8s3.6 8 8 8H600c4.8 0 8.7-4.3 7.9-9.3-0.6-3.9-4.2-6.7-8.1-6.7zM304.7 885h-54.4c-4 0-7.5 2.8-8.1 6.7-0.8 5 3.1 9.3 7.9 9.3h54.7c4.4 0 8-3.6 8-8-0.1-4.4-3.7-8-8.1-8z" fill="#76B767" p-id="3558"></path><path d="M216.7 214.7h-8.5v-8.5c0-1.8-1.5-3.3-3.3-3.3s-3.3 1.5-3.3 3.3v8.5h-8.5c-1.8 0-3.3 1.5-3.3 3.3s1.5 3.3 3.3 3.3h8.5v8.5c0 1.8 1.5 3.3 3.3 3.3s3.3-1.5 3.3-3.3v-8.5h8.5c1.8 0 3.3-1.5 3.3-3.3s-1.5-3.3-3.3-3.3z" fill="#F4AD9F" p-id="3559"></path><path d="M897.7 321.7h-8.5v-8.5c0-1.8-1.5-3.3-3.3-3.3s-3.3 1.5-3.3 3.3v8.5h-8.5c-1.8 0-3.3 1.5-3.3 3.3s1.5 3.3 3.3 3.3h8.5v8.5c0 1.8 1.5 3.3 3.3 3.3s3.3-1.5 3.3-3.3v-8.5h8.5c1.8 0 3.3-1.5 3.3-3.3s-1.5-3.3-3.3-3.3z" fill="#76B767" p-id="3560"></path><path d="M839.2 737.2c-0.7 0-1.3-0.6-1.3-1.3v-9.6c0-0.7 0.6-1.3 1.3-1.3 0.7 0 1.3 0.6 1.3 1.3v9.6c0 0.7-0.6 1.3-1.3 1.3zM835.6 738.3c-0.6 0.4-1.4 0.1-1.8-0.5l-4.8-8.3c-0.4-0.6-0.1-1.4 0.5-1.8 0.6-0.4 1.4-0.1 1.8 0.5l4.8 8.3c0.3 0.7 0.1 1.5-0.5 1.8zM833 741.1c-0.4 0.6-1.2 0.8-1.8 0.5l-8.3-4.8c-0.6-0.4-0.8-1.2-0.5-1.8 0.4-0.6 1.2-0.8 1.8-0.5l8.3 4.8c0.7 0.4 0.9 1.2 0.5 1.8zM832.2 744.8c0 0.7-0.6 1.3-1.3 1.3h-9.6c-0.7 0-1.3-0.6-1.3-1.3 0-0.7 0.6-1.3 1.3-1.3h9.6c0.7 0 1.3 0.6 1.3 1.3zM833.3 748.4c0.4 0.6 0.1 1.4-0.5 1.8l-8.3 4.8c-0.6 0.4-1.4 0.1-1.8-0.5-0.4-0.6-0.1-1.4 0.5-1.8l8.3-4.8c0.7-0.3 1.5-0.1 1.8 0.5zM836.1 751c0.6 0.4 0.8 1.2 0.5 1.8l-4.8 8.3c-0.4 0.6-1.2 0.8-1.8 0.5-0.6-0.4-0.8-1.2-0.5-1.8l4.8-8.3c0.4-0.7 1.2-0.9 1.8-0.5zM839.8 751.8c0.7 0 1.3 0.6 1.3 1.3v9.6c0 0.7-0.6 1.3-1.3 1.3-0.7 0-1.3-0.6-1.3-1.3v-9.6c0-0.7 0.6-1.3 1.3-1.3zM843.4 750.7c0.6-0.4 1.4-0.1 1.8 0.5l4.8 8.3c0.4 0.6 0.1 1.4-0.5 1.8-0.6 0.4-1.4 0.1-1.8-0.5l-4.8-8.3c-0.3-0.7-0.1-1.5 0.5-1.8zM846 747.9c0.4-0.6 1.2-0.8 1.8-0.5l8.3 4.8c0.6 0.4 0.8 1.2 0.5 1.8-0.4 0.6-1.2 0.8-1.8 0.5l-8.3-4.8c-0.7-0.4-0.9-1.2-0.5-1.8zM846.8 744.2c0-0.7 0.6-1.3 1.3-1.3h9.6c0.7 0 1.3 0.6 1.3 1.3 0 0.7-0.6 1.3-1.3 1.3h-9.6c-0.7 0-1.3-0.6-1.3-1.3zM845.7 740.6c-0.4-0.6-0.1-1.4 0.5-1.8l8.3-4.8c0.6-0.4 1.4-0.1 1.8 0.5 0.4 0.6 0.1 1.4-0.5 1.8l-8.3 4.8c-0.7 0.3-1.5 0.1-1.8-0.5zM842.9 738c-0.6-0.4-0.8-1.2-0.5-1.8l4.8-8.3c0.4-0.6 1.2-0.8 1.8-0.5 0.6 0.4 0.8 1.2 0.5 1.8l-4.8 8.3c-0.4 0.7-1.2 0.9-1.8 0.5z" fill="#F4D676" p-id="3561"></path><path d="M779.2 159.2c-0.7 0-1.3-0.6-1.3-1.3v-9.6c0-0.7 0.6-1.3 1.3-1.3 0.7 0 1.3 0.6 1.3 1.3v9.6c0 0.7-0.6 1.3-1.3 1.3zM775.6 160.3c-0.6 0.4-1.4 0.1-1.8-0.5l-4.8-8.3c-0.4-0.6-0.1-1.4 0.5-1.8 0.6-0.4 1.4-0.1 1.8 0.5l4.8 8.3c0.3 0.7 0.1 1.5-0.5 1.8zM773 163.1c-0.4 0.6-1.2 0.8-1.8 0.5l-8.3-4.8c-0.6-0.4-0.8-1.2-0.5-1.8 0.4-0.6 1.2-0.8 1.8-0.5l8.3 4.8c0.7 0.4 0.9 1.2 0.5 1.8zM772.2 166.8c0 0.7-0.6 1.3-1.3 1.3h-9.6c-0.7 0-1.3-0.6-1.3-1.3 0-0.7 0.6-1.3 1.3-1.3h9.6c0.7 0 1.3 0.6 1.3 1.3zM773.3 170.4c0.4 0.6 0.1 1.4-0.5 1.8l-8.3 4.8c-0.6 0.4-1.4 0.1-1.8-0.5-0.4-0.6-0.1-1.4 0.5-1.8l8.3-4.8c0.7-0.3 1.5-0.1 1.8 0.5zM776.1 173c0.6 0.4 0.8 1.2 0.5 1.8l-4.8 8.3c-0.4 0.6-1.2 0.8-1.8 0.5-0.6-0.4-0.8-1.2-0.5-1.8l4.8-8.3c0.4-0.7 1.2-0.9 1.8-0.5zM779.8 173.8c0.7 0 1.3 0.6 1.3 1.3v9.6c0 0.7-0.6 1.3-1.3 1.3-0.7 0-1.3-0.6-1.3-1.3v-9.6c0-0.7 0.6-1.3 1.3-1.3zM783.4 172.7c0.6-0.4 1.4-0.1 1.8 0.5l4.8 8.3c0.4 0.6 0.1 1.4-0.5 1.8-0.6 0.4-1.4 0.1-1.8-0.5l-4.8-8.3c-0.3-0.7-0.1-1.5 0.5-1.8zM786 169.9c0.4-0.6 1.2-0.8 1.8-0.5l8.3 4.8c0.6 0.4 0.8 1.2 0.5 1.8-0.4 0.6-1.2 0.8-1.8 0.5l-8.3-4.8c-0.7-0.4-0.9-1.2-0.5-1.8zM786.8 166.2c0-0.7 0.6-1.3 1.3-1.3h9.6c0.7 0 1.3 0.6 1.3 1.3 0 0.7-0.6 1.3-1.3 1.3h-9.6c-0.7 0-1.3-0.6-1.3-1.3zM785.7 162.6c-0.4-0.6-0.1-1.4 0.5-1.8l8.3-4.8c0.6-0.4 1.4-0.1 1.8 0.5 0.4 0.6 0.1 1.4-0.5 1.8l-8.3 4.8c-0.7 0.3-1.5 0.1-1.8-0.5zM782.9 160c-0.6-0.4-0.8-1.2-0.5-1.8l4.8-8.3c0.4-0.6 1.2-0.8 1.8-0.5 0.6 0.4 0.8 1.2 0.5 1.8l-4.8 8.3c-0.4 0.7-1.2 0.9-1.8 0.5z" fill="#F4AD9F" p-id="3562"></path><path d="M219.2 758.7l2.9 5.8c0.2 0.4 0.5 0.6 1 0.7l6.4 0.9c1.1 0.2 1.5 1.4 0.7 2.2l-4.7 4.5c-0.3 0.3-0.4 0.7-0.4 1.1l1.1 6.4c0.2 1-0.9 1.8-1.9 1.4l-5.7-3c-0.4-0.2-0.8-0.2-1.2 0l-5.7 3c-0.9 0.5-2-0.3-1.9-1.4l1.1-6.4c0.1-0.4-0.1-0.8-0.4-1.1l-4.7-4.5c-0.8-0.7-0.3-2 0.7-2.2l6.4-0.9c0.4-0.1 0.8-0.3 1-0.7l2.9-5.8c0.5-0.9 1.9-0.9 2.4 0z" fill="#F4AD9F" p-id="3563"></path><path d="M716.2 92.7l2.9 5.8c0.2 0.4 0.5 0.6 1 0.7l6.4 0.9c1.1 0.2 1.5 1.4 0.7 2.2l-4.7 4.5c-0.3 0.3-0.4 0.7-0.4 1.1l1.1 6.4c0.2 1-0.9 1.8-1.9 1.4l-5.7-3c-0.4-0.2-0.8-0.2-1.2 0l-5.7 3c-0.9 0.5-2-0.3-1.9-1.4l1.1-6.4c0.1-0.4-0.1-0.8-0.4-1.1l-4.7-4.5c-0.8-0.7-0.3-2 0.7-2.2l6.4-0.9c0.4-0.1 0.8-0.3 1-0.7l2.9-5.8c0.5-0.9 1.9-0.9 2.4 0z" fill="#F4D676" p-id="3564"></path><path d="M229.3 512.6c7.2 9.1 16.3 15.4 29.5 16.7 8.7 0.9 13.6-3.3 17.9-8.1 6-6.3 10.9-13.8 22.4-11.9 17.3 2.8 19.9 28.7 32.9 38.4 2.2 1.8 4.8 3.1 7.7 3.7 0.9 0.2 1.8 0.3 2.7 0.3 17.5 1.5 18.6-19.5 37.8-15.7 15 2.9 18.8 23 28.2 34.4 3.3 4 7.2 6.9 12.4 7.7 6 1.1 10.2-0.4 13.6-3.3 8.4-5.9 12.6-18 26.7-16.7 11.7 1.1 16.6 12.2 22.7 21.1 4.3 6.4 9.3 11.9 17.8 11.9s13.5-5.5 17.8-12.1c6-9 10.9-19.8 22.6-21 13.9-1.3 18.2 10.1 26.2 16.3 3.6 2.9 7.9 4.7 14.3 3.7 5.4-0.9 9.4-4.1 12.8-8.4 9-11.4 13-30.9 27.7-33.8 18.1-3.5 20.1 14.9 34.8 15.8 1.9 0.1 3.9 0 5.7-0.4 4-0.8 7.5-2.9 10.2-5.9 10.9-11 14.3-33.8 30.4-36.2 10.9-1.8 16 4.7 21.6 10.9 4.7 5.1 9.6 10 18.8 9.1 16.2-1.6 19.3-21.7 30.4-29.6L672.4 763.7c-18.1 27.3-90.6 47.8-177.3 47.8-83.1 0-153.3-18.8-174.8-44.7l-91-254.2z" fill="#76B767" p-id="3565"></path><path d="M784.3 455.4c0 3.8-9.6 44.3-9.6 44.3-11.1 7.9-14.3 28.1-30.4 29.6-9.3 0.9-14.3-4-18.8-9.1-5.5-6.2-10.6-12.7-21.6-10.9-16.2 2.5-19.4 25.2-30.4 36.2-2.6 3-6.2 5.1-10.2 6-1.8 0.4-3.8 0.6-5.7 0.4-14.7-1.1-16.6-19.4-34.8-15.8-14.7 2.9-18.7 22.3-27.7 33.8-3.3 4.2-7.3 7.5-12.8 8.4-6.4 1.1-10.7-0.7-14.3-3.7-7.9-6.2-12.2-17.6-26.2-16.3-11.7 1.1-16.6 12.1-22.6 21-4.3 6.4-9.2 12.1-17.8 12.1s-13.5-5.5-17.8-11.9c-6.2-9-11.1-20-22.7-21.1-14.3-1.3-18.4 10.9-26.7 16.7-3.4 2.8-7.7 4.2-13.6 3.3-5.3-0.9-9.1-3.9-12.4-7.7-9.2-11.4-13.2-31.4-28.2-34.4-19.3-3.8-20.3 17.2-37.8 15.7-0.9 0-1.8-0.1-2.7-0.3-2.8-0.6-5.5-1.8-7.7-3.7-13-9.9-15.6-35.7-32.9-38.4-11.5-1.9-16.5 5.5-22.4 11.9-4.3 4.7-9.3 9-17.9 8.1-13.2-1.3-22.3-7.7-29.5-16.7 0 0-13.5-53.5-13.5-57.3 0-119.4 89.7-213.7 211.4-236.3 7.5 32.6 37.3 57 72.8 57s65.4-24.4 72.8-57c122 22.4 211.7 116.7 211.7 236.1z" fill="#F4AD9F" p-id="3566"></path><path d="M258.6 395.6c8.6 0.9 13.6-3.4 17.9-8.1 6-6.3 10.9-13.8 22.4-11.9 17.3 2.7 19.9 28.6 32.9 38.4 2.2 1.8 4.8 3.1 7.7 3.7 0.9 0.2 1.8 0.3 2.7 0.3 17.5 1.5 18.6-19.5 37.8-15.7 15 3 18.9 23 28.2 34.4 3.3 3.9 7.1 6.9 12.4 7.7 6 1 10.2-0.4 13.6-3.3 8.4-5.8 12.5-18 26.7-16.7 11.6 1.1 16.5 12.1 22.7 21.1 4.3 6.4 9.2 11.9 17.8 11.9 8.5 0 13.5-5.6 17.8-12.1 6-9 10.9-19.9 22.6-21 14-1.3 18.3 10.1 26.2 16.3 3.6 3 7.9 4.8 14.3 3.7 5.5-0.9 9.5-4.1 12.8-8.4 9-11.4 13-30.9 27.7-33.8 18.1-3.5 20.1 14.8 34.8 15.8 1.9 0.2 3.9 0 5.7-0.4 4-0.9 7.6-3 10.2-6 10.9-11 14.2-33.8 30.4-36.2 10.9-1.8 16 4.8 21.6 10.9 4.6 5.1 9.5 9.9 18.8 9.1 12.6-1.2 17.3-13.9 24-23.1-30.9-77.9-104.2-135.2-195.6-152-7.5 32.6-37.3 57-72.8 57s-65.4-24.4-72.8-57c-93.7 17.4-168.5 77.4-197.9 158.6 7.2 9.2 16.3 15.5 29.4 16.8z" fill="#F4D676" p-id="3567"></path><path d="M593.7 227.3c-10.1 37.9-63.5 90.5-108.9 78.4s-65.5-84.4-55.3-122.2c10.1-37.9 55.1-58.8 100.5-46.7 45.2 12.1 73.8 52.6 63.7 90.5z" fill="#F4644D" p-id="3568"></path></svg>