<?xml version="1.0" standalone="no"?><!DOCTYPE svg PUBLIC "-//W3C//DTD SVG 1.1//EN" "http://www.w3.org/Graphics/SVG/1.1/DTD/svg11.dtd"><svg t="1681895095235" class="icon" viewBox="0 0 1024 1024" version="1.1" xmlns="http://www.w3.org/2000/svg" p-id="5586" xmlns:xlink="http://www.w3.org/1999/xlink" width="200" height="200"><path d="M200.2 823h-27.3c-3.8 0-7.3 2.7-7.8 6.5-0.6 4.5 3 8.5 7.4 8.5h27.7c4.1 0 7.5-3.4 7.5-7.5s-3.4-7.5-7.5-7.5zM780.2 823H674.5c-4.1 0-7.5 3.4-7.5 7.5s3.4 7.5 7.5 7.5h105.7c4.1 0 7.5-3.4 7.5-7.5s-3.4-7.5-7.5-7.5zM797.7 830.5c0 4.1 3.4 7.5 7.5 7.5h47c4.1 0 7.5-3.4 7.5-7.5s-3.4-7.5-7.5-7.5h-47c-4.2 0-7.5 3.4-7.5 7.5zM649.5 823H225.2c-4.1 0-7.5 3.4-7.5 7.5s3.4 7.5 7.5 7.5h424.3c4.1 0 7.5-3.4 7.5-7.5s-3.4-7.5-7.5-7.5zM599.8 885H330.7c-4.4 0-8 3.6-8 8s3.6 8 8 8H600c4.8 0 8.7-4.3 7.9-9.3-0.6-3.9-4.2-6.7-8.1-6.7zM304.7 885h-54.4c-4 0-7.5 2.8-8.1 6.7-0.8 5 3.1 9.3 7.9 9.3h54.7c4.4 0 8-3.6 8-8-0.1-4.4-3.7-8-8.1-8z" fill="#76B767" p-id="5587"></path><path d="M216.7 214.7h-8.5v-8.5c0-1.8-1.5-3.3-3.3-3.3s-3.3 1.5-3.3 3.3v8.5h-8.5c-1.8 0-3.3 1.5-3.3 3.3s1.5 3.3 3.3 3.3h8.5v8.5c0 1.8 1.5 3.3 3.3 3.3s3.3-1.5 3.3-3.3v-8.5h8.5c1.8 0 3.3-1.5 3.3-3.3s-1.5-3.3-3.3-3.3z" fill="#F4AD9F" p-id="5588"></path><path d="M897.7 321.7h-8.5v-8.5c0-1.8-1.5-3.3-3.3-3.3s-3.3 1.5-3.3 3.3v8.5h-8.5c-1.8 0-3.3 1.5-3.3 3.3s1.5 3.3 3.3 3.3h8.5v8.5c0 1.8 1.5 3.3 3.3 3.3s3.3-1.5 3.3-3.3v-8.5h8.5c1.8 0 3.3-1.5 3.3-3.3s-1.5-3.3-3.3-3.3z" fill="#76B767" p-id="5589"></path><path d="M839.2 737.2c-0.7 0-1.3-0.6-1.3-1.3v-9.6c0-0.7 0.6-1.3 1.3-1.3 0.7 0 1.3 0.6 1.3 1.3v9.6c0 0.7-0.6 1.3-1.3 1.3zM835.6 738.3c-0.6 0.4-1.4 0.1-1.8-0.5l-4.8-8.3c-0.4-0.6-0.1-1.4 0.5-1.8 0.6-0.4 1.4-0.1 1.8 0.5l4.8 8.3c0.3 0.7 0.1 1.5-0.5 1.8zM833 741.1c-0.4 0.6-1.2 0.8-1.8 0.5l-8.3-4.8c-0.6-0.4-0.8-1.2-0.5-1.8 0.4-0.6 1.2-0.8 1.8-0.5l8.3 4.8c0.7 0.4 0.9 1.2 0.5 1.8zM832.2 744.8c0 0.7-0.6 1.3-1.3 1.3h-9.6c-0.7 0-1.3-0.6-1.3-1.3 0-0.7 0.6-1.3 1.3-1.3h9.6c0.7 0 1.3 0.6 1.3 1.3zM833.3 748.4c0.4 0.6 0.1 1.4-0.5 1.8l-8.3 4.8c-0.6 0.4-1.4 0.1-1.8-0.5-0.4-0.6-0.1-1.4 0.5-1.8l8.3-4.8c0.7-0.3 1.5-0.1 1.8 0.5zM836.1 751c0.6 0.4 0.8 1.2 0.5 1.8l-4.8 8.3c-0.4 0.6-1.2 0.8-1.8 0.5-0.6-0.4-0.8-1.2-0.5-1.8l4.8-8.3c0.4-0.7 1.2-0.9 1.8-0.5zM839.8 751.8c0.7 0 1.3 0.6 1.3 1.3v9.6c0 0.7-0.6 1.3-1.3 1.3-0.7 0-1.3-0.6-1.3-1.3v-9.6c0-0.7 0.6-1.3 1.3-1.3zM843.4 750.7c0.6-0.4 1.4-0.1 1.8 0.5l4.8 8.3c0.4 0.6 0.1 1.4-0.5 1.8-0.6 0.4-1.4 0.1-1.8-0.5l-4.8-8.3c-0.3-0.7-0.1-1.5 0.5-1.8zM846 747.9c0.4-0.6 1.2-0.8 1.8-0.5l8.3 4.8c0.6 0.4 0.8 1.2 0.5 1.8-0.4 0.6-1.2 0.8-1.8 0.5l-8.3-4.8c-0.7-0.4-0.9-1.2-0.5-1.8zM846.8 744.2c0-0.7 0.6-1.3 1.3-1.3h9.6c0.7 0 1.3 0.6 1.3 1.3 0 0.7-0.6 1.3-1.3 1.3h-9.6c-0.7 0-1.3-0.6-1.3-1.3zM845.7 740.6c-0.4-0.6-0.1-1.4 0.5-1.8l8.3-4.8c0.6-0.4 1.4-0.1 1.8 0.5 0.4 0.6 0.1 1.4-0.5 1.8l-8.3 4.8c-0.7 0.3-1.5 0.1-1.8-0.5zM842.9 738c-0.6-0.4-0.8-1.2-0.5-1.8l4.8-8.3c0.4-0.6 1.2-0.8 1.8-0.5 0.6 0.4 0.8 1.2 0.5 1.8l-4.8 8.3c-0.4 0.7-1.2 0.9-1.8 0.5z" fill="#F4D676" p-id="5590"></path><path d="M779.2 159.2c-0.7 0-1.3-0.6-1.3-1.3v-9.6c0-0.7 0.6-1.3 1.3-1.3 0.7 0 1.3 0.6 1.3 1.3v9.6c0 0.7-0.6 1.3-1.3 1.3zM775.6 160.3c-0.6 0.4-1.4 0.1-1.8-0.5l-4.8-8.3c-0.4-0.6-0.1-1.4 0.5-1.8 0.6-0.4 1.4-0.1 1.8 0.5l4.8 8.3c0.3 0.7 0.1 1.5-0.5 1.8zM773 163.1c-0.4 0.6-1.2 0.8-1.8 0.5l-8.3-4.8c-0.6-0.4-0.8-1.2-0.5-1.8 0.4-0.6 1.2-0.8 1.8-0.5l8.3 4.8c0.7 0.4 0.9 1.2 0.5 1.8zM772.2 166.8c0 0.7-0.6 1.3-1.3 1.3h-9.6c-0.7 0-1.3-0.6-1.3-1.3 0-0.7 0.6-1.3 1.3-1.3h9.6c0.7 0 1.3 0.6 1.3 1.3zM773.3 170.4c0.4 0.6 0.1 1.4-0.5 1.8l-8.3 4.8c-0.6 0.4-1.4 0.1-1.8-0.5-0.4-0.6-0.1-1.4 0.5-1.8l8.3-4.8c0.7-0.3 1.5-0.1 1.8 0.5zM776.1 173c0.6 0.4 0.8 1.2 0.5 1.8l-4.8 8.3c-0.4 0.6-1.2 0.8-1.8 0.5-0.6-0.4-0.8-1.2-0.5-1.8l4.8-8.3c0.4-0.7 1.2-0.9 1.8-0.5zM779.8 173.8c0.7 0 1.3 0.6 1.3 1.3v9.6c0 0.7-0.6 1.3-1.3 1.3-0.7 0-1.3-0.6-1.3-1.3v-9.6c0-0.7 0.6-1.3 1.3-1.3zM783.4 172.7c0.6-0.4 1.4-0.1 1.8 0.5l4.8 8.3c0.4 0.6 0.1 1.4-0.5 1.8-0.6 0.4-1.4 0.1-1.8-0.5l-4.8-8.3c-0.3-0.7-0.1-1.5 0.5-1.8zM786 169.9c0.4-0.6 1.2-0.8 1.8-0.5l8.3 4.8c0.6 0.4 0.8 1.2 0.5 1.8-0.4 0.6-1.2 0.8-1.8 0.5l-8.3-4.8c-0.7-0.4-0.9-1.2-0.5-1.8zM786.8 166.2c0-0.7 0.6-1.3 1.3-1.3h9.6c0.7 0 1.3 0.6 1.3 1.3 0 0.7-0.6 1.3-1.3 1.3h-9.6c-0.7 0-1.3-0.6-1.3-1.3zM785.7 162.6c-0.4-0.6-0.1-1.4 0.5-1.8l8.3-4.8c0.6-0.4 1.4-0.1 1.8 0.5 0.4 0.6 0.1 1.4-0.5 1.8l-8.3 4.8c-0.7 0.3-1.5 0.1-1.8-0.5zM782.9 160c-0.6-0.4-0.8-1.2-0.5-1.8l4.8-8.3c0.4-0.6 1.2-0.8 1.8-0.5 0.6 0.4 0.8 1.2 0.5 1.8l-4.8 8.3c-0.4 0.7-1.2 0.9-1.8 0.5z" fill="#F4AD9F" p-id="5591"></path><path d="M219.2 758.7l2.9 5.8c0.2 0.4 0.5 0.6 1 0.7l6.4 0.9c1.1 0.2 1.5 1.4 0.7 2.2l-4.7 4.5c-0.3 0.3-0.4 0.7-0.4 1.1l1.1 6.4c0.2 1-0.9 1.8-1.9 1.4l-5.7-3c-0.4-0.2-0.8-0.2-1.2 0l-5.7 3c-0.9 0.5-2-0.3-1.9-1.4l1.1-6.4c0.1-0.4-0.1-0.8-0.4-1.1l-4.7-4.5c-0.8-0.7-0.3-2 0.7-2.2l6.4-0.9c0.4-0.1 0.8-0.3 1-0.7l2.9-5.8c0.5-0.9 1.9-0.9 2.4 0z" fill="#F4AD9F" p-id="5592"></path><path d="M716.2 92.7l2.9 5.8c0.2 0.4 0.5 0.6 1 0.7l6.4 0.9c1.1 0.2 1.5 1.4 0.7 2.2l-4.7 4.5c-0.3 0.3-0.4 0.7-0.4 1.1l1.1 6.4c0.2 1-0.9 1.8-1.9 1.4l-5.7-3c-0.4-0.2-0.8-0.2-1.2 0l-5.7 3c-0.9 0.5-2-0.3-1.9-1.4l1.1-6.4c0.1-0.4-0.1-0.8-0.4-1.1l-4.7-4.5c-0.8-0.7-0.3-2 0.7-2.2l6.4-0.9c0.4-0.1 0.8-0.3 1-0.7l2.9-5.8c0.5-0.9 1.9-0.9 2.4 0z" fill="#F4D676" p-id="5593"></path><path d="M527.5 489.5m-309.5 0a309.5 309.5 0 1 0 619 0 309.5 309.5 0 1 0-619 0Z" fill="#F4AD9F" p-id="5594"></path><path d="M527.5 489.5m-141.5 0a141.5 141.5 0 1 0 283 0 141.5 141.5 0 1 0-283 0Z" fill="#76B767" p-id="5595"></path><path d="M836.2 474.9c-17.2 8-33.6 17.6-50.6 26.1-22.4 11.2-44.9 19.8-69.9 22.3-23.9 2.4-47.5-3.8-69.8-12-17.8-6.6-35.5-14.2-54.3-17.6-5-0.5-10-0.5-15.1-0.1-3.6 0.7-7.1 1.6-10.6 2.8-0.2 0.1-0.3 0.1-0.5 0.2-4.6 2.6-2.1 0.9 0 0 0.3-0.2 0.6-0.4 1-0.6-0.7 0.4-1.6 0.7-2.4 1.1-2.5 1.2-4.9 2.5-7.2 3.9-0.7 0.4-1.4 0.9-2.1 1.3 0.3-0.1-0.1 0.3-2.4 1.6l-0.1 0.1c-0.6 0.5-1.1 1-1.6 1.5-3.2 3.1-6.1 6.6-8.9 10-4.8 5.9-9.3 12.2-14.7 17.6-8.4 8.5-18.4 15-29.7 18.9-19.9 6.8-42.3 1.1-62.1-3.6-32-7.7-62.8-20.3-95.4-25.4-11.5-1.3-23.1-1.4-34.7-0.1-6.6 1.1-13.2 2.6-19.6 4.5-2.9 0.9-5.9 1.9-8.8 3-1.5 0.5-3 1.1-4.4 1.7-11.8 5.3-23.1 11.5-33.6 19-0.3 0.2-1.3 0.9-2.1 1.5-0.5 0.4-1 0.8-1.2 1-2.6 2.1-5 4.3-7.4 6.6-0.5 0.4-0.9 0.9-1.3 1.3C259 697.8 381.4 799 527.5 799 698.4 799 837 660.4 837 489.5c0-5-0.1-9.9-0.4-14.8-0.1 0-0.3 0.1-0.4 0.2zM282.7 444.3c-3.3-0.9-6.3 1.1-7.4 4.2-1.8 5-2.6 10.5-2.2 15.8 0.2 3.2 2.6 6 6 6 3.1 0 6.2-2.8 6-6-0.3-4.4 0.3-8.5 1.8-12.6 1.1-3-1.3-6.6-4.2-7.4zM369.7 324.4c-0.4-3.2-2.5-6-6-6-3 0-6.4 2.8-6 6 0.5 4.2-0.3 7.6-2.6 11.1-4.3 6.5 6.1 12.5 10.4 6.1 3.3-5.1 4.9-11.2 4.2-17.2zM356.7 433.6c-3.3 0.1-6 2.6-6 6v7.1c0 3.1 2.8 6.1 6 6 3.3-0.1 6-2.6 6-6v-7.1c0-3.1-2.8-6.1-6-6zM515.9 257.5l-10.5-3.7c-3.1-1.1-6.6 1.2-7.4 4.2-0.9 3.3 1.1 6.3 4.2 7.4 3.5 1.2 7 2.5 10.5 3.7 3.1 1.1 6.6-1.2 7.4-4.2 0.9-3.4-1.1-6.4-4.2-7.4zM441.5 231.5c-1.6-2.5-5.5-4.2-8.2-2.2-4 3.1-7.1 7.2-7.8 12.3-0.4 3.1 0.7 6.6 4.2 7.4 2.8 0.6 6.9-0.9 7.4-4.2 0.1-0.7 0.2-1.4 0.4-2 0.1-0.2 0.1-0.4 0.2-0.6 0-0.1 0.2-0.3 0.3-0.6 0.2-0.3 0.4-0.6 0.5-0.9v-0.1c0.2-0.2 0.4-0.5 0.7-0.7 0.2-0.2 1.1-1 0.2-0.2 2.5-1.9 4.1-5.3 2.1-8.2zM677.4 262.6c-2.7-1.6-6.7-0.7-8.2 2.2-1.4 2.7-0.8 5.9 1.5 7.7-0.8 2.9 1.4 6.4 4.3 7.1 3.3 0.8 6.3-1 7.4-4.2 1.6-4.9-0.7-10.3-5-12.8zM643.3 321.3c-2-1.6-3.9-3.1-5.9-4.7-1.3-1-2.5-1.8-4.2-1.8-1.5 0-3.2 0.7-4.2 1.8-2 2.2-2.6 6.4 0 8.5l5.9 4.7c1.3 1 2.5 1.8 4.2 1.8 1.5 0 3.2-0.7 4.2-1.8 2-2.2 2.6-6.4 0-8.5zM786 369.1v11.8c0 7.7 12 7.7 12 0v-11.8c0-7.8-12-7.8-12 0zM745.4 459c-1.7-4-2.3-8.7-1.6-13 0.5-3.2-0.8-6.5-4.2-7.4-2.9-0.8-6.9 1-7.4 4.2-1.3 7.8-0.4 15 2.8 22.2 1.3 3 5.7 3.6 8.2 2.2 3.1-1.8 3.5-5.2 2.2-8.2z" fill="#F4D676" p-id="5596"></path><path d="M317.4 382.5c-4.6-3.6-10-5.8-15.9-5.4-3.2 0.2-6 2.6-6 6 0 3.1 2.7 6.2 6 6 2.7-0.2 5.4 0.3 7.5 1.9 2.5 2 6 2.5 8.5 0 1.9-2.1 2.4-6.4-0.1-8.5zM452.6 281.6c-4.9-2.6-10.4-3.9-15.9-3.2-3.2 0.4-6 2.5-6 6 0 2.9 2.8 6.4 6 6 3.5-0.5 6.7-0.1 9.9 1.6 6.8 3.6 12.8-6.7 6-10.4zM568.3 245.1c-0.8-3-4.3-5.2-7.4-4.2-3 1-4.8 3.8-4.3 6.9-0.1 0.1-0.1 0.2-0.2 0.3-0.6 1-1 2-1 3.3 0 1.5 0.7 3.2 1.8 4.2 2.2 2.1 6.3 2.6 8.5 0 2.5-2.9 3.6-6.6 2.6-10.5zM704.3 392.3c-4.1-2.8-9.3-3.5-14-2.3-3 0.8-5.2 4.3-4.2 7.4 1 3.2 4.1 5 7.4 4.2 0.2-0.1 0.5-0.1 0.7-0.2h0.6c0.2 0 1.5 0.2 1 0.1l1.2 0.3c-0.2 0 1.2 0.7 1.4 0.8 2.6 1.8 6.8 0.6 8.2-2.2 1.5-3 0.5-6.3-2.3-8.1zM801.3 438.1c-0.8-3-4.3-5.2-7.4-4.2-3 1-4.8 3.8-4.3 6.9-0.1 0.1-0.1 0.2-0.2 0.3-0.6 1-1 2-1 3.3 0 1.5 0.7 3.2 1.8 4.2 2.2 2.1 6.3 2.6 8.5 0 2.5-3 3.5-6.7 2.6-10.5z" fill="#76B767" p-id="5597"></path></svg>