<?xml version="1.0" standalone="no"?><!DOCTYPE svg PUBLIC "-//W3C//DTD SVG 1.1//EN" "http://www.w3.org/Graphics/SVG/1.1/DTD/svg11.dtd"><svg t="1681894960645" class="icon" viewBox="0 0 1024 1024" version="1.1" xmlns="http://www.w3.org/2000/svg" p-id="3713" xmlns:xlink="http://www.w3.org/1999/xlink" width="200" height="200"><path d="M200.2 823h-27.3c-3.8 0-7.3 2.7-7.8 6.5-0.6 4.5 3 8.5 7.4 8.5h27.7c4.1 0 7.5-3.4 7.5-7.5s-3.4-7.5-7.5-7.5zM780.2 823H674.5c-4.1 0-7.5 3.4-7.5 7.5s3.4 7.5 7.5 7.5h105.7c4.1 0 7.5-3.4 7.5-7.5s-3.4-7.5-7.5-7.5zM797.7 830.5c0 4.1 3.4 7.5 7.5 7.5h47c4.1 0 7.5-3.4 7.5-7.5s-3.4-7.5-7.5-7.5h-47c-4.2 0-7.5 3.4-7.5 7.5zM649.5 823H225.2c-4.1 0-7.5 3.4-7.5 7.5s3.4 7.5 7.5 7.5h424.3c4.1 0 7.5-3.4 7.5-7.5s-3.4-7.5-7.5-7.5zM599.8 885H330.7c-4.4 0-8 3.6-8 8s3.6 8 8 8H600c4.8 0 8.7-4.3 7.9-9.3-0.6-3.9-4.2-6.7-8.1-6.7zM304.7 885h-54.4c-4 0-7.5 2.8-8.1 6.7-0.8 5 3.1 9.3 7.9 9.3h54.7c4.4 0 8-3.6 8-8-0.1-4.4-3.7-8-8.1-8z" fill="#76B767" p-id="3714"></path><path d="M216.7 214.7h-8.5v-8.5c0-1.8-1.5-3.3-3.3-3.3s-3.3 1.5-3.3 3.3v8.5h-8.5c-1.8 0-3.3 1.5-3.3 3.3s1.5 3.3 3.3 3.3h8.5v8.5c0 1.8 1.5 3.3 3.3 3.3s3.3-1.5 3.3-3.3v-8.5h8.5c1.8 0 3.3-1.5 3.3-3.3s-1.5-3.3-3.3-3.3z" fill="#F4AD9F" p-id="3715"></path><path d="M897.7 321.7h-8.5v-8.5c0-1.8-1.5-3.3-3.3-3.3s-3.3 1.5-3.3 3.3v8.5h-8.5c-1.8 0-3.3 1.5-3.3 3.3s1.5 3.3 3.3 3.3h8.5v8.5c0 1.8 1.5 3.3 3.3 3.3s3.3-1.5 3.3-3.3v-8.5h8.5c1.8 0 3.3-1.5 3.3-3.3s-1.5-3.3-3.3-3.3z" fill="#76B767" p-id="3716"></path><path d="M839.2 737.2c-0.7 0-1.3-0.6-1.3-1.3v-9.6c0-0.7 0.6-1.3 1.3-1.3 0.7 0 1.3 0.6 1.3 1.3v9.6c0 0.7-0.6 1.3-1.3 1.3zM835.6 738.3c-0.6 0.4-1.4 0.1-1.8-0.5l-4.8-8.3c-0.4-0.6-0.1-1.4 0.5-1.8 0.6-0.4 1.4-0.1 1.8 0.5l4.8 8.3c0.3 0.7 0.1 1.5-0.5 1.8zM833 741.1c-0.4 0.6-1.2 0.8-1.8 0.5l-8.3-4.8c-0.6-0.4-0.8-1.2-0.5-1.8 0.4-0.6 1.2-0.8 1.8-0.5l8.3 4.8c0.7 0.4 0.9 1.2 0.5 1.8zM832.2 744.8c0 0.7-0.6 1.3-1.3 1.3h-9.6c-0.7 0-1.3-0.6-1.3-1.3 0-0.7 0.6-1.3 1.3-1.3h9.6c0.7 0 1.3 0.6 1.3 1.3zM833.3 748.4c0.4 0.6 0.1 1.4-0.5 1.8l-8.3 4.8c-0.6 0.4-1.4 0.1-1.8-0.5-0.4-0.6-0.1-1.4 0.5-1.8l8.3-4.8c0.7-0.3 1.5-0.1 1.8 0.5zM836.1 751c0.6 0.4 0.8 1.2 0.5 1.8l-4.8 8.3c-0.4 0.6-1.2 0.8-1.8 0.5-0.6-0.4-0.8-1.2-0.5-1.8l4.8-8.3c0.4-0.7 1.2-0.9 1.8-0.5zM839.8 751.8c0.7 0 1.3 0.6 1.3 1.3v9.6c0 0.7-0.6 1.3-1.3 1.3-0.7 0-1.3-0.6-1.3-1.3v-9.6c0-0.7 0.6-1.3 1.3-1.3zM843.4 750.7c0.6-0.4 1.4-0.1 1.8 0.5l4.8 8.3c0.4 0.6 0.1 1.4-0.5 1.8-0.6 0.4-1.4 0.1-1.8-0.5l-4.8-8.3c-0.3-0.7-0.1-1.5 0.5-1.8zM846 747.9c0.4-0.6 1.2-0.8 1.8-0.5l8.3 4.8c0.6 0.4 0.8 1.2 0.5 1.8-0.4 0.6-1.2 0.8-1.8 0.5l-8.3-4.8c-0.7-0.4-0.9-1.2-0.5-1.8zM846.8 744.2c0-0.7 0.6-1.3 1.3-1.3h9.6c0.7 0 1.3 0.6 1.3 1.3 0 0.7-0.6 1.3-1.3 1.3h-9.6c-0.7 0-1.3-0.6-1.3-1.3zM845.7 740.6c-0.4-0.6-0.1-1.4 0.5-1.8l8.3-4.8c0.6-0.4 1.4-0.1 1.8 0.5 0.4 0.6 0.1 1.4-0.5 1.8l-8.3 4.8c-0.7 0.3-1.5 0.1-1.8-0.5zM842.9 738c-0.6-0.4-0.8-1.2-0.5-1.8l4.8-8.3c0.4-0.6 1.2-0.8 1.8-0.5 0.6 0.4 0.8 1.2 0.5 1.8l-4.8 8.3c-0.4 0.7-1.2 0.9-1.8 0.5z" fill="#F4D676" p-id="3717"></path><path d="M779.2 159.2c-0.7 0-1.3-0.6-1.3-1.3v-9.6c0-0.7 0.6-1.3 1.3-1.3 0.7 0 1.3 0.6 1.3 1.3v9.6c0 0.7-0.6 1.3-1.3 1.3zM775.6 160.3c-0.6 0.4-1.4 0.1-1.8-0.5l-4.8-8.3c-0.4-0.6-0.1-1.4 0.5-1.8 0.6-0.4 1.4-0.1 1.8 0.5l4.8 8.3c0.3 0.7 0.1 1.5-0.5 1.8zM773 163.1c-0.4 0.6-1.2 0.8-1.8 0.5l-8.3-4.8c-0.6-0.4-0.8-1.2-0.5-1.8 0.4-0.6 1.2-0.8 1.8-0.5l8.3 4.8c0.7 0.4 0.9 1.2 0.5 1.8zM772.2 166.8c0 0.7-0.6 1.3-1.3 1.3h-9.6c-0.7 0-1.3-0.6-1.3-1.3 0-0.7 0.6-1.3 1.3-1.3h9.6c0.7 0 1.3 0.6 1.3 1.3zM773.3 170.4c0.4 0.6 0.1 1.4-0.5 1.8l-8.3 4.8c-0.6 0.4-1.4 0.1-1.8-0.5-0.4-0.6-0.1-1.4 0.5-1.8l8.3-4.8c0.7-0.3 1.5-0.1 1.8 0.5zM776.1 173c0.6 0.4 0.8 1.2 0.5 1.8l-4.8 8.3c-0.4 0.6-1.2 0.8-1.8 0.5-0.6-0.4-0.8-1.2-0.5-1.8l4.8-8.3c0.4-0.7 1.2-0.9 1.8-0.5zM779.8 173.8c0.7 0 1.3 0.6 1.3 1.3v9.6c0 0.7-0.6 1.3-1.3 1.3-0.7 0-1.3-0.6-1.3-1.3v-9.6c0-0.7 0.6-1.3 1.3-1.3zM783.4 172.7c0.6-0.4 1.4-0.1 1.8 0.5l4.8 8.3c0.4 0.6 0.1 1.4-0.5 1.8-0.6 0.4-1.4 0.1-1.8-0.5l-4.8-8.3c-0.3-0.7-0.1-1.5 0.5-1.8zM786 169.9c0.4-0.6 1.2-0.8 1.8-0.5l8.3 4.8c0.6 0.4 0.8 1.2 0.5 1.8-0.4 0.6-1.2 0.8-1.8 0.5l-8.3-4.8c-0.7-0.4-0.9-1.2-0.5-1.8zM786.8 166.2c0-0.7 0.6-1.3 1.3-1.3h9.6c0.7 0 1.3 0.6 1.3 1.3 0 0.7-0.6 1.3-1.3 1.3h-9.6c-0.7 0-1.3-0.6-1.3-1.3zM785.7 162.6c-0.4-0.6-0.1-1.4 0.5-1.8l8.3-4.8c0.6-0.4 1.4-0.1 1.8 0.5 0.4 0.6 0.1 1.4-0.5 1.8l-8.3 4.8c-0.7 0.3-1.5 0.1-1.8-0.5zM782.9 160c-0.6-0.4-0.8-1.2-0.5-1.8l4.8-8.3c0.4-0.6 1.2-0.8 1.8-0.5 0.6 0.4 0.8 1.2 0.5 1.8l-4.8 8.3c-0.4 0.7-1.2 0.9-1.8 0.5z" fill="#F4AD9F" p-id="3718"></path><path d="M219.2 758.7l2.9 5.8c0.2 0.4 0.5 0.6 1 0.7l6.4 0.9c1.1 0.2 1.5 1.4 0.7 2.2l-4.7 4.5c-0.3 0.3-0.4 0.7-0.4 1.1l1.1 6.4c0.2 1-0.9 1.8-1.9 1.4l-5.7-3c-0.4-0.2-0.8-0.2-1.2 0l-5.7 3c-0.9 0.5-2-0.3-1.9-1.4l1.1-6.4c0.1-0.4-0.1-0.8-0.4-1.1l-4.7-4.5c-0.8-0.7-0.3-2 0.7-2.2l6.4-0.9c0.4-0.1 0.8-0.3 1-0.7l2.9-5.8c0.5-0.9 1.9-0.9 2.4 0z" fill="#F4AD9F" p-id="3719"></path><path d="M716.2 92.7l2.9 5.8c0.2 0.4 0.5 0.6 1 0.7l6.4 0.9c1.1 0.2 1.5 1.4 0.7 2.2l-4.7 4.5c-0.3 0.3-0.4 0.7-0.4 1.1l1.1 6.4c0.2 1-0.9 1.8-1.9 1.4l-5.7-3c-0.4-0.2-0.8-0.2-1.2 0l-5.7 3c-0.9 0.5-2-0.3-1.9-1.4l1.1-6.4c0.1-0.4-0.1-0.8-0.4-1.1l-4.7-4.5c-0.8-0.7-0.3-2 0.7-2.2l6.4-0.9c0.4-0.1 0.8-0.3 1-0.7l2.9-5.8c0.5-0.9 1.9-0.9 2.4 0z" fill="#F4D676" p-id="3720"></path><path d="M679.2 412.3c-10.6-2.9-21-6-31.7-8.5-5-1.2-10.1-2.3-15.2-3.2-2.3-0.4-4.5-0.8-6.8-1.2-3.8-0.3-2.4-0.3-1.1-0.2-0.4-0.1-0.9-0.1-1.3-0.2-9.4-1-18.9-1.3-28.3-0.6-1.6 0.1-3.2 0.3-4.8 0.4h-1.1c-1.5 0.2-2.9 0.6-4.3 0.9-4.9 0.9-9.8 2.1-14.7 3.4-10.7 3-21 7-31.7 9.9-12 3.3-24.2 5.4-36.6 6.7-22.6 2.3-46.7-0.3-67.8-8.8-19.4-7.8-38.5-16.4-58.7-21.9-5.1-1.4-10.2-2.6-15.4-3.5-0.9-0.2-1.8-0.3-2.6-0.4-0.8 0.1-6.2-0.6-6.7-0.7-5.3-0.3-10.7-0.3-16.1 0.2-0.5 0-0.9 0.1-1.2 0.1-1 0.2-2 0.3-3 0.5-5.7 1.1-11.4 2.6-17 4.4-2.7 0.9-5.4 1.9-8.1 2.9-2.5 1.3-3.1 1.4-2.8 1.3-1 0.5-2 1-2.9 1.5-2.1 1.1-4.2 2.3-6.2 3.6v91h436V422c-16.9-1.5-33.6-5.2-49.9-9.7zM261.4 684c25.8-7.7 52.8-10.9 79.7-10.7 15.6 0.1 31.2 1.4 46.5 4.3 13.3 2.5 25.8 8.6 37.9 14.4 3 1.4 6 2.9 9.1 4.3 1.5 0.7 3 1.4 4.6 2.1 0.4 0.2 1.8 0.8 2.6 1.2 4.7 2 9.8 3.6 14.7 4.8 1.5 0.4 3.3 1 4.9 1.2h1.9c2.7 0.2 5.4 0 8.2-0.1h0.5c1.4-0.3 2.9-0.5 4.3-0.9 2.5-0.6 4.9-1.3 7.4-2.2 0.8-0.3 3.1-0.9 4-1.1-0.4 0.1-1.1 0.3-2.2 0.5 0.9-0.2 2.1-0.9 2.9-1.3 2.9-1.3 5.8-2.8 8.7-4.3 5.4-2.8 10.6-5.7 16-8.5 12.6-6.6 26-12.1 39.7-16 27.8-7.9 56.4-8.8 85.1-6.7 13.6 1 27.4 2.5 41.1 1.6 1.3-0.1 9-0.1 2.7-0.1 1.6 0 3.6-0.6 5.2-0.9 2.8-0.6 5.7-1.2 8.5-2 6.2-1.6 12.2-3.6 18.3-5.6 14.1-4.6 27.8-8.8 42.5-10.6 11.7-1.4 23.5-1.3 35.2-0.5V571c-9.4 2.1-18.8 3.6-28.3 4.1-15.4 0.8-30.8-1.4-46.1-2.9-7.3-0.7-14.6-1.3-22-1.3-3.4 0-6.8 0.1-10.2 0.4-1 0.1-2 0.1-3 0.2-0.9 0.2-2.1 0.4-2.5 0.5-12.4 2.3-24.5 5.8-36.5 9.6-24.2 7.6-48.3 15.8-74 16.4-28.1 0.6-53.3-9.7-78.3-21.5-2.6-1.2-5.3-2.5-7.9-3.7-4.6-1.1-2.9-1-1.1-0.4-0.4-0.2-0.8-0.4-1.1-0.5-4.5-1.7-9-2.9-13.6-4h-0.4c-1.3-0.1-2.6-0.1-4-0.1-0.9 0-1.8 0-2.8 0.1-0.7 0.3-1.2 0.5-1.7 0.5-2.2 0.5-4.9 0.7-6.6 1.2-1.6 0.5-3.1 1.1-4.7 1.6-0.4 0.1-1.3 0.4-1.7 0.5-5.8 2.3-11.4 5.5-17.1 8-7 3.1-14.1 6.1-21.2 8.8-12 4.6-24.2 8.6-36.8 11.3-27.7 6-54.9 5.7-82.7 1-18.1-3.1-36.6-8-53.9-15.3v109c9-4.2 18.6-7.7 28.2-10.5z" fill="#F4AD9F" p-id="3721"></path><path d="M784.1 691.9c-7.5-0.4-15.1-0.3-22.6 0.3 0 0-1.3 0.1-2.3 0.2-1.1 0.2-3.1 0.5-3.1 0.5-3.3 0.6-6.6 1.4-9.9 2.3-12.6 3.5-24.9 8.2-37.5 11.7-14.1 3.8-28.5 5.5-43.1 5.1-13.7-0.4-27.3-1.8-41-2.5-7.5-0.4-15-0.5-22.5-0.2-3.2 0.1-6.3 0.4-9.5 0.7-1.8 0.2-3.6 0.4-5.3 0.6h-0.2c-0.2 0-0.4 0.1-0.7 0.1-12.4 2.2-24.5 5.1-36.3 9.6-0.5 0.2-4.5 1.9-4.5 1.8-0.6 0.3-1.1 0.5-1.2 0.6-2.9 1.3-5.8 2.8-8.6 4.3-5.3 2.8-10.6 5.7-16 8.5-11.4 5.8-23.4 11.6-36.1 13.8-15.7 2.7-31.3 1.8-46.4-3.2-13-4.3-25.2-10.6-37.5-16.4-2.4-1.1-4.8-2.3-7.2-3.3-0.8-0.3-2.1-0.8-2.6-1-1.5-0.6-3.1-1.1-4.6-1.6-5.2-1.7-11.5-3.8-17-3.7 5.9-0.1-1.8-0.2-3.1-0.3-1.5-0.2-3.1-0.3-4.6-0.4-3.4-0.3-6.8-0.5-10.2-0.6-6.5-0.2-12.9-0.3-19.4-0.1-6.4 0.1-12.8 0.3-19.1 1-0.5 0.1-0.9 0.1-1.4 0.2 1.4-0.1 2.5-0.1-2 0.3-2.2 0.3-4.5 0.7-6.7 1.1-10.5 1.8-20.9 4.3-31.1 7.4-2.8 0.9-5.6 1.8-8.4 2.8-1.4 0.5-2.8 1-4.2 1.6-0.9 0.4-1.8 0.7-2.7 1.1 0.9-0.4 1.8-0.8 2.7-1.1-0.3-0.5-11.9 5.7-13.1 6.4-1.4 0.8-2.8 1.6-4.2 2.5 13 27.9 41.4 47.3 74 47.3h394.7c44.9 0 81.6-36.7 81.6-81.6v-15.1c-2.5-0.5-4.8-0.6-7.1-0.7z" fill="#76B767" p-id="3722"></path><path d="M238.6 538.2c2.5 1.3 5.1 2.6 7.6 3.8 1.4 0.7 3.7 1.2 5 2.2h0.1c11.1 4.3 22.5 7.7 34.1 10.3 5.3 1.2 10.7 2.2 16.1 3.1 1 0.2 2 0.3 2.9 0.4-1.6-0.3-2.9-0.6 1.8 0.3 3.1 0.4 6.3 0.7 9.4 0.8 7 0.4 14.1 0.4 21.1 0 2.8-0.2 5.7-0.5 8.5-0.7h0.7c1.1-0.2 2.2-0.3 3.3-0.5 12.6-2.1 25-5.6 37.1-9.9 3.2-1.1 6.3-2.3 9.5-3.6 1.6-0.6 3.2-1.3 4.7-1.9 0.4-0.2 0.7-0.3 0.9-0.4 5.3-2.2 10.6-4.7 15.9-7.1 14-6.5 27.6-11.9 43.3-12.3 23.7-0.6 44.1 11.6 65 20.8 0.4 0.2 0.7 0.3 1.1 0.5 0.2 0.1 0.5 0.2 0.8 0.3 1.5 0.6 3 1.2 4.6 1.8 2.7 1 5.4 1.9 8.2 2.8 3.1 1 6.1 1.8 9.3 2.5 1.4 0.3 2.7 0.6 4.1 0.8 1.1 0.2 2.2 0.4 3.3 0.5-0.9-0.1-1.9-0.3-2.8-0.4 2 1.1 7.4 0.6 9.6 0.6 2.9 0.1 5.7 0 8.6-0.2 1.3-0.1 7.7 0.2 8.4-0.8-3.5 0.5-4 0.5-1.5 0.2 0.5-0.1 1-0.2 1.5-0.2 1-0.2 2-0.4 3-0.5 23.3-4.4 45.4-13.7 68.4-19.5 14.1-3.6 28.7-6.1 43.3-6 13.7 0.1 27.4 2.1 41 3.3 7.2 0.7 14.4 1.1 21.6 1 3-0.1 6-0.3 9-0.5h0.6c0.2 0 0.4-0.1 0.6-0.1 1.2-0.2 2.4-0.5 3.6-0.7 3.8-0.7 7.7-1.6 11.5-2.5-13-27.9-41.4-47.3-74-47.3H314.6c-36.7 0-68 24.6-78.1 58.1 0.7 0.2 1.4 0.6 2.1 1z" fill="#F4D676" p-id="3723"></path><path d="M481.7 187h44v113h-44z" fill="#76B767" p-id="3724"></path><path d="M321.2 346.5c22.3-3.9 44.3-2.1 66.2 3.6 20.6 5.4 40.1 13.9 59.7 22 5.5 2.3 11.2 4.1 17 5.5 2.4 0.6 4.9 1.1 7.3 1.6 0.1 0 1.2 0.2 2.1 0.3 1.1 0.1 2.7 0.3 2.8 0.3 5.4 0.5 10.9 0.7 16.4 0.5 2.7-0.1 5.4-0.2 8.1-0.5 1.5-0.1 3-0.3 4.5-0.4 0.6-0.1 1.2 0 1.5 0.1 2.3-0.3 4.9-1.1 6.9-1.5 2.7-0.5 5.4-1.1 8.1-1.8 5.1-1.2 10.2-2.7 15.3-4.3 11-3.5 21.8-7.5 33.1-9.9 22.5-4.8 44.5-4.9 67.2-1.5 22.1 3.3 43.2 10.2 64.8 15.5 5.5 1.4 10.9 2.6 16.5 3.7 2.8 0.5 5.5 1 8.3 1.5 1 0.2 2.1 0.3 3.2 0.5 0.2 0 0.4 0 0.7 0.1v-49.9c0-22.5-18.4-40.8-40.8-40.8H335.8c-22.5 0-40.8 18.4-40.8 40.8v21.9c8.5-3.3 17.4-5.8 26.2-7.3z" fill="#76B767" p-id="3725"></path><path d="M504.2 101.5s-104 106.8 0 143.2c0-0.1 101.5-49.1 0-143.2z" fill="#F4D676" p-id="3726"></path></svg>