<svg id="SvgjsSvg1001" width="475.5" height="323" xmlns="http://www.w3.org/2000/svg" version="1.1" xmlns:xlink="http://www.w3.org/1999/xlink" xmlns:svgjs="http://svgjs.com/svgjs"><defs id="SvgjsDefs1002"><marker id="SvgjsMarker1044" markerWidth="14" markerHeight="10" refX="10" refY="5" viewBox="0 0 14 10" orient="auto" markerUnits="userSpaceOnUse" stroke-dasharray="0,0"><path id="SvgjsPath1045" d="M0,0 L14,5 L0,10 L0,0" fill="#323232" stroke="#323232" stroke-width="1"></path></marker><marker id="SvgjsMarker1052" markerWidth="14" markerHeight="10" refX="10" refY="5" viewBox="0 0 14 10" orient="auto" markerUnits="userSpaceOnUse" stroke-dasharray="0,0"><path id="SvgjsPath1053" d="M0,0 L14,5 L0,10 L0,0" fill="#323232" stroke="#323232" stroke-width="1"></path></marker><marker id="SvgjsMarker1060" markerWidth="14" markerHeight="10" refX="10" refY="5" viewBox="0 0 14 10" orient="auto" markerUnits="userSpaceOnUse" stroke-dasharray="0,0"><path id="SvgjsPath1061" d="M0,0 L14,5 L0,10 L0,0" fill="#323232" stroke="#323232" stroke-width="1"></path></marker></defs><g id="SvgjsG1008" transform="translate(136.5,25)"><path id="SvgjsPath1009" d="M 0 11.666666666666666L 0 68C 0 84 70 84 70 68L 70 11.666666666666666C 70 -3.1818181818181817 0 -3.1818181818181817 0 11.666666666666666ZM 0 11.666666666666666C 0 26.25 70 26.25 70 11.666666666666666C 70 26.25 0 26.25 0 11.666666666666666" stroke="rgba(33,41,48,1)" stroke-width="2" fill-opacity="1" fill="#fadcdb"></path><g id="SvgjsG1010"><text id="SvgjsText1011" font-family="微软雅黑" text-anchor="middle" font-size="13px" width="70px" fill="#323232" font-weight="400" align="middle" lineHeight="125%" anchor="middle" family="微软雅黑" size="13px" weight="400" font-style="" opacity="1" y="4.875" transform="rotate(0)"><tspan id="SvgjsTspan1012" dy="16" x="35"><tspan id="SvgjsTspan1013" style="text-decoration:;"> </tspan></tspan><tspan id="SvgjsTspan1014" dy="16" x="35"><tspan id="SvgjsTspan1015" style="text-decoration:;"> </tspan></tspan><tspan id="SvgjsTspan1016" dy="16" x="35"><tspan id="SvgjsTspan1017" style="text-decoration:;font-weight: bold;font-style: italic;">生产分支</tspan></tspan></text></g></g><g id="SvgjsG1018" transform="translate(348.5,25)"><path id="SvgjsPath1019" d="M 0 11.666666666666666L 0 68C 0 84 70 84 70 68L 70 11.666666666666666C 70 -3.1818181818181817 0 -3.1818181818181817 0 11.666666666666666ZM 0 11.666666666666666C 0 26.25 70 26.25 70 11.666666666666666C 70 26.25 0 26.25 0 11.666666666666666" stroke="rgba(33,41,48,1)" stroke-width="2" fill-opacity="1" fill="#e5f6da"></path><g id="SvgjsG1020"><text id="SvgjsText1021" font-family="微软雅黑" text-anchor="middle" font-size="13px" width="70px" fill="#323232" font-weight="400" align="middle" lineHeight="125%" anchor="middle" family="微软雅黑" size="13px" weight="400" font-style="" opacity="1" y="4.875" transform="rotate(0)"><tspan id="SvgjsTspan1022" dy="16" x="35"><tspan id="SvgjsTspan1023" style="text-decoration:;"> </tspan></tspan><tspan id="SvgjsTspan1024" dy="16" x="35"><tspan id="SvgjsTspan1025" style="text-decoration:;"> </tspan></tspan><tspan id="SvgjsTspan1026" dy="16" x="35"><tspan id="SvgjsTspan1027" style="text-decoration:;font-weight: bold;font-style: italic;">test分支</tspan></tspan></text></g></g><g id="SvgjsG1028" transform="translate(250.5,218)"><path id="SvgjsPath1029" d="M 0 11.666666666666666L 0 68C 0 84 70 84 70 68L 70 11.666666666666666C 70 -3.1818181818181817 0 -3.1818181818181817 0 11.666666666666666ZM 0 11.666666666666666C 0 26.25 70 26.25 70 11.666666666666666C 70 26.25 0 26.25 0 11.666666666666666" stroke="rgba(33,41,48,1)" stroke-width="2" fill-opacity="1" fill="#fbeada"></path><g id="SvgjsG1030"><text id="SvgjsText1031" font-family="微软雅黑" text-anchor="middle" font-size="13px" width="70px" fill="#323232" font-weight="400" align="middle" lineHeight="125%" anchor="middle" family="微软雅黑" size="13px" weight="400" font-style="" opacity="1" y="-11.125" transform="rotate(0)"><tspan id="SvgjsTspan1032" dy="16" x="35"><tspan id="SvgjsTspan1033" style="text-decoration:;"> </tspan></tspan><tspan id="SvgjsTspan1034" dy="16" x="35"><tspan id="SvgjsTspan1035" style="text-decoration:;"> </tspan></tspan><tspan id="SvgjsTspan1036" dy="16" x="35"><tspan id="SvgjsTspan1037" style="text-decoration:;font-weight: bold;font-style: italic;">feat分支</tspan></tspan><tspan id="SvgjsTspan1038" dy="16" x="35"><tspan id="SvgjsTspan1039" style="text-decoration:;font-weight: bold;font-style: italic;">（基于生</tspan></tspan><tspan id="SvgjsTspan1040" dy="16" x="35"><tspan id="SvgjsTspan1041" style="text-decoration:;font-weight: bold;font-style: italic;">产）</tspan></tspan></text></g></g><g id="SvgjsG1042"><path id="SvgjsPath1043" d="M347.5 65L277.5 65L277.5 65L210.10000000000002 65" stroke="#323232" stroke-width="2" fill="none" marker-end="url(#SvgjsMarker1044)"></path><rect id="SvgjsRect1046" width="39" height="16" x="262.2028169014084" y="57" fill="#ffffff"></rect><text id="SvgjsText1047" font-family="微软雅黑" text-anchor="middle" font-size="13px" width="39px" fill="#323232" font-weight="400" align="top" lineHeight="16px" anchor="middle" family="微软雅黑" size="13px" weight="400" font-style="" opacity="1" y="54.375" transform="rotate(0)"><tspan id="SvgjsTspan1048" dy="16" x="281.7028169014084"><tspan id="SvgjsTspan1049" style="text-decoration:;">无交流</tspan></tspan></text></g><g id="SvgjsG1050"><path id="SvgjsPath1051" d="M321.5 258L383.5 258L383.5 108.60000000000002" stroke="#323232" stroke-width="2" fill="none" marker-end="url(#SvgjsMarker1052)"></path><rect id="SvgjsRect1054" width="154" height="16" x="306.5" y="156.63373493975905" fill="#ffffff"></rect><text id="SvgjsText1055" font-family="微软雅黑" text-anchor="middle" font-size="13px" width="154px" fill="#323232" font-weight="400" align="top" lineHeight="16px" anchor="middle" family="微软雅黑" size="13px" weight="400" font-style="" opacity="1" y="154.00873493975905" transform="rotate(0)"><tspan id="SvgjsTspan1056" dy="16" x="383.5"><tspan id="SvgjsTspan1057" style="text-decoration:;">①先merge到test池内测试</tspan></tspan></text></g><g id="SvgjsG1058"><path id="SvgjsPath1059" d="M249.5 258L171.5 258L171.5 108.60000000000002" stroke="#323232" stroke-width="2" fill="none" marker-end="url(#SvgjsMarker1060)"></path><rect id="SvgjsRect1062" width="313" height="16" x="15" y="189.62924528301886" fill="#ffffff"></rect><text id="SvgjsText1063" font-family="微软雅黑" text-anchor="middle" font-size="13px" width="313px" fill="#323232" font-weight="400" align="top" lineHeight="16px" anchor="middle" family="微软雅黑" size="13px" weight="400" font-style="" opacity="1" y="187.00424528301886" transform="rotate(0)"><tspan id="SvgjsTspan1064" dy="16" x="171.5"><tspan id="SvgjsTspan1065" style="text-decoration:;">②没问题再merge到过渡分支（生产分支非发版不动）</tspan></tspan></text></g></svg>