<svg xmlns="http://www.w3.org/2000/svg" xmlns:xlink="http://www.w3.org/1999/xlink" viewBox="0 0 4000 3000"><defs><style>.cls-1,.cls-10,.cls-9{fill:none;}.cls-2{fill:#49acd9;}.cls-26,.cls-3{fill:#fdfffe;}.cls-10,.cls-11,.cls-3,.cls-9{stroke:#3f3c3f;stroke-linecap:round;stroke-linejoin:round;stroke-width:7.2848px;}.cls-4{fill:#49acdc;}.cls-5{fill:#fdb80b;}.cls-6{fill:#4982c0;}.cls-7{fill:#ffbed0;}.cls-8{fill:#3f3c3f;}.cls-10{clip-path:url(#clip-path);}.cls-11,.cls-20,.cls-50{fill:#fff;}.cls-12{isolation:isolate;}.cls-13{clip-path:url(#clip-path-2);}.cls-14{fill:#f2f7fe;}.cls-15{clip-path:url(#clip-path-3);}.cls-16{clip-path:url(#clip-path-4);}.cls-17{fill:#2b8acd;}.cls-18{clip-path:url(#clip-path-5);}.cls-19{clip-path:url(#clip-path-6);}.cls-21{clip-path:url(#clip-path-7);}.cls-22{fill:#ffd0af;}.cls-23{fill:#8a8a6e;}.cls-24{fill:#ac7f8d;}.cls-25{clip-path:url(#clip-path-8);}.cls-27{mix-blend-mode:soft-light;}.cls-28{clip-path:url(#clip-path-9);}.cls-29{clip-path:url(#clip-path-10);}.cls-30{clip-path:url(#clip-path-11);}.cls-31{fill:#fc9905;}.cls-32{clip-path:url(#clip-path-12);}.cls-33{clip-path:url(#clip-path-13);}.cls-34{clip-path:url(#clip-path-14);}.cls-35{fill:#3070a0;}.cls-36{clip-path:url(#clip-path-15);}.cls-37{clip-path:url(#clip-path-16);}.cls-38{clip-path:url(#clip-path-17);}.cls-39{clip-path:url(#clip-path-18);}.cls-40{clip-path:url(#clip-path-19);}.cls-41{clip-path:url(#clip-path-20);}.cls-42{clip-path:url(#clip-path-21);}.cls-43{clip-path:url(#clip-path-22);}.cls-44{clip-path:url(#clip-path-23);}.cls-45{fill:#ffa1c2;}.cls-46{clip-path:url(#clip-path-24);}.cls-47{clip-path:url(#clip-path-25);}.cls-48{clip-path:url(#clip-path-26);}.cls-49{clip-path:url(#clip-path-27);}.cls-50{opacity:0.25;}</style><clipPath id="clip-path"><path class="cls-9" d="M678.4632,2388.155s78.7738,57.0149,214.5882,122.9031l142.0669-65.751-83.3464,93.0916q32.0937,14.33,67.3821,28.6612"/></clipPath><clipPath id="clip-path-2"><rect class="cls-1" width="4000" height="3000"/></clipPath><clipPath id="clip-path-3"><path class="cls-2" d="M2210.1727,2467.2718l-114.2066-167.8461c-66.6189-19.6979-138.05-38.68-212.711-55.4066l99.111,141.99L1822.3605,2231.057c-78.5784-15.8709-160.0864-28.9177-242.7647-37.4537l79.2561,113.5457L1537.548,2189.6764c-102.3559-8.5851-206.0136-9.9058-307.6443-.7856l113.9748,163.2849-163.1447-157.9918c-116.4183,14.5133-229.4057,43.59-333.8513,92.0524l63.3181,90.7128-83.6457-81.0038a874.0037,874.0037,0,0,0-148.0917,92.21s78.7738,57.0149,214.5882,122.9031l142.0669-65.751-83.3464,93.0916a2039.2554,2039.2554,0,0,0,254.5675,93.9843l95.09-101.4264-51.0186,113.8374c49.367,13.2957,101.18,25.1624,155.1431,34.9274l62.5607-66.7293-32.2441,71.9452a1750.2582,1750.2582,0,0,0,222.4479,22.1187l143.9585-138.419-84.285,139.4113a1624.168,1624.168,0,0,0,228.8759-16.3827l110.49-106.2383-59.2713,98.0374c180.4577-31.9055,369.7535-97.4071,561.3167-211.1982,0,0-162.4728-78.4334-400.7373-153.672Z"/></clipPath><clipPath id="clip-path-4"><path class="cls-2" d="M1046.2175,1720.8033,678.4632,2388.155s1155.5632,196.72,1880.94,84.1115,92.8021-622.2522,92.8021-622.2522L1291.1487,1914.431l-189.3927,42.5828"/></clipPath><clipPath id="clip-path-5"><path class="cls-10" d="M1250.4107,2644.794c49.367,13.2957,101.18,25.1624,155.1431,34.9274l62.5607-66.7293-32.2441,71.9452c55.655,9.1078,113.4635,15.9122,173.1128,19.7014"/></clipPath><clipPath id="clip-path-6"><path class="cls-9" d="M1046.2175,1720.8033,678.4632,2388.155s1155.5632,196.72,1880.94,84.1115,92.8021-622.2522,92.8021-622.2522L1291.1487,1914.431l-189.3927,42.5828"/></clipPath><clipPath id="clip-path-7"><path class="cls-11" d="M3106.127,923.144c7.1826-39.7253,8.0889-78.1352,1.563-114.3991-88.8876-49-174.5878-87.4392-256.82-116.735-182.8407,97.042-166.3635,302.4809-222.87,276.8059-64.1921-29.1666,63.5111-203.298,187.2728-289.0179q-55.1686-18.1017-108.1142-30.7378C2555.21,749.2392,2530.46,986.1958,2456.2591,1019.7479c-84.4279,38.1757-119.2248-112.5393,220.4113-380.9793-47.1322-8.8369-125.3966-17.8028-169.5427-20.7147-283.4525,99.6968-217.27,423.0139-253.4812,426.7056-38.7349,3.9474-23.0052-329.356,229.1083-428.0248-74.517-3.2182-144.5038,1.6053-209.588,12.93-254.884,169.9219-124.9616,465.6662-165.7932,479.2139-42.3667,14.0579-186.935-269.1338,100.3575-465.3041-129.0083,32.6723-235.9168,91.4753-317.2031,162.2814-80.3637,182.16,178.1717,343.7355,103.4157,365.2693-90.5614,26.0864-155.7929-197.0224-153.1942-317.0617-45.275,48.8635-79.4494,101.449-101.5571,153.9384.0591,151.2594,149.9823,142.3871,149.5344,226.0965-.0847,15.8393-114.5649-16.7672-178.5879-71.3606,8.0546,119.5392,95.8282,214.6644,278.0752,227.1752-47.2844,337.3648,142.6011,388.1792,379.1062,295.9026-113.0085-89.59-203.9464-221.6478-165.1368-227.6893,42.2467-6.5782,74.1432,143.7747,204.8754,211.0335,71.045-31.7392,145.2149-75.1942,217.6481-126.7378-170.7928-32.6571-322.6945-145.6547-292.6216-157.0553,34.0371-12.9046,100.432,97.1762,336.3031,124.8223,142.0568-108.545,273.31-245.9693,355.6343-383.543-143.4979,59.9259-549.7832,121.5433-442.5713,18.6131C2635.134,1093.7217,2721.8222,1267.63,3044.26,1091c23.8579-44.5463,42.24-88.8482,53.8054-131.9247-116.0253,33.1281-284.5151,90.66-276.8738,40.6634C2835.7733,904.3423,2949.5235,992.23,3106.127,923.144Zm-956.4744,300.7768c-2.7739,16.3456-12.6077,28.3564-21.9653,26.8257s-14.6936-16.0215-11.9184-32.37c2.7739-16.3444,12.6077-28.3552,21.9653-26.8245S2152.4266,1207.5752,2149.6526,1223.9208Zm77.3248-403.18-10.176,50.5739A96.8146,96.8146,0,0,1,2226.9774,820.74Zm25.472,326.7316c-2.7739,16.3469-14.4356,28.0576-26.0473,26.1585s-18.7769-16.69-16.0029-33.0368,14.4355-28.0564,26.0473-26.1574S2255.2234,1131.1263,2252.4494,1147.472Zm187.3589,52.9932c-16.61,0-30.0429-6.5682-30-14.6694.0433-8.1039,13.5463-14.6707,30.1565-14.6707s30.0415,6.5668,29.9982,14.6707C2469.92,1193.897,2456.42,1200.4652,2439.8083,1200.4652Zm137.56,168.7583a99.6662,99.6662,0,0,1-48.9156-20.7577Zm223.594-540.654a116.4075,116.4075,0,0,1,38.9734-41.18Z"/></clipPath><clipPath id="clip-path-8"><path class="cls-7" d="M1910.7334,331.441c2.6856,80.0542-127.0026,76.46-137.3088-.004C1770.7392,251.3867,1900.4275,254.981,1910.7334,331.441Z"/></clipPath><clipPath id="clip-path-9"><path class="cls-3" d="M1644.8031,529.389c-3.734-.8521-226.6366,126.97-208.5915,108.6314-60.3408-80.5045-188.6392-198.011-193.818-282.4447,1.954-17.171-48.0362-30.8613-57.2632-35.6149-3.2921,13.5241,1.3117,32.7955,15.9135,39.6263-56.322,43.4059-15.0044,61.8217,14.8677,93.5609,4.0646,7.8056,57.8821,111.9307,75.62,146.1893l5.0934,9.8472c-3.939-5.4878,74.5147,112.3037,76.098,114.836,116.7836,29.14,175.31-10.5359,277.1487-41.7081C1670.07,705.2844,1640.08,541.59,1644.8031,529.389Z"/></clipPath><clipPath id="clip-path-10"><path class="cls-4" d="M1224.7637,455.9909c-23.8617,10.2417-32.9655-52.2194-61.5254-113.9594-24.7905-67.0656-62.2825-126.8845-12.5864-100.4559C1153.22,265.2141,1249.5688,450.4968,1224.7637,455.9909Z"/></clipPath><clipPath id="clip-path-11"><path class="cls-5" d="M1299.9568,465.04c-.6275-.9271-68.5428,123.3747-54.1438,122.2606,22.7739,27.9506,136.2543,213.51,141.9675,204.5891,67.946,29.5561,74.0061-6.9942,170.0762-43.0575,59.9685-17.5486,67.4832-54.7252,98.5122-102.2474.5523.405-25.2988-102.0457-25.385-103.7374C1358.8689,637.39,1477.95,653.92,1299.9568,465.04Z"/></clipPath><clipPath id="clip-path-12"><path class="cls-3" d="M653.9778,1330.6143l381.4551-359.8026c10.8381-13.2027,22.2489-21.389,41.3217-21.0907l442.0357-14.4,81.6221,197.1144-544.499-27.4267L738.9273,1378.63Z"/></clipPath><clipPath id="clip-path-13"><path class="cls-3" d="M977.7034,1101.0311c289.8-500.0207,243.4639-655.2285,556.5677-345.8443,6.0511,5.4425,8.3581,7.5206,10.501,9.4509-4.7148-4.4161,97.2678,112.709,84.6578,103.1368-12.5365,13.6229-146.2634,158.9481-146.8883,159.6246l-163.104-237.5285C1060.0035,1132.0571,1134.66,1093.5487,977.7034,1101.0311Z"/></clipPath><clipPath id="clip-path-14"><path class="cls-6" d="M1015.5766,927.451s99.6468,90.8441,159.3075,88.5839l144.5535-226.1643c22.01,30.5485,177.2122,284.9791,201.2911,303.1159,197.644,171.0546,406.6816,4.5007,344.5921-236.5215,26.9238-25.6882-218.15-63.7308-276.6406-85.0249-.6134,11.9312-180.48-150.829-209.1969-170.4873-117.3352-81.0774-200.8893,3.46-249.3935,89.5231C1073.4822,781.6385,1016.0033,926.7639,1015.5766,927.451Z"/></clipPath><clipPath id="clip-path-15"><path class="cls-6" d="M1636.5081,770.419c-51.6474,139.9069-19.6215,176.7383-144.2956,154.5514-170.6813-13.5393-387.71-47.981-428.41-35.0243C975.3438,925.3353,955.7883,992.3386,818.7737,1125.29c-59.1051,67.7659-93.2592,87.2924-75.5095,94.623,16.7606,21.8935,155.4621,143.9764,167.2071,122.7056,50.591-48.2669,234.6629-250.7354,229.5189-233.1821,35.09,3.5588,301.3112,30.56,455.1026,46.157,137.1342,25.5958,284.9746,10.7967,282.9583-163.4835-2.4774-28.9021-4.5156-126.8581-7.1517-115.4723C1852.4735,868.2866,1637.3421,770.7948,1636.5081,770.419Z"/></clipPath><clipPath id="clip-path-16"><path class="cls-5" d="M1670.8245,443.0892c286.2942-146.07,157.025,299.1606,236.8334,473.4994C1685.4037,957.0909,1521.202,775.89,1521.202,775.89l80.7487-123.25S1505.1964,565.5247,1670.8245,443.0892Z"/></clipPath><clipPath id="clip-path-17"><path class="cls-3" d="M1636.5077,770.4189c-.3054-.2339-212.5571-309.3872-226.5067-319.8114-35.4979-14.941-157.7978-57.2716-144.263-36.8539-8.7676,4.4636,37.6121,21.4391,46.5806,28.4078,6.3039,61.8184,27.0917,70.4712,78.7414,83.2774,6.9155-4.0908,136.4181,322.5518,140.97,324.7875Z"/></clipPath><clipPath id="clip-path-18"><path class="cls-3" d="M3376.6715,2122.4012c-17.8809-50.1152-87.3-104.1109-147.0483-159.9118,11.1783-25.5073-109.4,56.5983-122.7492,58.4l185.4622,142.9025"/></clipPath><clipPath id="clip-path-19"><path class="cls-3" d="M2978.9326,2558.5827c23.4855-54.0819,13.3357-134.6112,10.56-226.5447,18.8972-17.6413-115.7143-32.7422-132.0648-40.5006l29.9228,242.5412"/></clipPath><clipPath id="clip-path-20"><path class="cls-5" d="M3116.1647,2101.1871c54.0029,0,118.5687-141.7243,118.5687-141.7243L3000.6658,1687.6l-178.876,99.579Z"/></clipPath><clipPath id="clip-path-21"><path class="cls-5" d="M2780.3554,2337.841c-1.755,6.9285,234.9147,30.5145,220.5215-16.1713-5.7056-74.223-46.5836-605.9846-46.62-606.4575-.3013.3909-392.7521,10.031-403.9007,10.6006-3.6484-24.17-65.4594-61.7437-89.5805-71.7606L2356.8779,1963.81l426.2655-54.5062Z"/></clipPath><clipPath id="clip-path-22"><path class="cls-5" d="M2321.6881,1640.7518c-14.4561,34.4122-77.5822,151.224-83.7526,186.0885-27.1236,140.4527,116.0677,165.4989,199.1923,163.4418,90.2743-2.234,639.0954-214.3679,639.4671-214.4927-52.6049-64.9954-118.9813-149.6306-175.66-125.149-38.57,7.8308-407.7108,82.87-408.3435,82.9981l58.2927-85.67Z"/></clipPath><clipPath id="clip-path-23"><path class="cls-7" d="M2615.4106,1570.4038c91.4435,7.7473,165.1076-37.7529,174.0394-45.79,7.7292,11.5576-14.3347-93.4805-23.6715-169.8211-3.621-107.746-53.7148-84.5774-127.3334-86.0528C2637.6707,1278.9829,2615.46,1569.7456,2615.4106,1570.4038Z"/></clipPath><clipPath id="clip-path-24"><path class="cls-8" d="M2686.5919,1254.3029c-18.5886,122.6308-306.4859,112.6738-305.1174-.0032C2400.0622,1131.6721,2687.96,1141.629,2686.5919,1254.3029Z"/></clipPath><clipPath id="clip-path-25"><path class="cls-7" d="M2227.58,1706.9193c7.4431-7.415,373.911,14.2711,347.2793-8.0852,13.7341-32.2068,56.1925-135.9472,53.9679-128.5256,123.8922-43.8378,105.3378-143.3157,84.7153-294.0331,33.2069-22.6075-273.3277,1.1413-279.2706-6.01C2434.4237,1270.1233,2227.706,1706.5477,2227.58,1706.9193Z"/></clipPath><clipPath id="clip-path-26"><path class="cls-3" d="M2539.4947,1273.7217c71.893-104.0043,55.2-100.6255,128.8716-71.218-18.2826,32.5957-29.8149,55.5789-38.2782,71.218"/></clipPath><clipPath id="clip-path-27"><path class="cls-6" d="M2925.84,1735.2629H2557.8729c191.7872-270.61,97.5065-244.9683,334.4145-243.8292,284.6884-2.93,202.6888-21.2939,71.59,200.7374C2937.1362,1725.3736,2955.2277,1721.82,2925.84,1735.2629Z"/></clipPath></defs><title>商务1-10</title><g class="cls-12"><g id="图层_1" data-name="图层 1"><g class="cls-13"><rect class="cls-1" x="-298" y="-369" width="4596" height="3726"/><path class="cls-14" d="M1722.7573,2087.776c129.6983-104.3935,177.5447-252.24,115.4144-356.634,24.4408-131.975-63.6574-236.5191-212.5125-252.1816-95.14-82.2406-267.5739-82.2406-415.944,0-158.9926,15.6625-314.76,120.2066-375.7352,252.1816-129.7021,104.3936-177.5485,252.24-115.4144,356.634-24.4446,131.9751,63.6574,236.5192,212.5125,252.1816,95.14,82.2407,267.5739,82.2407,415.944,0C1506.0147,2324.2952,1661.7782,2219.7511,1722.7573,2087.776Z"/><path class="cls-2" d="M2210.1727,2467.2718l-114.2066-167.8461c-66.6189-19.6979-138.05-38.68-212.711-55.4066l99.111,141.99L1822.3605,2231.057c-78.5784-15.8709-160.0864-28.9177-242.7647-37.4537l79.2561,113.5457L1537.548,2189.6764c-102.3559-8.5851-206.0136-9.9058-307.6443-.7856l113.9748,163.2849-163.1447-157.9918c-116.4183,14.5133-229.4057,43.59-333.8513,92.0524l63.3181,90.7128-83.6457-81.0038a874.0037,874.0037,0,0,0-148.0917,92.21s78.7738,57.0149,214.5882,122.9031l142.0669-65.751-83.3464,93.0916a2039.2554,2039.2554,0,0,0,254.5675,93.9843l95.09-101.4264-51.0186,113.8374c49.367,13.2957,101.18,25.1624,155.1431,34.9274l62.5607-66.7293-32.2441,71.9452a1750.2582,1750.2582,0,0,0,222.4479,22.1187l143.9585-138.419-84.285,139.4113a1624.168,1624.168,0,0,0,228.8759-16.3827l110.49-106.2383-59.2713,98.0374c180.4577-31.9055,369.7535-97.4071,561.3167-211.1982,0,0-162.4728-78.4334-400.7373-153.672Z"/><g class="cls-15"><path class="cls-2" d="M1046.2175,1720.8033,678.4632,2388.155s1155.5632,196.72,1880.94,84.1115,92.8021-622.2522,92.8021-622.2522L1291.1487,1914.431l-189.3927,42.5828"/><g class="cls-16"><path class="cls-17" d="M2285.6894,2638.0541c535.182-48.521-347.7383-383.067-115.8047-385.49s953.1708,147.5488,953.1708,147.5488l63.8626,230.7242-733.8874,108.37"/></g></g><path class="cls-9" d="M1835.0376,2400.2733a268.2892,268.2892,0,0,0-38.4625-63.47"/><path class="cls-9" d="M1386.2692,2570.542l13.567-8.0292"/><path class="cls-9" d="M1119.6233,2356.6634a102.8059,102.8059,0,0,0-43.3156-45.17"/><g class="cls-18"><g class="cls-19"><path class="cls-17" d="M2285.6894,2638.0541c535.182-48.521-347.7383-383.067-115.8047-385.49s953.1708,147.5488,953.1708,147.5488l63.8626,230.7242-733.8874,108.37"/></g><path class="cls-9" d="M1046.2175,1720.8033,678.4632,2388.155s1155.5632,196.72,1880.94,84.1115,92.8021-622.2522,92.8021-622.2522L1291.1487,1914.431l-189.3927,42.5828"/></g><path class="cls-9" d="M678.4632,2388.155s78.7738,57.0149,214.5882,122.9031l142.0669-65.751-83.3464,93.0916q32.0937,14.33,67.3821,28.6612"/><path class="cls-9" d="M1250.4107,2644.794c49.367,13.2957,101.18,25.1624,155.1431,34.9274l62.5607-66.7293-32.2441,71.9452c55.655,9.1078,113.4635,15.9122,173.1128,19.7014"/><path class="cls-9" d="M1835.0376,2400.2733a268.2892,268.2892,0,0,0-38.4625-63.47"/><path class="cls-9" d="M1386.2692,2570.542l13.567-8.0292"/><path class="cls-9" d="M1119.6233,2356.6634a102.8059,102.8059,0,0,0-43.3156-45.17"/><path class="cls-9" d="M1822.3605,2231.057c-78.5784-15.8709-160.0864-28.9177-242.7647-37.4537"/><path class="cls-20" d="M3106.127,923.144c7.1826-39.7253,8.0889-78.1352,1.563-114.3991-88.8876-49-174.5878-87.4392-256.82-116.735-182.8407,97.042-166.3635,302.4809-222.87,276.8059-64.1921-29.1666,63.5111-203.298,187.2728-289.0179q-55.1686-18.1017-108.1142-30.7378C2555.21,749.2392,2530.46,986.1958,2456.2591,1019.7479c-84.4279,38.1757-119.2248-112.5393,220.4113-380.9793-47.1322-8.8369-125.3966-17.8028-169.5427-20.7147-283.4525,99.6968-217.27,423.0139-253.4812,426.7056-38.7349,3.9474-23.0052-329.356,229.1083-428.0248-74.517-3.2182-144.5038,1.6053-209.588,12.93-254.884,169.9219-124.9616,465.6662-165.7932,479.2139-42.3667,14.0579-186.935-269.1338,100.3575-465.3041-129.0083,32.6723-235.9168,91.4753-317.2031,162.2814-80.3637,182.16,178.1717,343.7355,103.4157,365.2693-90.5614,26.0864-155.7929-197.0224-153.1942-317.0617-45.275,48.8635-79.4494,101.449-101.5571,153.9384.0591,151.2594,149.9823,142.3871,149.5344,226.0965-.0847,15.8393-114.5649-16.7672-178.5879-71.3606,8.0546,119.5392,95.8282,214.6644,278.0752,227.1752-47.2844,337.3648,142.6011,388.1792,379.1062,295.9026-113.0085-89.59-203.9464-221.6478-165.1368-227.6893,42.2467-6.5782,74.1432,143.7747,204.8754,211.0335,71.045-31.7392,145.2149-75.1942,217.6481-126.7378-170.7928-32.6571-322.6945-145.6547-292.6216-157.0553,34.0371-12.9046,100.432,97.1762,336.3031,124.8223,142.0568-108.545,273.31-245.9693,355.6343-383.543-143.4979,59.9259-549.7832,121.5433-442.5713,18.6131C2635.134,1093.7217,2721.8222,1267.63,3044.26,1091c23.8579-44.5463,42.24-88.8482,53.8054-131.9247-116.0253,33.1281-284.5151,90.66-276.8738,40.6634C2835.7733,904.3423,2949.5235,992.23,3106.127,923.144Zm-956.4744,300.7768c-2.7739,16.3456-12.6077,28.3564-21.9653,26.8257s-14.6936-16.0215-11.9184-32.37c2.7739-16.3444,12.6077-28.3552,21.9653-26.8245S2152.4266,1207.5752,2149.6526,1223.9208Zm77.3248-403.18-10.176,50.5739A96.8146,96.8146,0,0,1,2226.9774,820.74Zm25.472,326.7316c-2.7739,16.3469-14.4356,28.0576-26.0473,26.1585s-18.7769-16.69-16.0029-33.0368,14.4355-28.0564,26.0473-26.1574S2255.2234,1131.1263,2252.4494,1147.472Zm187.3589,52.9932c-16.61,0-30.0429-6.5682-30-14.6694.0433-8.1039,13.5463-14.6707,30.1565-14.6707s30.0415,6.5668,29.9982,14.6707C2469.92,1193.897,2456.42,1200.4652,2439.8083,1200.4652Zm137.56,168.7583a99.6662,99.6662,0,0,1-48.9156-20.7577Zm223.594-540.654a116.4075,116.4075,0,0,1,38.9734-41.18Z"/><g class="cls-21"><path class="cls-17" d="M1904.1331,1474.03c92.4267,239.4507,563.1165,219.01,563.1165,219.01l-261.475,207.3293"/><polyline class="cls-17" points="2512.095 592.151 3107.69 808.745 2840.981 592.151"/></g><path class="cls-9" d="M3106.127,923.144c7.1826-39.7253,8.0889-78.1352,1.563-114.3991-88.8876-49-174.5878-87.4392-256.82-116.735-182.8407,97.042-166.3635,302.4809-222.87,276.8059-64.1921-29.1666,63.5111-203.298,187.2728-289.0179q-55.1686-18.1017-108.1142-30.7378C2555.21,749.2392,2530.46,986.1958,2456.2591,1019.7479c-84.4279,38.1757-119.2248-112.5393,220.4113-380.9793-47.1322-8.8369-125.3966-17.8028-169.5427-20.7147-283.4525,99.6968-217.27,423.0139-253.4812,426.7056-38.7349,3.9474-23.0052-329.356,229.1083-428.0248-74.517-3.2182-144.5038,1.6053-209.588,12.93-254.884,169.9219-124.9616,465.6662-165.7932,479.2139-42.3667,14.0579-186.935-269.1338,100.3575-465.3041-129.0083,32.6723-235.9168,91.4753-317.2031,162.2814-80.3637,182.16,178.1717,343.7355,103.4157,365.2693-90.5614,26.0864-155.7929-197.0224-153.1942-317.0617-45.275,48.8635-79.4494,101.449-101.5571,153.9384.0591,151.2594,149.9823,142.3871,149.5344,226.0965-.0847,15.8393-114.5649-16.7672-178.5879-71.3606,8.0546,119.5392,95.8282,214.6644,278.0752,227.1752-47.2844,337.3648,142.6011,388.1792,379.1062,295.9026-113.0085-89.59-203.9464-221.6478-165.1368-227.6893,42.2467-6.5782,74.1432,143.7747,204.8754,211.0335,71.045-31.7392,145.2149-75.1942,217.6481-126.7378-170.7928-32.6571-322.6945-145.6547-292.6216-157.0553,34.0371-12.9046,100.432,97.1762,336.3031,124.8223,142.0568-108.545,273.31-245.9693,355.6343-383.543-143.4979,59.9259-549.7832,121.5433-442.5713,18.6131C2635.134,1093.7217,2721.8222,1267.63,3044.26,1091c23.8579-44.5463,42.24-88.8482,53.8054-131.9247-116.0253,33.1281-284.5151,90.66-276.8738,40.6634C2835.7733,904.3423,2949.5235,992.23,3106.127,923.144Zm-956.4744,300.7768c-2.7739,16.3456-12.6077,28.3564-21.9653,26.8257s-14.6936-16.0215-11.9184-32.37c2.7739-16.3444,12.6077-28.3552,21.9653-26.8245S2152.4266,1207.5752,2149.6526,1223.9208Zm77.3248-403.18-10.176,50.5739A96.8146,96.8146,0,0,1,2226.9774,820.74Zm25.472,326.7316c-2.7739,16.3469-14.4356,28.0576-26.0473,26.1585s-18.7769-16.69-16.0029-33.0368,14.4355-28.0564,26.0473-26.1574S2255.2234,1131.1263,2252.4494,1147.472Zm187.3589,52.9932c-16.61,0-30.0429-6.5682-30-14.6694.0433-8.1039,13.5463-14.6707,30.1565-14.6707s30.0415,6.5668,29.9982,14.6707C2469.92,1193.897,2456.42,1200.4652,2439.8083,1200.4652Zm137.56,168.7583a99.6662,99.6662,0,0,1-48.9156-20.7577Zm223.594-540.654a116.4075,116.4075,0,0,1,38.9734-41.18Z"/><path class="cls-9" d="M1516.2533,1912.2287a28.1188,28.1188,0,0,0,11.227,30.9614"/><path class="cls-20" d="M2892.1632,2866.1512h-1253.73a56.6621,56.6621,0,0,1-56.8043-56.9483l4.2887-801.5934a57.3987,57.3987,0,0,1,57.4137-56.9482h1253.73a56.6621,56.6621,0,0,1,56.8043,56.9482l-4.2887,801.5934A57.3987,57.3987,0,0,1,2892.1632,2866.1512Z"/><path class="cls-9" d="M2892.1632,2866.1512h-1253.73a56.6621,56.6621,0,0,1-56.8043-56.9483l4.2887-801.5934a57.3987,57.3987,0,0,1,57.4137-56.9482h1253.73a56.6621,56.6621,0,0,1,56.8043,56.9482l-4.2887,801.5934A57.3987,57.3987,0,0,1,2892.1632,2866.1512Z"/><path class="cls-20" d="M2255.1985,2421.6362a208.7107,208.7107,0,0,1,112.3773,26.8182L2525.897,2157.035a538.47,538.47,0,0,0-284.1281-65.4549c-242.5351,11.1007-441.312,179.5609-501.1686,401.9l320.0334,84.19A211.661,211.661,0,0,1,2255.1985,2421.6362Z"/><path class="cls-22" d="M2469.3409,2587.1783,2793.853,2517.87c-32.63-156.5346-132.8364-286.8646-267.956-360.835l-158.3212,291.4194A207.9857,207.9857,0,0,1,2469.3409,2587.1783Z"/><path class="cls-23" d="M2253.8992,2157.4894l-71.5555,451.4a4.8359,4.8359,0,0,0,.71,3.3414l68.551,110.1856c2.8163,4.5268,11.1528,4.5267,14.0174,0l69.725-110.1855a4.8669,4.8669,0,0,0,.7459-3.3411l-66.72-451.4C2268.3245,2150.3988,2255.0232,2150.3988,2253.8992,2157.4894Z"/><path class="cls-9" d="M2623.5024,2666.77a180.3219,180.3219,0,0,1-51.4483,46.2833"/><path class="cls-9" d="M2051.5365,2246.0668a58.2137,58.2137,0,0,1-31.4638,27.1713"/><path class="cls-9" d="M1643.331,1950.6613h1253.73a56.6621,56.6621,0,0,1,56.8043,56.9482"/><line class="cls-9" x1="2892.1632" y1="2866.1512" x2="1638.4329" y2="2866.1512"/><path class="cls-9" d="M2241.7689,2091.58c-242.5351,11.1007-441.312,179.5609-501.1686,401.9"/><line class="cls-9" x1="2265.6222" y1="2722.4157" x2="2335.3472" y2="2612.2302"/><path class="cls-3" d="M2358.06,1994.815H1004.5318a100.2074,100.2074,0,0,1-100.4589-100.7136l3.3847-632.6327c.2976-55.6226,45.7571-100.7136,101.5366-100.7136H2362.5219a100.2074,100.2074,0,0,1,100.4589,100.7136l-3.3847,632.6327C2459.2985,1949.724,2413.8391,1994.815,2358.06,1994.815Z"/><path class="cls-24" d="M1206.3545,1398.06h-8.7707c-17.3845,0-31.5443,12.5774-31.6273,28.0925l-2.0111,375.892c-.083,15.5147,13.9422,28.0921,31.3267,28.0921h8.7707c17.3844,0,31.5456-12.5774,31.6286-28.0921l2.0111-375.892C1237.7655,1410.6373,1223.7389,1398.06,1206.3545,1398.06Z"/><path class="cls-24" d="M1373.73,1579.559h-23.7833c-13.2387,0-24.0226,9.5782-24.0858,21.3934l-1.1117,207.791c-.0632,11.8152,10.6181,21.3931,23.8569,21.3931h23.7833c13.2387,0,24.0226-9.5779,24.0858-21.3931l1.1117-207.791C1397.65,1589.1372,1386.9685,1579.559,1373.73,1579.559Z"/><path class="cls-24" d="M1533.408,1551.4044h-21.16c-13.9639,0-25.3371,10.1018-25.4038,22.5631l-1.25,233.6059c-.0666,12.4613,11.1985,22.5631,25.1624,22.5631h21.16c13.9638,0,25.3371-10.1018,25.4037-22.5631l1.25-233.6059C1558.637,1561.5062,1547.3718,1551.4044,1533.408,1551.4044Z"/><path class="cls-24" d="M1686.72,1325.4335h-3.685c-18.79,0-34.0939,13.5935-34.1836,30.3618l-2.3754,443.98c-.09,16.7683,15.0693,30.3615,33.8588,30.3615h3.6849c18.7881,0,34.0926-13.5932,34.1823-30.3615l2.3754-443.98C1720.6666,1339.027,1705.5076,1325.4335,1686.72,1325.4335Z"/><path class="cls-24" d="M1849.7131,1398.06h-8.7707c-17.3845,0-31.5442,12.5774-31.6272,28.0925l-2.0111,375.892c-.0831,15.5147,13.9421,28.0921,31.3266,28.0921h8.7707c17.3845,0,31.5442-12.5774,31.6272-28.0921l2.0111-375.892C1881.1227,1410.6373,1867.0976,1398.06,1849.7131,1398.06Z"/><path class="cls-24" d="M2012.8493,1468.34h-14.1165c-15.9088,0-28.8656,11.509-28.9416,25.7061l-1.6606,310.3841c-.076,14.1974,12.7577,25.7063,28.6665,25.7063h14.1165c15.9088,0,28.8656-11.5089,28.9416-25.7063l1.6606-310.3841C2041.5918,1479.849,2028.7581,1468.34,2012.8493,1468.34Z"/><path class="cls-24" d="M2171.3917,1398.06h-8.7693c-17.3859,0-31.5456,12.5774-31.6286,28.0925l-2.0111,375.892c-.083,15.5147,13.9421,28.0921,31.328,28.0921h8.7693c17.3845,0,31.5457-12.5774,31.6287-28.0921l2.0111-375.892C2202.8028,1410.6373,2188.7762,1398.06,2171.3917,1398.06Z"/><path class="cls-9" d="M1351.1312,1263.8775l-43.0171,39.0892"/><path class="cls-9" d="M2301.4169,1660.7026l-11.7968,15.574"/><line class="cls-9" x1="1008.9942" y1="1160.7551" x2="2362.5219" y2="1160.7551"/><line class="cls-9" x1="1165.9565" y1="1426.1524" x2="1163.9454" y2="1802.0444"/><line class="cls-9" x1="1648.8509" y1="1355.7953" x2="1646.4755" y2="1799.775"/><line class="cls-9" x1="1969.7912" y1="1494.0461" x2="1968.1306" y2="1804.4302"/><path class="cls-5" d="M1133.7553,1046.2215s41.6871,67.4514,30.1373,107.7131c-324.9872,61.8761-370.8454,59.0718-370.8454,59.0718-5.3157-96,209.3871-56.6386,204.4866-173.9207C997.5338,1039.0857,1060.797,1106.6622,1133.7553,1046.2215Z"/><path class="cls-7" d="M1910.7334,331.441c2.6856,80.0542-127.0026,76.46-137.3088-.004C1770.7392,251.3867,1900.4275,254.981,1910.7334,331.441Z"/><g class="cls-25"><path class="cls-5" d="M1776.7754,373.0238c81.5574-64.8222,21.4894-161.6968,2.7476-112.2581"/></g><path class="cls-7" d="M1720.3159,176.5524c-144.33-83.2184-196.4234,48.55-119.4774,126.6467,19.836-13.02,117.0419-76.8112,137.5786-90.29C1751.7051,218.3733,1727.0235,190.2738,1720.3159,176.5524Z"/><path class="cls-26" d="M1651.315,337.2191l19.7613,163.3281c147.6358-102.305,97.0661-84.3463,54.7381-220.9161Z"/><path class="cls-9" d="M1651.315,337.2191l19.7613,163.3281c147.6358-102.305,97.0661-84.3463,54.7381-220.9161Z"/><path class="cls-3" d="M1679.661,367.3349c-133.3087,47.0023-134.4629-212.9819-8.5119-203.2012l49.1668,12.4187,31.0956,71.335-4.9795,60.8364"/><path class="cls-7" d="M1752.9389,302.2915c-65.3553,10.6262-140.5687-116.37-106.05-166.0439,14.38-14.9976,142.23,49.9552,156.401,50.3894.0425-.33,43.6714,111.016-44.1016,186.3868C1758.3548,360.1881,1725.3064,304.4716,1752.9389,302.2915Z"/><path class="cls-3" d="M1718.55,337.9953c92.43,30.2705,86.0667-106.9523-14.2707-48.1395"/><g class="cls-27"><path class="cls-8" d="M1732.6786,297.8481c15.3146,4.7551,14.19,21.5978,19.1016,18.5357C1756.5265,313.4253,1776.0994,280.8857,1732.6786,297.8481Z"/></g><path class="cls-26" d="M1644.8031,529.389c-3.734-.8521-226.6366,126.97-208.5915,108.6314-60.3408-80.5045-188.6392-198.011-193.818-282.4447,1.954-17.171-48.0362-30.8613-57.2632-35.6149-3.2921,13.5241,1.3117,32.7955,15.9135,39.6263-56.322,43.4059-15.0044,61.8217,14.8677,93.5609,4.0646,7.8056,57.8821,111.9307,75.62,146.1893l5.0934,9.8472c-3.939-5.4878,74.5147,112.3037,76.098,114.836,116.7836,29.14,175.31-10.5359,277.1487-41.7081C1670.07,705.2844,1640.08,541.59,1644.8031,529.389Z"/><g class="cls-28"><path class="cls-8" d="M1221.617,540.6952c44.607,5.0275,55.1682-73.4811,85.3608-70.49,12.8586,95.9723-42.2306,78.4125-76.1872,75.5231"/></g><path class="cls-9" d="M1644.8031,529.389c-3.734-.8521-226.6366,126.97-208.5915,108.6314-60.3408-80.5045-188.6392-198.011-193.818-282.4447,1.954-17.171-48.0362-30.8613-57.2632-35.6149-3.2921,13.5241,1.3117,32.7955,15.9135,39.6263-56.322,43.4059-15.0044,61.8217,14.8677,93.5609,4.0646,7.8056,57.8821,111.9307,75.62,146.1893l5.0934,9.8472c-3.939-5.4878,74.5147,112.3037,76.098,114.836,116.7836,29.14,175.31-10.5359,277.1487-41.7081C1670.07,705.2844,1640.08,541.59,1644.8031,529.389Z"/><path class="cls-4" d="M1224.7637,455.9909c-23.8617,10.2417-32.9655-52.2194-61.5254-113.9594-24.7905-67.0656-62.2825-126.8845-12.5864-100.4559C1153.22,265.2141,1249.5688,450.4968,1224.7637,455.9909Z"/><g class="cls-29"><path class="cls-5" d="M1228.75,439.6985c-21.1485,7.3765-21.7267-16.8939-35.35-46.9527-23.4686-72.3939-88.854-176.0046-30.2112-144.5015C1161.88,261.1208,1252.3416,435.0443,1228.75,439.6985Z"/></g><path class="cls-3" d="M1157.3109,369.4533c.9392-26.1048,83.5642-.66,51.8992,22.8306,28.1962,20.1261,6.3017,73.035-33.2532,33.4009C1171.6157,405.16,1169.0288,405.2282,1157.3109,369.4533Z"/><path class="cls-5" d="M1299.9568,465.04c-.6275-.9271-68.5428,123.3747-54.1438,122.2606,22.7739,27.9506,136.2543,213.51,141.9675,204.5891,67.946,29.5561,74.0061-6.9942,170.0762-43.0575,59.9685-17.5486,67.4832-54.7252,98.5122-102.2474.5523.405-25.2988-102.0457-25.385-103.7374C1358.8689,637.39,1477.95,653.92,1299.9568,465.04Z"/><g class="cls-30"><path class="cls-31" d="M1205.3248,595.9331c121.5352-98.703,176.1627,2.02,202.3618,37.9385s169.695,29.647,187.0466-27.3535,61.6357,40.0664,61.6357,40.0664l-19.8612,123.8344L1521.202,775.89l-267.6374-64.7837"/></g><path class="cls-26" d="M653.9778,1330.6143l381.4551-359.8026c10.8381-13.2027,22.2489-21.389,41.3217-21.0907l442.0357-14.4,81.6221,197.1144-544.499-27.4267L738.9273,1378.63Z"/><g class="cls-32"><path class="cls-8" d="M735.2916,1194.5063c-49.5788,21.0907,80.6919,64.7989,57.9335,149.3568s86.7414-1.7221,86.7414-1.7221l-8.523-97.784-112.948-56.7577"/></g><path class="cls-9" d="M653.9778,1330.6143l381.4551-359.8026c10.8381-13.2027,22.2489-21.389,41.3217-21.0907l442.0357-14.4,81.6221,197.1144-544.499-27.4267L738.9273,1378.63Z"/><path class="cls-5" d="M777.0214,1344.2405s26.7889,105.0336-15,99.4276c-296.3921-39.7609-343.4959-56.4568-344.2949-56.569,32.06-82.437,200.2532,11.9235,240.803-88.3319C658.5293,1298.7672,690.6377,1374.258,777.0214,1344.2405Z"/><path class="cls-26" d="M977.7034,1101.0311c289.8-500.0207,243.4639-655.2285,556.5677-345.8443,6.0511,5.4425,8.3581,7.5206,10.501,9.4509-4.7148-4.4161,97.2678,112.709,84.6578,103.1368-12.5365,13.6229-146.2634,158.9481-146.8883,159.6246l-163.104-237.5285C1060.0035,1132.0571,1134.66,1093.5487,977.7034,1101.0311Z"/><g class="cls-33"><path class="cls-2" d="M1088.1343,850.2263c-.64,8.7272,155.8153,94.0317,155.8153,94.0317l-97.64,213.0128-169.66-19.8954-31.2115-83.5916Z"/></g><path class="cls-9" d="M977.7034,1101.0311c289.8-500.0207,243.4639-655.2285,556.5677-345.8443,6.0511,5.4425,8.3581,7.5206,10.501,9.4509-4.7148-4.4161,97.2678,112.709,84.6578,103.1368-12.5365,13.6229-146.2634,158.9481-146.8883,159.6246l-163.104-237.5285C1060.0035,1132.0571,1134.66,1093.5487,977.7034,1101.0311Z"/><path class="cls-2" d="M1475.3173,737.3187c96.2828,264.3925,393.4078,190.1238,393.4078,190.1238-77.828-34.6716-305.8971-133.3665-366.2837-190.1238"/><path class="cls-6" d="M1015.5766,927.451s99.6468,90.8441,159.3075,88.5839l144.5535-226.1643c22.01,30.5485,177.2122,284.9791,201.2911,303.1159,197.644,171.0546,406.6816,4.5007,344.5921-236.5215,26.9238-25.6882-218.15-63.7308-276.6406-85.0249-.6134,11.9312-180.48-150.829-209.1969-170.4873-117.3352-81.0774-200.8893,3.46-249.3935,89.5231C1073.4822,781.6385,1016.0033,926.7639,1015.5766,927.451Z"/><g class="cls-34"><path class="cls-35" d="M1076.7546,949.721l205.43,5.752s20.052-69.024-7.5852-95.4493-89.7838,41.3843-265.1171-11.5416L933.7682,968.8943"/><path class="cls-35" d="M1343.0609,896.8605c181.1776,37.2375,280.3279-16.5751,292.7642,40.192s-257.45,0-257.45,0"/></g><path class="cls-6" d="M1636.5081,770.419c-51.6474,139.9069-19.6215,176.7383-144.2956,154.5514-170.6813-13.5393-387.71-47.981-428.41-35.0243C975.3438,925.3353,955.7883,992.3386,818.7737,1125.29c-59.1051,67.7659-93.2592,87.2924-75.5095,94.623,16.7606,21.8935,155.4621,143.9764,167.2071,122.7056,50.591-48.2669,234.6629-250.7354,229.5189-233.1821,35.09,3.5588,301.3112,30.56,455.1026,46.157,137.1342,25.5958,284.9746,10.7967,282.9583-163.4835-2.4774-28.9021-4.5156-126.8581-7.1517-115.4723C1852.4735,868.2866,1637.3421,770.7948,1636.5081,770.419Z"/><g class="cls-36"><path class="cls-35" d="M1739.8925,852.6171c-77.3048,22.1513-32.06,111.6084,212.3291,147.2066s89.646-135.5668,89.646-135.5668l-235.2524-54.29"/><path class="cls-35" d="M1126.4587,1221.9825l13.5315-112.5457,60.4924-70.3511s49.1182-12.6713-5.56,94.6994"/></g><path class="cls-5" d="M1670.8245,443.0892c286.2942-146.07,157.025,299.1606,236.8334,473.4994C1685.4037,957.0909,1521.202,775.89,1521.202,775.89l80.7487-123.25S1505.1964,565.5247,1670.8245,443.0892Z"/><g class="cls-37"><path class="cls-31" d="M1803.4824,552.5492c75.2876-10.2618-208.3265,390.4915-82.3214,380.9048s-202.3707,1.8667-202.3707,1.8667-25.1709-207.0266-16.3489-198.002,69.5705-103.2176,99.5093-84.6793c47.9208,29.673,172.5243-100.482,172.5243-100.482"/></g><path class="cls-26" d="M1636.5077,770.4189c-.3054-.2339-212.5571-309.3872-226.5067-319.8114-35.4979-14.941-157.7978-57.2716-144.263-36.8539-8.7676,4.4636,37.6121,21.4391,46.5806,28.4078,6.3039,61.8184,27.0917,70.4712,78.7414,83.2774,6.9155-4.0908,136.4181,322.5518,140.97,324.7875Z"/><g class="cls-38"><path class="cls-8" d="M1322.8444,604.9259c92.68,2.1208,109.5811-57.281,158.6023-74.6313,61.6083-23.3286,32.61,67.0328,27.1008,77.8494-35.5083,36.9789-97.8291,36.0014-131.0831,34.17"/></g><path class="cls-9" d="M1636.5077,770.4189c-.3054-.2339-212.5571-309.3872-226.5067-319.8114-35.4979-14.941-157.7978-57.2716-144.263-36.8539-8.7676,4.4636,37.6121,21.4391,46.5806,28.4078,6.3039,61.8184,27.0917,70.4712,78.7414,83.2774,6.9155-4.0908,136.4181,322.5518,140.97,324.7875Z"/><path class="cls-5" d="M1486.9032,518.7081c-29.6293,31.1109-126.67,118.92-79.2276,155.5737,54.4148,83.0872,91.409,161.3253,121.0276,187.2389,109.6157,53.0068,137.7941-21.0709,169.2737-91.1465,40.6742-83.9712,105.1057-217,105.5054-217.8248,32.9856-76.35-77.0531-135.3465-120.8447-70.439-7.0858,12.0229-4.4058,8.9343-7.7782,16.4058-15.9741,38.0154-85.11,202.547-78.1585,193.99Z"/><path class="cls-4" d="M1661.5589,452.0718c-6.0235-4.5491,160.5182-112.94,131.18-32.0145"/><path class="cls-35" d="M1643.8387,996.7163c-40.3288-.9657,2.2062,82.5458,2.2062,82.5458"/><path class="cls-31" d="M1791.4353,810.789c-6.1512,38.5177,83.06,20.74,83.06,20.74"/><ellipse class="cls-8" cx="1614.6382" cy="240.2374" rx="8.1974" ry="8.148" transform="translate(107.1245 866.4745) rotate(-31.0213)"/><path class="cls-3" d="M1585.9684,242.9892c-34.4785,8.2424,1.778,31.626,1.778,31.626"/><path class="cls-3" d="M1630.5874,280.9524a14.3872,14.3872,0,0,1-14.2086,14.4573"/><line class="cls-3" x1="1749.8962" y1="303.5568" x2="1742.9678" y2="313.8908"/><line class="cls-9" x1="1739.7607" y1="684.1097" x2="1803.4823" y2="552.5494"/><line class="cls-9" x1="1242.1545" y1="893.7131" x2="1094.3028" y2="887.091"/><path class="cls-9" d="M1875.9322,1039.0857s-14.7106,111.2815-144.2089,123.9772"/><path class="cls-26" d="M3376.6715,2122.4012c-17.8809-50.1152-87.3-104.1109-147.0483-159.9118,11.1783-25.5073-109.4,56.5983-122.7492,58.4l185.4622,142.9025"/><g class="cls-39"><path class="cls-8" d="M3163.9826,2111.1681c54.4088-29.0263,106.3464-137.43,60.3315-153.5721s-81.6181,31.5618-95.4474,103.0981"/></g><path class="cls-9" d="M3376.6715,2122.4012c-17.8809-50.1152-87.3-104.1109-147.0483-159.9118,11.1783-25.5073-109.4,56.5983-122.7492,58.4l185.4622,142.9025"/><path class="cls-4" d="M3253.2576,2136.3987s18.1582,41.3127,45.0005,65.116c10.4626,9.278,26.7508,9.5575,38.5333.567,222.0879-169.4609,245.4823-199.75,245.4823-199.75-38.5559-68.1047-144.0274,134.2733-257.6027,46.2468C3324.671,2048.5782,3319.02,2105.5153,3253.2576,2136.3987Z"/><path class="cls-26" d="M2978.9326,2558.5827c23.4855-54.0819,13.3357-134.6112,10.56-226.5447,18.8972-17.6413-115.7143-32.7422-132.0648-40.5006l29.9228,242.5412"/><g class="cls-40"><path class="cls-8" d="M2771.81,2382.564c196.8158,14.5131,229.7229-52.3634,229.7229-52.3634-183.3151-55.751-139.72-35.9268-261.41,22.2008"/></g><path class="cls-9" d="M2978.9326,2558.5827c23.4855-54.0819,13.3357-134.6112,10.56-226.5447,18.8972-17.6413-115.7143-32.7422-132.0648-40.5006l29.9228,242.5412"/><path class="cls-4" d="M2879.0536,2485.1643s-17.0978,45.7806-15.0547,83.4008c.7964,14.6636,12.4194,26.0686,27.5657,26.9052,285.4923,15.7682,324.6836,7.3979,324.6836,7.3979,21.9254-81.3878-203.014,9.432-220.9615-139.5127C2995.2867,2463.3555,2949.4466,2505.395,2879.0536,2485.1643Z"/><path class="cls-5" d="M3116.1647,2101.1871c54.0029,0,118.5687-141.7243,118.5687-141.7243L3000.6658,1687.6l-178.876,99.579Z"/><g class="cls-41"><path class="cls-31" d="M2923.3171,1819.9758c171.873-84.7129,43.7816,62.2881,109.3263,192.12,54.701,108.3519-118.5112-10.0925-118.5112-10.0925"/></g><path class="cls-5" d="M2780.3554,2337.841c-1.755,6.9285,234.9147,30.5145,220.5215-16.1713-5.7056-74.223-46.5836-605.9846-46.62-606.4575-.3013.3909-392.7521,10.031-403.9007,10.6006-3.6484-24.17-65.4594-61.7437-89.5805-71.7606L2356.8779,1963.81l426.2655-54.5062Z"/><g class="cls-42"><path class="cls-31" d="M2729.14,2060.6863c52.531-177.6878,240.0794-207.7621,241.6077-233.8858s-25.52-30.9614-25.52-30.9614L2586.0134,1862.6"/></g><path class="cls-5" d="M2321.6881,1640.7518c-14.4561,34.4122-77.5822,151.224-83.7526,186.0885-27.1236,140.4527,116.0677,165.4989,199.1923,163.4418,90.2743-2.234,639.0954-214.3679,639.4671-214.4927-52.6049-64.9954-118.9813-149.6306-175.66-125.149-38.57,7.8308-407.7108,82.87-408.3435,82.9981l58.2927-85.67Z"/><g class="cls-43"><path class="cls-5" d="M2097.28,1957.596c277.1284,41.4839,48.2863-206.8671,460.5931-222.3331s-321.1567-68.8174-321.1567-68.8174l-52.5381,40.4738-55.6357,49.6442"/><path class="cls-31" d="M1939.5712,1733.3745c-81.3739,124.6121,761.2851-14.9388,846.6063-5.2634,0,0-173.786,37.6289-282.7811-61.437-97.2525-88.3931-550.8461,8.4507-550.8461,8.4507"/></g><polygon class="cls-3" points="2667.197 1712.316 2792.417 1712.316 2758.968 1368.576 2694.312 1268.533 2638.813 1393.712 2667.197 1712.316"/><path class="cls-7" d="M2615.4106,1570.4038c91.4435,7.7473,165.1076-37.7529,174.0394-45.79,7.7292,11.5576-14.3347-93.4805-23.6715-169.8211-3.621-107.746-53.7148-84.5774-127.3334-86.0528C2637.6707,1278.9829,2615.46,1569.7456,2615.4106,1570.4038Z"/><g class="cls-44"><path class="cls-45" d="M2621.8165,1602.8961c59.7009,9.0963,171.874-168.4792,79.2646-210.5026-85.1984,17.1354-130.1041,116.31-132.0519,178.8684"/></g><path class="cls-8" d="M2686.5919,1254.3029c-18.5886,122.6308-306.4859,112.6738-305.1174-.0032C2400.0622,1131.6721,2687.96,1141.629,2686.5919,1254.3029Z"/><g class="cls-46"><path class="cls-8" d="M2352.4675,1266.2556c108.7128-56.2639,134.233,6.9193,202.7559,0s27.3511,46.7794,27.3511,46.7794l-196.7486,8.7079"/></g><path class="cls-8" d="M2713.104,1189.4026c-13.9369,122.6308-184.2673,112.6738-180.77-.0032C2546.27,1066.7717,2716.6006,1076.7287,2713.104,1189.4026Z"/><path class="cls-7" d="M2227.58,1706.9193c7.4431-7.415,373.911,14.2711,347.2793-8.0852,13.7341-32.2068,56.1925-135.9472,53.9679-128.5256,123.8922-43.8378,105.3378-143.3157,84.7153-294.0331,33.2069-22.6075-273.3277,1.1413-279.2706-6.01C2434.4237,1270.1233,2227.706,1706.5477,2227.58,1706.9193Z"/><g class="cls-47"><path class="cls-20" d="M2591.8942,1368.761l-140.311-144.5756,125.6513-117.7205c-.2746.436,118.2441,123.01,111.6417,118.2363C2667.6762,1254.0982,2630.993,1406.134,2591.8942,1368.761Z"/><path class="cls-3" d="M2591.7863,1354.14l-123.6128-127.37,110.6977-103.7106c.0492,1.4768,104.6175,108.0787,98.3042,104.2813C2657.282,1255.54,2627.2365,1385.5034,2591.7863,1354.14Z"/><path class="cls-45" d="M2483.899,1420.1089c40.1,5.7145-144.8245,245.662-42.1016,246.3366s76.06-.6746,76.06-.6746-53.1993,36.0676,19.3327,41.1484-242.7024,46.0974-242.7024,46.0974l-84.1514-32.8132c142.1208-282.8066,66.7356-206.7312,273.5625-300.0946"/></g><polygon class="cls-26" points="2289.836 1666.446 2464.237 1407.413 2354.345 1354.797 2134.549 1653.898 2289.836 1666.446"/><polygon class="cls-9" points="2289.836 1666.446 2464.237 1407.413 2354.345 1354.797 2134.549 1653.898 2289.836 1666.446"/><path class="cls-7" d="M2210.4808,1510.6213c188.0588,138.9944,163.47,67.4329,288.8046-110.7154,7.9523,13.8492-12.5694-109.6019-12.9731-129.46,4.8906-2.7056-25.5027.2969-48.8677-.4819C2360.4861,1244.4212,2255.0776,1466.05,2210.4808,1510.6213Z"/><path class="cls-3" d="M2133.9594,1653.4985a38.4567,38.4567,0,0,0-6.36,17.5437c-20.4663,107.0076,230.6447,46.1419,312.0461,61.1879,11.6986,12.6654,80.9034-63.1075,78.2089-66.4648,12.6831,1.5276,41.7275-13.8985,62.0459-31.0814,57.0714,51.485,18.09-35.7178-18.34-50.8994,16.8-13.8291,56.8269,17.7606,63.25-4.6971,1.8957-6.6283-69.079-33.1163-103.0559-21.2867-31.4,10.9327-70.7923,106.0048-77.9512,90.6831-44.8847.9629-116.3711-12.46-180.0611-17.9824"/><path class="cls-8" d="M2767.0471,1062.3515c-14.6523,122.6308-203.0643,112.6739-199.8945-.0032C2581.8042,939.7207,2770.2162,949.6776,2767.0471,1062.3515Z"/><path class="cls-26" d="M2539.4947,1273.7217c71.893-104.0043,55.2-100.6255,128.8716-71.218-18.2826,32.5957-29.8149,55.5789-38.2782,71.218"/><g class="cls-48"><path class="cls-8" d="M2624.4954,1202.7351c-13.1587,18.4121,23.7493,29.7519,7.7141,90.844-7.0037,26.683,31.5058-35.4947,35.9959-48.9432C2682.1383,1202.9049,2634.4469,1188.81,2624.4954,1202.7351Z"/></g><path class="cls-9" d="M2539.4947,1273.7217c71.893-104.0043,55.2-100.6255,128.8716-71.218-18.2826,32.5957-29.8149,55.5789-38.2782,71.218"/><path class="cls-3" d="M2636.2727,1218.2988c92.876,38.3957,126.3912-136.8094,28.2113-179.8838-108.7471-47.71-83.7056,95.5383-74.2038,137.9116"/><path class="cls-8" d="M2654.5793,1112.9128c-13.9368,122.6308-184.2673,112.6738-180.77-.0032C2487.7455,990.282,2658.0759,1000.2389,2654.5793,1112.9128Z"/><path class="cls-8" d="M2694.76,1036.2383c-1.547,37.9623-92.9456,44.0426-94.43-.0059C2601.8767,998.2759,2693.2753,992.1957,2694.76,1036.2383Z"/><path class="cls-3" d="M2641.2613,1155.4629c-70.9525-60.5344-96.7868,46.3054-13.5377,42.3412"/><path class="cls-6" d="M2611.88,1735.2629H2343.7679c-5.18-58.3394,244.4115-20.2521,269.8941-30.4688Z"/><path class="cls-6" d="M2925.84,1735.2629H2557.8729c191.7872-270.61,97.5065-244.9683,334.4145-243.8292,284.6884-2.93,202.6888-21.2939,71.59,200.7374C2937.1362,1725.3736,2955.2277,1721.82,2925.84,1735.2629Z"/><g class="cls-49"><polyline class="cls-35" points="3173.972 1489.842 2821.79 1787.179 3044.111 1736.122 3133.177 1571.288"/></g><path class="cls-50" d="M2855.1092,1609.2756c-11.1141-.4486-15.6614-12.592,2.2046-20.8292-135.717,2.7664-49.2175,110.9678,12.7626,16.9884A34.4845,34.4845,0,0,1,2855.1092,1609.2756Z"/><g class="cls-27"><path class="cls-8" d="M2607.313,1144.9939c-21.7081-9.385-23.5647,13.5525-9.8165,20.5S2598.4636,1151.5709,2607.313,1144.9939Z"/></g><path class="cls-31" d="M2402.5435,1894.3935c-11.3982,38.8743,80.2344,20.9324,80.2344,20.9324"/><path class="cls-45" d="M2597.7278,1481.5232c27.986,24.7749,46.5529-19.0062,46.5529-19.0062"/><ellipse class="cls-8" cx="2694.6604" cy="1116.5885" rx="7.0663" ry="7.0237" transform="translate(-190.0396 1548.4108) rotate(-31.0213)"/><path class="cls-3" d="M2719.3487,1118.9606c29.6448,7.1051-1.8244,27.262-1.8244,27.262"/><path class="cls-3" d="M2680.5363,1151.6854a12.2428,12.2428,0,0,0,12.1147,12.4623"/><line class="cls-3" x1="2607.2282" y1="1160.8567" x2="2614.046" y2="1171.1907"/><line class="cls-9" x1="2499.2854" y1="1399.9059" x2="2428.519" y2="1510.6213"/><line class="cls-9" x1="2714.6407" y1="1735.075" x2="2925.8397" y2="1735.2629"/><line class="cls-9" x1="2781.1959" y1="2208.6526" x2="2782.3015" y2="2002.0029"/><path class="cls-9" d="M2889.2983,1572.9028l-27.4356,19.4675"/></g></g></g></svg>