<svg id="图层_1" data-name="图层 1" xmlns="http://www.w3.org/2000/svg" xmlns:xlink="http://www.w3.org/1999/xlink" viewBox="0 0 4000 3000"><defs><clipPath id="clip-path"><path style="fill:none" d="M0 0h4000v3000H0z"/></clipPath><clipPath id="clip-path-2"><path class="cls-2" d="M1803.55 754.867c-63.91 13.844-52.665 69.14 8 88.618s-5.54 67.085 29.708 88.452c68.781-3.728 30.521 97.51 125.21 87.186s218.408 213.423 352.9 179.868 128.687-95.303 238.056-63.038 269.602-48.654 269.602-48.654-147.385-4.303-223.738-75.437c-126.725-118.064-278.11 13.15-318.523-53.008-69.02-112.987-218.051 37.528-270.048-79.081-44.162-99.038-92.005-150.717-211.167-124.906Z"/></clipPath><clipPath id="clip-path-3"><path class="cls-3" d="M2534.35 1152.67c83.264-27.888 441.48-102.745 461.66-105.68 0 0 213.197-253.245 285.28-316.717 30.858-27.17-19.524-73.716 8.44-78.12s228.686-41.097 264.786-27.887 16.82 26.42-18.835 30.823-166.686 52.84-186.614 101.278-194.811 343.463-267.58 375.755-454.231 85.131-454.231 85.131Z"/></clipPath><clipPath id="clip-path-4"><path class="cls-3" d="M1818.255 999.912c136.232 98.246-.9 305.436 195.47 339.195 201.367-5.65 347.96-48.488 535.614 25.442 125.007 36.373 402.916-25.176 563.166-110.234 126.458-65.724 427.455-468.382 673.337-369.642 48.196-12.146-39.591-42.115-112.397-83.599-180.259-80.98-87.759 32.893-213.388 77.79-455.056 149.545-210.009 198.336-490.579 232.705-178.94 32.81-398.305 58.644-449.442 14.73-98.355 33.577-207.372 42.732-281.87 4.28-202.027-215.776-287.224-80.382-366.398-201.988"/></clipPath><clipPath id="clip-path-5"><path class="cls-4" d="M3235.532 772.999s83.909 0 139.59 82.565c27.988 41.502-177.902 280.124-238.678 319.985s-681.661 69.108-681.661 69.108l-20.046-128.41s391.713-92.267 561.274-69.257c16.5-35.128 239.521-273.991 239.521-273.991Z"/></clipPath><clipPath id="clip-path-6"><path class="cls-4" d="M3462.99 877.476s44.851 44.058 26.11 162.166c-5.428 34.204-278.966 169.758-384.955 233.567s-517.634 165.168-655.85 75.97l14.216-229.029s140.777-108.288 533.668-13.586c287.652-192.134 466.811-229.088 466.811-229.088Z"/></clipPath><clipPath id="clip-path-7"><path class="cls-5" d="M1854.532 1056.404c60.361-140.636 142.05-122.388 344.828-33.922 141.948 119.565 300.306 22.919 302.221 18.703 0 0 82.164 372.699-13.112 383.994s-194.478-112.01-352.25-80.917c-343.543 67.705-281.687-287.858-281.687-287.858Z"/></clipPath><clipPath id="clip-path-8"><path class="cls-3" d="M2616.892 1488.798c29.258 16.386 97.195 79.997 211.909 70.673-13.416-15.74-79.707-23.827-74.419-29.352-5.45 2.75 114.687.11 81.568-17.635-12.703-6.343-74.21 10.83-71.198-7.695 31.63 1.48 113.176-16.274-2.53-18.166-5.892-2.022 58.506-11.731 56.596-26.539-19.03-8.081-69.237 13.698-71.1 6.67-71.535-18.257-128.776-33.88-195.831-84.757-262.192-141.434-463.224-409.64-605.519-362.816-104.497 31.453-31.48 174.873 52.433 228.968 51.436 34.465 101.06 16.796 165.718 42.758 91.247 27.025 131.869 71.2 228.81 122.152 98.755 46.86 220.706 74.703 223.563 75.739Z"/></clipPath><linearGradient id="未命名的渐变_256" x1="1851.59" y1="910.406" x2="1918.351" y2="1177.449" gradientTransform="matrix(1 0 -.0607 .9737 85.552 31.446)" gradientUnits="userSpaceOnUse"><stop offset=".101" stop-color="#ffc0a0"/><stop offset=".885" stop-color="#ff3513"/></linearGradient><linearGradient id="未命名的渐变_64" x1="2328.769" y1="1246.035" x2="2560.907" y2="1246.035" gradientTransform="matrix(1 0 -.0607 .9737 85.552 31.446)" gradientUnits="userSpaceOnUse"><stop offset="0" stop-color="#e33867"/><stop offset=".967" stop-color="#f39190"/></linearGradient><linearGradient id="未命名的渐变_64-2" x1="2076.835" y1="1175.37" x2="2140.263" y2="1175.37" xlink:href="#未命名的渐变_64"/><style>.cls-8{fill:none}.cls-2{fill:#ffbed0}.cls-15,.cls-3{fill:#fdfffe}.cls-3,.cls-8{stroke:#3f3c3f;stroke-linecap:round;stroke-linejoin:round;stroke-width:9.4685px}.cls-4{fill:#4982c0}.cls-5{fill:#49acd9}.cls-9{fill:#fff}.cls-12{fill:#ac7f8d}.cls-14{fill:#ffa1c2}.cls-17{fill:#3f3c3f}.cls-25{fill:#3070a0}.cls-28{fill:#2b8acd}</style></defs><g style="clip-path:url(#clip-path)"><path style="opacity:.09;fill:none" d="M-677-592h5354v4172H-677z"/><path class="cls-8" d="m2924.488 719.735-32.483-32.663.342-64.112a84.575 84.575 0 0 0-84.657-85.13h-64.099l-45.083-45.334c-33.06-33.244-86.95-33.244-120.366 0l-45.566 45.335h-46.183a85.67 85.67 0 0 0-85.566 85.129l-.247 46.193-32.83 32.663c-33.415 33.245-33.703 87.146-.642 120.391l32.482 32.663-.342 64.113a84.575 84.575 0 0 0 84.658 85.129h64.098l45.083 45.334c33.061 33.245 86.95 33.245 120.366 0l45.567-45.334h46.183a85.67 85.67 0 0 0 85.565-85.13l.247-46.192 32.83-32.664c33.416-33.245 33.704-87.146.643-120.39Z"/><path class="cls-9" d="M3230.777 2532.437H1603.695a73.648 73.648 0 0 1-73.72-74.131l5.566-1043.454a74.603 74.603 0 0 1 74.511-74.131h1627.082a73.648 73.648 0 0 1 73.72 74.13l-5.566 1043.455a74.603 74.603 0 0 1-74.51 74.131Z"/><path class="cls-8" d="M3230.777 2532.437H1603.695a73.648 73.648 0 0 1-73.72-74.131l5.566-1043.454a74.603 74.603 0 0 1 74.511-74.131h1627.082a73.648 73.648 0 0 1 73.72 74.13l-5.566 1043.455a74.603 74.603 0 0 1-74.51 74.131Z"/><path class="cls-9" d="M2404.13 1953.8a270.207 270.207 0 0 1 145.842 34.91l205.468-379.347c-108.91-59.8-235.228-91.334-368.74-85.204-314.76 14.45-572.731 233.739-650.413 523.163l415.337 109.592c30.162-112.364 130.307-197.503 252.505-203.113Z"/><path d="m2682.042 2169.291 421.15-90.22c-42.347-203.765-172.395-373.419-347.752-469.708l-205.468 379.348a270.677 270.677 0 0 1 132.07 180.58Z" style="fill:#ffd0af"/><path d="m2402.443 1609.954-92.864 587.598a6.31 6.31 0 0 0 .921 4.35l88.965 143.432c3.655 5.892 14.474 5.892 18.192 0l90.489-143.432a6.35 6.35 0 0 0 .968-4.349l-86.59-587.598c-1.36-9.23-18.622-9.23-20.081 0Z" style="fill:#8a8a6e"/><path class="cls-8" d="M2882.111 2272.897a234.266 234.266 0 0 1-66.769 60.248M2139.818 1725.258a75.616 75.616 0 0 1-40.833 35.37M1610.052 1340.72h1627.082a73.648 73.648 0 0 1 73.72 74.132M3230.777 2532.437H1603.695M2386.7 1524.159c-314.76 14.45-572.731 233.738-650.413 523.163M2417.657 2345.333l90.489-143.431"/><path class="cls-3" d="M2087.325 1970.086H330.727a130.247 130.247 0 0 1-130.375-131.101l4.393-823.514c.386-72.405 59.383-131.101 131.773-131.101h1756.599a130.247 130.247 0 0 1 130.374 131.101l-4.392 823.514c-.387 72.405-59.384 131.101-131.774 131.101Z"/><path class="cls-12" d="M592.65 1193.275h-11.382c-22.561 0-40.938 16.373-41.045 36.569l-2.61 489.308c-.108 20.196 18.094 36.568 40.655 36.568h11.383c22.561 0 40.94-16.372 41.047-36.568l2.61-489.308c.108-20.196-18.096-36.569-40.657-36.569ZM809.87 1429.537h-30.867c-17.18 0-31.176 12.468-31.258 27.848l-1.443 270.487c-.082 15.38 13.78 27.848 30.961 27.848h30.866c17.181 0 31.177-12.468 31.259-27.848l1.442-270.487c.082-15.38-13.78-27.848-30.96-27.848ZM1017.098 1392.888h-27.46c-18.123 0-32.883 13.15-32.97 29.37l-1.622 304.091c-.086 16.222 14.534 29.371 32.656 29.371h27.461c18.122 0 32.882-13.15 32.969-29.37l1.622-304.091c.086-16.222-14.533-29.371-32.656-29.371ZM1216.065 1098.736h-4.782c-24.385 0-44.247 17.695-44.364 39.522l-3.082 577.94c-.117 21.828 19.556 39.522 43.941 39.522h4.783c24.383 0 44.245-17.694 44.361-39.522l3.083-577.94c.116-21.827-19.557-39.522-43.94-39.522ZM1427.597 1193.275h-11.383c-22.561 0-40.937 16.373-41.045 36.569l-2.61 489.308c-.108 20.196 18.094 36.568 40.655 36.568h11.383c22.561 0 40.938-16.372 41.045-36.568l2.61-489.308c.108-20.196-18.094-36.569-40.655-36.569ZM1639.314 1284.76h-18.32c-20.646 0-37.462 14.982-37.56 33.463l-2.155 404.035c-.099 18.48 16.557 33.462 37.203 33.462h18.32c20.646 0 37.462-14.981 37.56-33.462l2.155-404.035c.099-18.48-16.557-33.462-37.203-33.462ZM1845.07 1193.275h-11.382c-22.563 0-40.94 16.373-41.047 36.569l-2.61 489.308c-.108 20.196 18.094 36.568 40.657 36.568h11.381c22.561 0 40.94-16.372 41.047-36.568l2.61-489.308c.108-20.196-18.096-36.569-40.657-36.569Z"/><path class="cls-8" d="m780.54 1018.607-55.826 50.883M2013.815 1535.164l-15.31 20.273M336.518 884.37h1756.599M540.223 1229.844l-2.61 489.308M1166.919 1138.258l-3.082 577.94M1583.433 1318.223l-2.155 404.035"/><path class="cls-3" d="M2247.702 958.383c60.777-20.695 305.239-82.834 170.575-32.91 11.887-2.344 62.968-10.334 61.51 2.911-3.74 5.863-61.016 2.975-46.832 8.642 121.489 12.382 36.879 15.996-1.128 16.93-3.763 3.496 25.192 5.072 46.548 7.517 48.41 12.609-226.258 19.693-225.924 25.468M1828.615 793.668c-77.289-78.011-199.283 251.336-10.36 206.244 128.14-30.584 119.993-147.788 10.36-206.244Z"/><path class="cls-2" d="M1803.55 754.867c-63.91 13.844-52.665 69.14 8 88.618s-5.54 67.085 29.708 88.452c68.781-3.728 30.521 97.51 125.21 87.186s218.408 213.423 352.9 179.868 128.687-95.303 238.056-63.038 269.602-48.654 269.602-48.654-147.385-4.303-223.738-75.437c-126.725-118.064-278.11 13.15-318.523-53.008-69.02-112.987-218.051 37.528-270.048-79.081-44.162-99.038-92.005-150.717-211.167-124.906Z"/><path class="cls-14" d="M1873.71 975.348c141.007-95.575 194.138-8.15 348.293 64.294s-260.852 64.294-260.852 64.294" style="clip-path:url(#clip-path-2)"/><path class="cls-15" d="M2534.35 1152.67c83.264-27.888 441.48-102.745 461.66-105.68 0 0 213.197-253.245 285.28-316.717 30.858-27.17-19.524-73.716 8.44-78.12s228.686-41.097 264.786-27.887 16.82 26.42-18.835 30.823-166.686 52.84-186.614 101.278-194.811 343.463-267.58 375.755-454.231 85.131-454.231 85.131Z"/><path class="cls-17" d="M3402.06 801.089c-50.189 33.03-86.694-46.583-116.8 3.883-17.974 30.132 36.965 52.464 85.012 69.442" style="clip-path:url(#clip-path-3)"/><path class="cls-8" d="M2534.35 1152.67c83.264-27.888 441.48-102.745 461.66-105.68 0 0 213.197-253.245 285.28-316.717 30.858-27.17-19.524-73.716 8.44-78.12s228.686-41.097 264.786-27.887 16.82 26.42-18.835 30.823-166.686 52.84-186.614 101.278-194.811 343.463-267.58 375.755-454.231 85.131-454.231 85.131Z"/><path class="cls-15" d="M1818.255 999.912c136.232 98.246-.9 305.436 195.47 339.195 201.367-5.65 347.96-48.488 535.614 25.442 125.007 36.373 402.916-25.176 563.166-110.234 126.458-65.724 427.455-468.382 673.337-369.642 48.196-12.146-39.591-42.115-112.397-83.599-180.259-80.98-87.759 32.893-213.388 77.79-455.056 149.545-210.009 198.336-490.579 232.705-178.94 32.81-398.305 58.644-449.442 14.73-98.355 33.577-207.372 42.732-281.87 4.28-202.027-215.776-287.224-80.382-366.398-201.988"/><path class="cls-17" d="M3533.15 952.606c-62.334-113.348-76.639-50.456-76.639-50.456-34.009 115.356 20.738 70.072 91.48 76.847Z" style="clip-path:url(#clip-path-4)"/><path class="cls-8" d="M1818.255 999.912c136.232 98.246-.9 305.436 195.47 339.195 201.367-5.65 347.96-48.488 535.614 25.442 125.007 36.373 402.916-25.176 563.166-110.234 126.458-65.724 427.455-468.382 673.337-369.642 48.196-12.146-39.591-42.115-112.397-83.599-180.259-80.98-87.759 32.893-213.388 77.79-455.056 149.545-210.009 198.336-490.579 232.705-178.94 32.81-398.305 58.644-449.442 14.73-98.355 33.577-207.372 42.732-281.87 4.28-202.027-215.776-287.224-80.382-366.398-201.988"/><path d="M1913.85 975.348c-10.49 67.783-82.519 101.224-23.53 128.588 58.08-85.18 78.978-88.772 23.53-128.588Z" style="fill:url(#未命名的渐变_256)"/><path d="M2344.24 1155.606c109.992 127.904-7.619 183.813 131.515 223.342 0 0 46.526-198.262 101.134-231.532 0 0-73.768-88.579-232.648 8.19Z" style="fill:url(#未命名的渐变_64)"/><path class="cls-3" d="M1837.07 954.616c94.93-20.872 65.8-119.18-13.95-33.082"/><g style="opacity:.28"><path d="M1840.232 929.642c12.632-3.031 27.612-15.665 34.53-25.822 17.39-16.476-14.511 35.923-34.53 25.822Z" style="fill:#eb3d6e"/></g><path d="M2152.257 1052.357c34.194 17.982-39.231 66.797-50.47 246.384-43.429 13.036 8.722-186.518 50.47-246.384Z" style="fill:url(#未命名的渐变_64-2)"/><path class="cls-4" d="M3235.532 772.999s83.909 0 139.59 82.565c27.988 41.502-177.902 280.124-238.678 319.985s-681.661 69.108-681.661 69.108l-20.046-128.41s391.713-92.267 561.274-69.257c16.5-35.128 239.521-273.991 239.521-273.991Z"/><path class="cls-25" d="M2798.234 1110.367c-13.487-70.433 82.331-32.94 178.822-36.382s276.538-205.073 325.833-139.226-383.602 213.25-383.602 213.25" style="clip-path:url(#clip-path-5)"/><ellipse class="cls-17" cx="1748.478" cy="887.687" rx="10.791" ry="10.734" transform="rotate(-46.039 1748.479 887.687)"/><path class="cls-3" d="M1726.048 893.53c-45.646 9.444-4.18 42.745-4.18 42.745M1775.323 938.675a18.945 18.945 0 0 1-16.449 21.022M1869.213 905.884l-8.744 16.882"/><path class="cls-4" d="M3462.99 877.476s44.851 44.058 26.11 162.166c-5.428 34.204-278.966 169.758-384.955 233.567s-517.634 165.168-655.85 75.97l14.216-229.029s140.777-108.288 533.668-13.586c287.652-192.134 466.811-229.088 466.811-229.088Z"/><g style="clip-path:url(#clip-path-6)"><path class="cls-25" d="M2462.512 1120.15c189.532-75.04-45.711 328.614 277.373 305.762s-242.112 104.677-242.112 104.677l-224.18-265.557 188.919-144.882M2967.09 1094.745c33.131 5.782-53.057 112.389-33.22 114.247s85.2-125.11 103.391-135.007-51.168 5.432-51.168 5.432"/></g><path class="cls-4" d="m1733.492 788.377 1.313-24.693c15.043-4.733 76.239 46.596 99.489 48.779-19.9 15.32-84.604-20.007-100.802-24.086Z"/><path class="cls-4" d="M1699.311 847.864c-41.426 59.22 12.798 49.788 53.435 54.03 32.884-9.004 73.677-56.761 81.002-85.941-32.273-16.289-108.702 2.794-134.437 31.911Z"/><path class="cls-4" d="M1794.52 868.076c31.712 25.975 50.67-14.416 45.985-39.283-31.722-25.974-50.68 14.417-45.985 39.283Z"/><path class="cls-4" d="M1893.861 901.861c43.244-61.663-32.748-48.618-59.42-68.075l-16.856 39.975M1834.294 812.463c-21.654 76.056-103.728 74.45-144.139 43.795-.494.541 43.644-90.118 44.65-92.574 0 0-4.335 8.99 99.489 48.779Z"/><path class="cls-3" d="M1837.07 954.616c94.93-20.872 65.8-119.18-13.95-33.082"/><path class="cls-5" d="M1854.532 1056.404c60.361-140.636 142.05-122.388 344.828-33.922 141.948 119.565 300.306 22.919 302.221 18.703 0 0 82.164 372.699-13.112 383.994s-194.478-112.01-352.25-80.917c-343.543 67.705-281.687-287.858-281.687-287.858Z"/><path class="cls-28" d="M1924.792 1171.822c-46.058 45.553 94.612 136.507 83.2 197.91s323.072-1.858 323.072-1.858l-161.59-150.62" style="clip-path:url(#clip-path-7)"/><path class="cls-15" d="M2616.892 1488.798c29.258 16.386 97.195 79.997 211.909 70.673-13.416-15.74-79.707-23.827-74.419-29.352-5.45 2.75 114.687.11 81.568-17.635-12.703-6.343-74.21 10.83-71.198-7.695 31.63 1.48 113.176-16.274-2.53-18.166-5.892-2.022 58.506-11.731 56.596-26.539-19.03-8.081-69.237 13.698-71.1 6.67-71.535-18.257-128.776-33.88-195.831-84.757-262.192-141.434-463.224-409.64-605.519-362.816-104.497 31.453-31.48 174.873 52.433 228.968 51.436 34.465 101.06 16.796 165.718 42.758 91.247 27.025 131.869 71.2 228.81 122.152 98.755 46.86 220.706 74.703 223.563 75.739Z"/><path class="cls-17" d="M2103.696 1190.023c67.717-21.467 1.044 140.542 34.667 189.518s-150.695 45.237-150.695 45.237l-10.883-130.797 101.124-98.475" style="clip-path:url(#clip-path-8)"/><path class="cls-8" d="M2616.892 1488.798c29.258 16.386 97.195 79.997 211.909 70.673-13.416-15.74-79.707-23.827-74.419-29.352-5.45 2.75 114.687.11 81.568-17.635-12.703-6.343-74.21 10.83-71.198-7.695 31.63 1.48 113.176-16.274-2.53-18.166-5.892-2.022 58.506-11.731 56.596-26.539-19.03-8.081-69.237 13.698-71.1 6.67-71.535-18.257-128.776-33.88-195.831-84.757-262.192-141.434-463.224-409.64-605.519-362.816-104.497 31.453-31.48 174.873 52.433 228.968 51.436 34.465 101.06 16.796 165.718 42.758 91.247 27.025 131.869 71.2 228.81 122.152 98.755 46.86 220.706 74.703 223.563 75.739Z"/><path class="cls-5" d="M2152.662 1079.397c-.426 22.926-67.794 322.607-109.043 247.761-283.064-277.725-140.36-419.886 109.043-247.761Z"/><path class="cls-17" d="M1861.556 905.638c21.991-15.847 24.129 11.696 10.212 22.953s-1.135-16.75-10.212-22.953Z"/><path class="cls-25" d="M2661.6 1299.351c78.916-24.26 68.175-90.36 68.175-90.36"/><path class="cls-28" d="M2380.153 1185.95c37.434-50.496-1.232-81.009-1.232-81.009"/><path class="cls-14" d="M1930.835 875.991c20.93-58.205-26.025-75.486-26.025-75.486"/><path class="cls-8" d="m3233.938 967.284-237.758 139.28M2018.988 1308.554l-107.8-136.732M2533.634 1287.082s-7.491-118.384-19.772-182.14M2241.623 992.89c28.424 29.046 72.324 41.98 112.122 33.036M660.78 1789.675c271.025-224.27 396.115-163.451 428.696 140.645s396.5-235.675 459.343 95.03 294.628 338.307 386.325 247.078 148.419-38.012 148.419-38.012"/></g></svg>