<?xml version="1.0" standalone="no"?><!DOCTYPE svg PUBLIC "-//W3C//DTD SVG 1.1//EN" "http://www.w3.org/Graphics/SVG/1.1/DTD/svg11.dtd"><svg t="1681894927953" class="icon" viewBox="0 0 1024 1024" version="1.1" xmlns="http://www.w3.org/2000/svg" p-id="3249" xmlns:xlink="http://www.w3.org/1999/xlink" width="200" height="200"><path d="M200.2 823h-27.3c-3.8 0-7.3 2.7-7.8 6.5-0.6 4.5 3 8.5 7.4 8.5h27.7c4.1 0 7.5-3.4 7.5-7.5s-3.4-7.5-7.5-7.5zM780.2 823H674.5c-4.1 0-7.5 3.4-7.5 7.5s3.4 7.5 7.5 7.5h105.7c4.1 0 7.5-3.4 7.5-7.5s-3.4-7.5-7.5-7.5zM797.7 830.5c0 4.1 3.4 7.5 7.5 7.5h47c4.1 0 7.5-3.4 7.5-7.5s-3.4-7.5-7.5-7.5h-47c-4.2 0-7.5 3.4-7.5 7.5zM649.5 823H225.2c-4.1 0-7.5 3.4-7.5 7.5s3.4 7.5 7.5 7.5h424.3c4.1 0 7.5-3.4 7.5-7.5s-3.4-7.5-7.5-7.5zM599.8 885H330.7c-4.4 0-8 3.6-8 8s3.6 8 8 8H600c4.8 0 8.7-4.3 7.9-9.3-0.6-3.9-4.2-6.7-8.1-6.7zM304.7 885h-54.4c-4 0-7.5 2.8-8.1 6.7-0.8 5 3.1 9.3 7.9 9.3h54.7c4.4 0 8-3.6 8-8-0.1-4.4-3.7-8-8.1-8z" fill="#76B767" p-id="3250"></path><path d="M216.7 214.7h-8.5v-8.5c0-1.8-1.5-3.3-3.3-3.3s-3.3 1.5-3.3 3.3v8.5h-8.5c-1.8 0-3.3 1.5-3.3 3.3s1.5 3.3 3.3 3.3h8.5v8.5c0 1.8 1.5 3.3 3.3 3.3s3.3-1.5 3.3-3.3v-8.5h8.5c1.8 0 3.3-1.5 3.3-3.3s-1.5-3.3-3.3-3.3z" fill="#F4AD9F" p-id="3251"></path><path d="M897.7 321.7h-8.5v-8.5c0-1.8-1.5-3.3-3.3-3.3s-3.3 1.5-3.3 3.3v8.5h-8.5c-1.8 0-3.3 1.5-3.3 3.3s1.5 3.3 3.3 3.3h8.5v8.5c0 1.8 1.5 3.3 3.3 3.3s3.3-1.5 3.3-3.3v-8.5h8.5c1.8 0 3.3-1.5 3.3-3.3s-1.5-3.3-3.3-3.3z" fill="#76B767" p-id="3252"></path><path d="M839.2 737.2c-0.7 0-1.3-0.6-1.3-1.3v-9.6c0-0.7 0.6-1.3 1.3-1.3 0.7 0 1.3 0.6 1.3 1.3v9.6c0 0.7-0.6 1.3-1.3 1.3zM835.6 738.3c-0.6 0.4-1.4 0.1-1.8-0.5l-4.8-8.3c-0.4-0.6-0.1-1.4 0.5-1.8 0.6-0.4 1.4-0.1 1.8 0.5l4.8 8.3c0.3 0.7 0.1 1.5-0.5 1.8zM833 741.1c-0.4 0.6-1.2 0.8-1.8 0.5l-8.3-4.8c-0.6-0.4-0.8-1.2-0.5-1.8 0.4-0.6 1.2-0.8 1.8-0.5l8.3 4.8c0.7 0.4 0.9 1.2 0.5 1.8zM832.2 744.8c0 0.7-0.6 1.3-1.3 1.3h-9.6c-0.7 0-1.3-0.6-1.3-1.3 0-0.7 0.6-1.3 1.3-1.3h9.6c0.7 0 1.3 0.6 1.3 1.3zM833.3 748.4c0.4 0.6 0.1 1.4-0.5 1.8l-8.3 4.8c-0.6 0.4-1.4 0.1-1.8-0.5-0.4-0.6-0.1-1.4 0.5-1.8l8.3-4.8c0.7-0.3 1.5-0.1 1.8 0.5zM836.1 751c0.6 0.4 0.8 1.2 0.5 1.8l-4.8 8.3c-0.4 0.6-1.2 0.8-1.8 0.5-0.6-0.4-0.8-1.2-0.5-1.8l4.8-8.3c0.4-0.7 1.2-0.9 1.8-0.5zM839.8 751.8c0.7 0 1.3 0.6 1.3 1.3v9.6c0 0.7-0.6 1.3-1.3 1.3-0.7 0-1.3-0.6-1.3-1.3v-9.6c0-0.7 0.6-1.3 1.3-1.3zM843.4 750.7c0.6-0.4 1.4-0.1 1.8 0.5l4.8 8.3c0.4 0.6 0.1 1.4-0.5 1.8-0.6 0.4-1.4 0.1-1.8-0.5l-4.8-8.3c-0.3-0.7-0.1-1.5 0.5-1.8zM846 747.9c0.4-0.6 1.2-0.8 1.8-0.5l8.3 4.8c0.6 0.4 0.8 1.2 0.5 1.8-0.4 0.6-1.2 0.8-1.8 0.5l-8.3-4.8c-0.7-0.4-0.9-1.2-0.5-1.8zM846.8 744.2c0-0.7 0.6-1.3 1.3-1.3h9.6c0.7 0 1.3 0.6 1.3 1.3 0 0.7-0.6 1.3-1.3 1.3h-9.6c-0.7 0-1.3-0.6-1.3-1.3zM845.7 740.6c-0.4-0.6-0.1-1.4 0.5-1.8l8.3-4.8c0.6-0.4 1.4-0.1 1.8 0.5 0.4 0.6 0.1 1.4-0.5 1.8l-8.3 4.8c-0.7 0.3-1.5 0.1-1.8-0.5zM842.9 738c-0.6-0.4-0.8-1.2-0.5-1.8l4.8-8.3c0.4-0.6 1.2-0.8 1.8-0.5 0.6 0.4 0.8 1.2 0.5 1.8l-4.8 8.3c-0.4 0.7-1.2 0.9-1.8 0.5z" fill="#F4D676" p-id="3253"></path><path d="M779.2 159.2c-0.7 0-1.3-0.6-1.3-1.3v-9.6c0-0.7 0.6-1.3 1.3-1.3 0.7 0 1.3 0.6 1.3 1.3v9.6c0 0.7-0.6 1.3-1.3 1.3zM775.6 160.3c-0.6 0.4-1.4 0.1-1.8-0.5l-4.8-8.3c-0.4-0.6-0.1-1.4 0.5-1.8 0.6-0.4 1.4-0.1 1.8 0.5l4.8 8.3c0.3 0.7 0.1 1.5-0.5 1.8zM773 163.1c-0.4 0.6-1.2 0.8-1.8 0.5l-8.3-4.8c-0.6-0.4-0.8-1.2-0.5-1.8 0.4-0.6 1.2-0.8 1.8-0.5l8.3 4.8c0.7 0.4 0.9 1.2 0.5 1.8zM772.2 166.8c0 0.7-0.6 1.3-1.3 1.3h-9.6c-0.7 0-1.3-0.6-1.3-1.3 0-0.7 0.6-1.3 1.3-1.3h9.6c0.7 0 1.3 0.6 1.3 1.3zM773.3 170.4c0.4 0.6 0.1 1.4-0.5 1.8l-8.3 4.8c-0.6 0.4-1.4 0.1-1.8-0.5-0.4-0.6-0.1-1.4 0.5-1.8l8.3-4.8c0.7-0.3 1.5-0.1 1.8 0.5zM776.1 173c0.6 0.4 0.8 1.2 0.5 1.8l-4.8 8.3c-0.4 0.6-1.2 0.8-1.8 0.5-0.6-0.4-0.8-1.2-0.5-1.8l4.8-8.3c0.4-0.7 1.2-0.9 1.8-0.5zM779.8 173.8c0.7 0 1.3 0.6 1.3 1.3v9.6c0 0.7-0.6 1.3-1.3 1.3-0.7 0-1.3-0.6-1.3-1.3v-9.6c0-0.7 0.6-1.3 1.3-1.3zM783.4 172.7c0.6-0.4 1.4-0.1 1.8 0.5l4.8 8.3c0.4 0.6 0.1 1.4-0.5 1.8-0.6 0.4-1.4 0.1-1.8-0.5l-4.8-8.3c-0.3-0.7-0.1-1.5 0.5-1.8zM786 169.9c0.4-0.6 1.2-0.8 1.8-0.5l8.3 4.8c0.6 0.4 0.8 1.2 0.5 1.8-0.4 0.6-1.2 0.8-1.8 0.5l-8.3-4.8c-0.7-0.4-0.9-1.2-0.5-1.8zM786.8 166.2c0-0.7 0.6-1.3 1.3-1.3h9.6c0.7 0 1.3 0.6 1.3 1.3 0 0.7-0.6 1.3-1.3 1.3h-9.6c-0.7 0-1.3-0.6-1.3-1.3zM785.7 162.6c-0.4-0.6-0.1-1.4 0.5-1.8l8.3-4.8c0.6-0.4 1.4-0.1 1.8 0.5 0.4 0.6 0.1 1.4-0.5 1.8l-8.3 4.8c-0.7 0.3-1.5 0.1-1.8-0.5zM782.9 160c-0.6-0.4-0.8-1.2-0.5-1.8l4.8-8.3c0.4-0.6 1.2-0.8 1.8-0.5 0.6 0.4 0.8 1.2 0.5 1.8l-4.8 8.3c-0.4 0.7-1.2 0.9-1.8 0.5z" fill="#F4AD9F" p-id="3254"></path><path d="M219.2 758.7l2.9 5.8c0.2 0.4 0.5 0.6 1 0.7l6.4 0.9c1.1 0.2 1.5 1.4 0.7 2.2l-4.7 4.5c-0.3 0.3-0.4 0.7-0.4 1.1l1.1 6.4c0.2 1-0.9 1.8-1.9 1.4l-5.7-3c-0.4-0.2-0.8-0.2-1.2 0l-5.7 3c-0.9 0.5-2-0.3-1.9-1.4l1.1-6.4c0.1-0.4-0.1-0.8-0.4-1.1l-4.7-4.5c-0.8-0.7-0.3-2 0.7-2.2l6.4-0.9c0.4-0.1 0.8-0.3 1-0.7l2.9-5.8c0.5-0.9 1.9-0.9 2.4 0z" fill="#F4AD9F" p-id="3255"></path><path d="M716.2 92.7l2.9 5.8c0.2 0.4 0.5 0.6 1 0.7l6.4 0.9c1.1 0.2 1.5 1.4 0.7 2.2l-4.7 4.5c-0.3 0.3-0.4 0.7-0.4 1.1l1.1 6.4c0.2 1-0.9 1.8-1.9 1.4l-5.7-3c-0.4-0.2-0.8-0.2-1.2 0l-5.7 3c-0.9 0.5-2-0.3-1.9-1.4l1.1-6.4c0.1-0.4-0.1-0.8-0.4-1.1l-4.7-4.5c-0.8-0.7-0.3-2 0.7-2.2l6.4-0.9c0.4-0.1 0.8-0.3 1-0.7l2.9-5.8c0.5-0.9 1.9-0.9 2.4 0z" fill="#F4D676" p-id="3256"></path><path d="M190.9 483.7c9.6-1.9 19.2-3.3 28.9-4.3 36.3-3.7 75.2-1.8 109.4 11.8 34.8 13.8 64.8 35.9 93.9 59.1 7.2 5.7 14.3 11.5 21.5 17.2 3.5 2.8 7.1 5.7 10.7 8.5l4.2 3.3c0.3 0.2 2.6 2 3.2 2.5 14.4 10.9 29.2 21.2 45.9 28.4 0.2 0.1 2.7 1.1 3 1.2 1 0.4 2.1 0.8 3.1 1.2 2.3 0.8 4.7 1.6 7 2.4 4.4 1.4 8.9 2.6 13.4 3.7s9.1 1.9 13.7 2.6c0.4 0.1 1 0.1 1.1 0.2 1.1 0.1 2.1 0.2 3.2 0.3l7.2 0.6c9.4 0.5 18.8 0.4 28.2-0.5 1.6-0.2 3.2-0.3 4.8-0.5 0.1 0 0.5-0.1 0.9-0.1 2-0.3 4.1-0.6 6.1-1 4.5-0.8 9.1-1.8 13.5-2.9 19.9-5.1 34.5-11.2 52-21.5 8.1-4.8 15.9-10 23.6-15.5 2.2-1.6 4.4-3.2 6.6-4.9 0.9-0.7 1.8-1.3 2.6-2 0.3-0.2 0.6-0.4 0.8-0.6 0.1-0.1 0.3-0.2 0.5-0.4 3.7-2.9 7.3-5.8 10.9-8.8 29.7-24.5 57-51.7 86.9-76 15.1-12.3 30.8-24 47.6-33.9-19-74.1-62.6-138.2-121.7-183.2 2-7.3 3.1-15 3.1-23 0-47.3-38.5-85.8-85.8-85.8-13.6 0-26.9 3.3-38.9 9.3-17.7-26.2-47.6-42.9-80.5-42.9s-62.8 16.7-80.5 42.9c-11.9-6-25.2-9.3-38.9-9.3-47.3 0-85.8 38.5-85.8 85.8 0 7.8 1 15.4 3 22.5-67.1 50.7-114.6 126.5-128.4 213.6z" fill="#F4AD9F" p-id="3257"></path><path d="M829.9 502.7c-0.2 0.1-1.8 1.4-2.3 1.8-0.5 0.4-1.4 1.1-1.5 1.2-1.9 1.5-3.8 3-5.7 4.6-3.4 2.7-6.7 5.5-10.1 8.4-7.1 6-14.1 12.2-21 18.4-29.1 26-57.6 53-89.9 75.1-33 22.7-70.2 37.6-110.3 41.6-39.2 3.9-79.4-4.8-113.6-24.2-15.8-8.9-30.1-20.5-44.3-31.7-13.8-10.8-27.2-22-41.1-32.7-0.6-0.4-1.1-0.9-1.7-1.3-0.8-0.6-1.6-1.2-2.4-1.9-1.6-1.2-3.3-2.5-4.9-3.7-3.5-2.6-7-5.1-10.5-7.6-7-4.9-14.2-9.7-21.6-14-7.5-4.5-15.3-8.6-23.2-12.2-1-0.4-2-0.9-3-1.3-0.3-0.1-0.6-0.2-0.7-0.3l-6.3-2.4c-4-1.4-8-2.8-12.1-3.9-4.1-1.2-8.2-2.2-12.4-3-1.9-0.4-3.8-0.7-5.8-1-0.4 0-3.8-0.5-4.2-0.5-8.7-1-17.5-1.6-26.3-1.7-9.1-0.2-18.3 0-27.4 0.7-4.7 0.3-9.4 0.8-14.1 1.4h-0.4c-1 0.2-2.1 0.3-3.1 0.5-2.3 0.4-4.7 0.8-7 1.2-5.3 1-10.5 2.1-15.8 3.4-0.4 6.4-0.6 12.8-0.6 19.3 0 184.8 149.8 259.9 334.5 259.9s334.4-75.2 334.4-259.9c0-16.9-1.3-33.4-3.7-49.6-7.4 4.7-14.7 10-21.9 15.4z" fill="#76B767" p-id="3258"></path><path d="M393.8 298.3c-2.5 0.9-60.3 24.8-103.1 93.1-4.5 7.2-2.4 16.8 4.8 21.4 2.6 1.6 5.4 2.4 8.3 2.4 5.2 0 10.2-2.6 13.1-7.2 37.2-59.2 87.7-80.5 88.5-80.8 7.9-3.2 11.8-12.2 8.6-20.1-3.3-8.2-12.2-12-20.2-8.8zM660.5 298.3c-7.9-3.2-16.9 0.6-20.1 8.6-3.2 7.9 0.6 16.9 8.6 20.1 0.5 0.2 51.2 21.5 88.5 80.8 2.9 4.6 7.9 7.2 13.1 7.2 2.8 0 5.7-0.7 8.3-2.4 7.2-4.5 9.4-14.1 4.9-21.4-43-68.1-100.9-92-103.3-92.9zM493.9 304.3c-6.9-5-16.6-3.4-21.6 3.5-1.6 2.3-39.9 56.3-42.1 128.3-0.3 8.6 6.5 15.7 15 15.9h0.5c8.4 0 15.2-6.6 15.5-15 1.9-62.2 36-110.6 36.3-111.2 4.9-6.8 3.3-16.4-3.6-21.5zM560.5 304.3c-6.9 5-8.6 14.7-3.6 21.6 0.3 0.5 34.5 48.9 36.3 111.2 0.2 8.4 7.1 15 15.5 15h0.5c8.6-0.3 15.3-7.4 15-15.9-2.2-72-40.5-126-42.1-128.3-5.1-7-14.7-8.6-21.6-3.6z" fill="#E0E6E7" p-id="3259"></path></svg>