<?xml version="1.0" standalone="no"?><!DOCTYPE svg PUBLIC "-//W3C//DTD SVG 1.1//EN" "http://www.w3.org/Graphics/SVG/1.1/DTD/svg11.dtd"><svg t="1681894936592" class="icon" viewBox="0 0 1024 1024" version="1.1" xmlns="http://www.w3.org/2000/svg" p-id="3404" xmlns:xlink="http://www.w3.org/1999/xlink" width="200" height="200"><path d="M200.2 823h-27.3c-3.8 0-7.3 2.7-7.8 6.5-0.6 4.5 3 8.5 7.4 8.5h27.7c4.1 0 7.5-3.4 7.5-7.5s-3.4-7.5-7.5-7.5zM780.2 823H674.5c-4.1 0-7.5 3.4-7.5 7.5s3.4 7.5 7.5 7.5h105.7c4.1 0 7.5-3.4 7.5-7.5s-3.4-7.5-7.5-7.5zM797.7 830.5c0 4.1 3.4 7.5 7.5 7.5h47c4.1 0 7.5-3.4 7.5-7.5s-3.4-7.5-7.5-7.5h-47c-4.2 0-7.5 3.4-7.5 7.5zM649.5 823H225.2c-4.1 0-7.5 3.4-7.5 7.5s3.4 7.5 7.5 7.5h424.3c4.1 0 7.5-3.4 7.5-7.5s-3.4-7.5-7.5-7.5zM599.8 885H330.7c-4.4 0-8 3.6-8 8s3.6 8 8 8H600c4.8 0 8.7-4.3 7.9-9.3-0.6-3.9-4.2-6.7-8.1-6.7zM304.7 885h-54.4c-4 0-7.5 2.8-8.1 6.7-0.8 5 3.1 9.3 7.9 9.3h54.7c4.4 0 8-3.6 8-8-0.1-4.4-3.7-8-8.1-8z" fill="#76B767" p-id="3405"></path><path d="M216.7 214.7h-8.5v-8.5c0-1.8-1.5-3.3-3.3-3.3s-3.3 1.5-3.3 3.3v8.5h-8.5c-1.8 0-3.3 1.5-3.3 3.3s1.5 3.3 3.3 3.3h8.5v8.5c0 1.8 1.5 3.3 3.3 3.3s3.3-1.5 3.3-3.3v-8.5h8.5c1.8 0 3.3-1.5 3.3-3.3s-1.5-3.3-3.3-3.3z" fill="#F4AD9F" p-id="3406"></path><path d="M897.7 321.7h-8.5v-8.5c0-1.8-1.5-3.3-3.3-3.3s-3.3 1.5-3.3 3.3v8.5h-8.5c-1.8 0-3.3 1.5-3.3 3.3s1.5 3.3 3.3 3.3h8.5v8.5c0 1.8 1.5 3.3 3.3 3.3s3.3-1.5 3.3-3.3v-8.5h8.5c1.8 0 3.3-1.5 3.3-3.3s-1.5-3.3-3.3-3.3z" fill="#76B767" p-id="3407"></path><path d="M839.2 737.2c-0.7 0-1.3-0.6-1.3-1.3v-9.6c0-0.7 0.6-1.3 1.3-1.3 0.7 0 1.3 0.6 1.3 1.3v9.6c0 0.7-0.6 1.3-1.3 1.3zM835.6 738.3c-0.6 0.4-1.4 0.1-1.8-0.5l-4.8-8.3c-0.4-0.6-0.1-1.4 0.5-1.8 0.6-0.4 1.4-0.1 1.8 0.5l4.8 8.3c0.3 0.7 0.1 1.5-0.5 1.8zM833 741.1c-0.4 0.6-1.2 0.8-1.8 0.5l-8.3-4.8c-0.6-0.4-0.8-1.2-0.5-1.8 0.4-0.6 1.2-0.8 1.8-0.5l8.3 4.8c0.7 0.4 0.9 1.2 0.5 1.8zM832.2 744.8c0 0.7-0.6 1.3-1.3 1.3h-9.6c-0.7 0-1.3-0.6-1.3-1.3 0-0.7 0.6-1.3 1.3-1.3h9.6c0.7 0 1.3 0.6 1.3 1.3zM833.3 748.4c0.4 0.6 0.1 1.4-0.5 1.8l-8.3 4.8c-0.6 0.4-1.4 0.1-1.8-0.5-0.4-0.6-0.1-1.4 0.5-1.8l8.3-4.8c0.7-0.3 1.5-0.1 1.8 0.5zM836.1 751c0.6 0.4 0.8 1.2 0.5 1.8l-4.8 8.3c-0.4 0.6-1.2 0.8-1.8 0.5-0.6-0.4-0.8-1.2-0.5-1.8l4.8-8.3c0.4-0.7 1.2-0.9 1.8-0.5zM839.8 751.8c0.7 0 1.3 0.6 1.3 1.3v9.6c0 0.7-0.6 1.3-1.3 1.3-0.7 0-1.3-0.6-1.3-1.3v-9.6c0-0.7 0.6-1.3 1.3-1.3zM843.4 750.7c0.6-0.4 1.4-0.1 1.8 0.5l4.8 8.3c0.4 0.6 0.1 1.4-0.5 1.8-0.6 0.4-1.4 0.1-1.8-0.5l-4.8-8.3c-0.3-0.7-0.1-1.5 0.5-1.8zM846 747.9c0.4-0.6 1.2-0.8 1.8-0.5l8.3 4.8c0.6 0.4 0.8 1.2 0.5 1.8-0.4 0.6-1.2 0.8-1.8 0.5l-8.3-4.8c-0.7-0.4-0.9-1.2-0.5-1.8zM846.8 744.2c0-0.7 0.6-1.3 1.3-1.3h9.6c0.7 0 1.3 0.6 1.3 1.3 0 0.7-0.6 1.3-1.3 1.3h-9.6c-0.7 0-1.3-0.6-1.3-1.3zM845.7 740.6c-0.4-0.6-0.1-1.4 0.5-1.8l8.3-4.8c0.6-0.4 1.4-0.1 1.8 0.5 0.4 0.6 0.1 1.4-0.5 1.8l-8.3 4.8c-0.7 0.3-1.5 0.1-1.8-0.5zM842.9 738c-0.6-0.4-0.8-1.2-0.5-1.8l4.8-8.3c0.4-0.6 1.2-0.8 1.8-0.5 0.6 0.4 0.8 1.2 0.5 1.8l-4.8 8.3c-0.4 0.7-1.2 0.9-1.8 0.5z" fill="#F4D676" p-id="3408"></path><path d="M779.2 159.2c-0.7 0-1.3-0.6-1.3-1.3v-9.6c0-0.7 0.6-1.3 1.3-1.3 0.7 0 1.3 0.6 1.3 1.3v9.6c0 0.7-0.6 1.3-1.3 1.3zM775.6 160.3c-0.6 0.4-1.4 0.1-1.8-0.5l-4.8-8.3c-0.4-0.6-0.1-1.4 0.5-1.8 0.6-0.4 1.4-0.1 1.8 0.5l4.8 8.3c0.3 0.7 0.1 1.5-0.5 1.8zM773 163.1c-0.4 0.6-1.2 0.8-1.8 0.5l-8.3-4.8c-0.6-0.4-0.8-1.2-0.5-1.8 0.4-0.6 1.2-0.8 1.8-0.5l8.3 4.8c0.7 0.4 0.9 1.2 0.5 1.8zM772.2 166.8c0 0.7-0.6 1.3-1.3 1.3h-9.6c-0.7 0-1.3-0.6-1.3-1.3 0-0.7 0.6-1.3 1.3-1.3h9.6c0.7 0 1.3 0.6 1.3 1.3zM773.3 170.4c0.4 0.6 0.1 1.4-0.5 1.8l-8.3 4.8c-0.6 0.4-1.4 0.1-1.8-0.5-0.4-0.6-0.1-1.4 0.5-1.8l8.3-4.8c0.7-0.3 1.5-0.1 1.8 0.5zM776.1 173c0.6 0.4 0.8 1.2 0.5 1.8l-4.8 8.3c-0.4 0.6-1.2 0.8-1.8 0.5-0.6-0.4-0.8-1.2-0.5-1.8l4.8-8.3c0.4-0.7 1.2-0.9 1.8-0.5zM779.8 173.8c0.7 0 1.3 0.6 1.3 1.3v9.6c0 0.7-0.6 1.3-1.3 1.3-0.7 0-1.3-0.6-1.3-1.3v-9.6c0-0.7 0.6-1.3 1.3-1.3zM783.4 172.7c0.6-0.4 1.4-0.1 1.8 0.5l4.8 8.3c0.4 0.6 0.1 1.4-0.5 1.8-0.6 0.4-1.4 0.1-1.8-0.5l-4.8-8.3c-0.3-0.7-0.1-1.5 0.5-1.8zM786 169.9c0.4-0.6 1.2-0.8 1.8-0.5l8.3 4.8c0.6 0.4 0.8 1.2 0.5 1.8-0.4 0.6-1.2 0.8-1.8 0.5l-8.3-4.8c-0.7-0.4-0.9-1.2-0.5-1.8zM786.8 166.2c0-0.7 0.6-1.3 1.3-1.3h9.6c0.7 0 1.3 0.6 1.3 1.3 0 0.7-0.6 1.3-1.3 1.3h-9.6c-0.7 0-1.3-0.6-1.3-1.3zM785.7 162.6c-0.4-0.6-0.1-1.4 0.5-1.8l8.3-4.8c0.6-0.4 1.4-0.1 1.8 0.5 0.4 0.6 0.1 1.4-0.5 1.8l-8.3 4.8c-0.7 0.3-1.5 0.1-1.8-0.5zM782.9 160c-0.6-0.4-0.8-1.2-0.5-1.8l4.8-8.3c0.4-0.6 1.2-0.8 1.8-0.5 0.6 0.4 0.8 1.2 0.5 1.8l-4.8 8.3c-0.4 0.7-1.2 0.9-1.8 0.5z" fill="#F4AD9F" p-id="3409"></path><path d="M219.2 758.7l2.9 5.8c0.2 0.4 0.5 0.6 1 0.7l6.4 0.9c1.1 0.2 1.5 1.4 0.7 2.2l-4.7 4.5c-0.3 0.3-0.4 0.7-0.4 1.1l1.1 6.4c0.2 1-0.9 1.8-1.9 1.4l-5.7-3c-0.4-0.2-0.8-0.2-1.2 0l-5.7 3c-0.9 0.5-2-0.3-1.9-1.4l1.1-6.4c0.1-0.4-0.1-0.8-0.4-1.1l-4.7-4.5c-0.8-0.7-0.3-2 0.7-2.2l6.4-0.9c0.4-0.1 0.8-0.3 1-0.7l2.9-5.8c0.5-0.9 1.9-0.9 2.4 0z" fill="#F4AD9F" p-id="3410"></path><path d="M716.2 92.7l2.9 5.8c0.2 0.4 0.5 0.6 1 0.7l6.4 0.9c1.1 0.2 1.5 1.4 0.7 2.2l-4.7 4.5c-0.3 0.3-0.4 0.7-0.4 1.1l1.1 6.4c0.2 1-0.9 1.8-1.9 1.4l-5.7-3c-0.4-0.2-0.8-0.2-1.2 0l-5.7 3c-0.9 0.5-2-0.3-1.9-1.4l1.1-6.4c0.1-0.4-0.1-0.8-0.4-1.1l-4.7-4.5c-0.8-0.7-0.3-2 0.7-2.2l6.4-0.9c0.4-0.1 0.8-0.3 1-0.7l2.9-5.8c0.5-0.9 1.9-0.9 2.4 0z" fill="#F4D676" p-id="3411"></path><path d="M666.1 464.7c-14.4-49.3-37.4-96.3-68.2-137.3-30.4-40.6-67.6-78.5-113.6-101.1-18.3-9-37.7-15.6-57.8-18.7 15.1-19.1 27.1-40.8 35.5-64.2 3.5-9.9-4-22.3-14-24.6-11.2-2.6-20.8 3.4-24.6 14-0.7 1.9-1.3 3.7-2.1 5.6-0.1 0.3-0.8 2-1.2 3.1-0.5 1.1-1.2 2.8-1.4 3.1-0.8 1.8-1.7 3.6-2.6 5.4-3.1 6.2-6.5 12.3-10.2 18.2-1.9 2.9-3.8 5.8-5.8 8.7-1.1 1.6-2.3 3.2-3.5 4.8-0.1 0.1-0.2 0.2-0.2 0.3-0.1 0.1-0.2 0.2-0.3 0.4-4.6 5.6-9.3 11-14.3 16.2-5.1 5.1-10.4 10-15.9 14.6-1.1 0.9-2.2 1.8-3.3 2.6-0.7 0.5-1.4 1-2.1 1.6-2.8 2.1-5.7 4-8.6 6-5.8 3.8-11.8 7.3-18 10.5-3.1 1.6-6.2 3.1-9.4 4.6-0.7 0.3-1.5 0.7-2.2 1l-5.4 2.1c-9.8 3.7-17.5 13.7-14 24.6 3.1 9.5 14.1 17.9 24.6 14 19.8-7.4 38.4-17.6 55.1-29.9 0.2 1.1 0.3 2.3 0.5 3.4v0.5c0 0.2 0 0.4 0.1 0.6 0.1 0.6 0.1 1.2 0.2 1.7l0.9 8.1c1 9.7 1.8 19.4 2.2 29.1 0.9 19.4 0.6 38.9-0.9 58.3-0.3 4.5-0.7 9.1-1.2 13.6-0.2 2.4-0.5 4.8-0.8 7.2-0.1 1.2-0.3 2.4-0.4 3.6-0.1 0.4-0.2 1.6-0.3 2.3-1.3 9.2-2.9 18.3-4.7 27.4-3.8 19.1-8.8 37.9-14.9 56.3-7.1 21.6-16.4 42.3-24.8 63.5-3.9 9.7 4.2 22.4 14 24.6 11.5 2.6 20.4-3.5 24.6-14 7.7-19.4 16.3-38.5 23.1-58.3 6.4-18.7 11.6-37.7 15.7-57 8.4-40 12.3-81.2 10.9-122.1-0.6-17.3-2.1-34.6-4.5-51.8h0.2c3.1 0.6 6.2 1.2 9.3 2 5.1 1.2 10.2 2.7 15.1 4.4 2.5 0.9 5 1.8 7.4 2.7 0.1 0 1.4 0.6 2.3 1 1.1 0.5 2.9 1.3 3.2 1.4 10.2 4.7 20 10.3 29.4 16.5 4.7 3.1 9.3 6.5 13.8 9.8 0.1 0.1 0.3 0.2 0.5 0.4 1.3 1 2.5 2 3.8 3.1 2.3 1.9 4.6 3.8 6.8 5.8 17.3 15.1 32.8 32.1 47 50.2 0.5 0.7 1.6 2.1 1.8 2.4 0.7 0.9 1.3 1.8 2 2.7 1.7 2.3 3.3 4.5 4.9 6.8 3.7 5.3 7.3 10.6 10.8 16.1 6.5 10.2 12.6 20.6 18.2 31.3 3.1 6 6.1 12 8.9 18.1 1.4 3.1 2.8 6.1 4.1 9.2 0.1 0.2 0.2 0.5 0.3 0.8 0.7 1.8 1.5 3.5 2.2 5.3 5 12.5 9.4 25.3 13.1 38.2 2.9 10 14.2 17.3 24.6 14 10.4-3.5 17.3-14 14.1-24.8z" fill="#76B767" p-id="3412"></path><path d="M377 773c-74.3 0-135-60.7-135-135 0-74.2 60.7-135 135-135 74.2 0 135 60.7 135 135s-60.7 135-135 135zM667 714c-74.3 0-135-60.7-135-135 0-74.2 60.7-135 135-135 74.2 0 135 60.7 135 135s-60.7 135-135 135z" fill="#F7664D" p-id="3413"></path><path d="M342.6 537.7c-2.9-5-8.8-5.9-13.7-3.6-12.6 5.9-23.1 16.3-29.2 28.8-2.4 4.8-1.3 10.8 3.6 13.7 4.4 2.6 11.3 1.3 13.7-3.6 4.8-9.8 12.2-17 22.1-21.6 4.8-2.3 6-9.3 3.5-13.7zM282.3 591c-12.9 0-12.9 20 0 20s12.9-20 0-20zM618.2 482.6c-4.2-4.2-9.9-3.4-14.1 0-13.3 10.7-22.9 25.1-28.5 41.1-1.8 5.1 2 10.9 7 12.3 5.5 1.5 10.5-1.9 12.3-7 4.5-12.9 12.7-23.8 23.3-32.3 4.2-3.3 3.6-10.5 0-14.1zM578.3 548.3c-12.9 0-12.9 20 0 20s12.9-20 0-20z" fill="#FFFFFF" p-id="3414"></path></svg>