<?xml version="1.0" standalone="no"?><!DOCTYPE svg PUBLIC "-//W3C//DTD SVG 1.1//EN" "http://www.w3.org/Graphics/SVG/1.1/DTD/svg11.dtd"><svg t="1681894879066" class="icon" viewBox="0 0 1024 1024" version="1.1" xmlns="http://www.w3.org/2000/svg" p-id="3093" xmlns:xlink="http://www.w3.org/1999/xlink" width="200" height="200"><path d="M200.2 823h-27.3c-3.8 0-7.3 2.7-7.8 6.5-0.6 4.5 3 8.5 7.4 8.5h27.7c4.1 0 7.5-3.4 7.5-7.5s-3.4-7.5-7.5-7.5zM780.2 823H674.5c-4.1 0-7.5 3.4-7.5 7.5s3.4 7.5 7.5 7.5h105.7c4.1 0 7.5-3.4 7.5-7.5s-3.4-7.5-7.5-7.5zM797.7 830.5c0 4.1 3.4 7.5 7.5 7.5h47c4.1 0 7.5-3.4 7.5-7.5s-3.4-7.5-7.5-7.5h-47c-4.2 0-7.5 3.4-7.5 7.5zM649.5 823H225.2c-4.1 0-7.5 3.4-7.5 7.5s3.4 7.5 7.5 7.5h424.3c4.1 0 7.5-3.4 7.5-7.5s-3.4-7.5-7.5-7.5zM599.8 885H330.7c-4.4 0-8 3.6-8 8s3.6 8 8 8H600c4.8 0 8.7-4.3 7.9-9.3-0.6-3.9-4.2-6.7-8.1-6.7zM304.7 885h-54.4c-4 0-7.5 2.8-8.1 6.7-0.8 5 3.1 9.3 7.9 9.3h54.7c4.4 0 8-3.6 8-8-0.1-4.4-3.7-8-8.1-8z" fill="#76B767" p-id="3094"></path><path d="M216.7 214.7h-8.5v-8.5c0-1.8-1.5-3.3-3.3-3.3s-3.3 1.5-3.3 3.3v8.5h-8.5c-1.8 0-3.3 1.5-3.3 3.3s1.5 3.3 3.3 3.3h8.5v8.5c0 1.8 1.5 3.3 3.3 3.3s3.3-1.5 3.3-3.3v-8.5h8.5c1.8 0 3.3-1.5 3.3-3.3s-1.5-3.3-3.3-3.3z" fill="#F4AD9F" p-id="3095"></path><path d="M897.7 321.7h-8.5v-8.5c0-1.8-1.5-3.3-3.3-3.3s-3.3 1.5-3.3 3.3v8.5h-8.5c-1.8 0-3.3 1.5-3.3 3.3s1.5 3.3 3.3 3.3h8.5v8.5c0 1.8 1.5 3.3 3.3 3.3s3.3-1.5 3.3-3.3v-8.5h8.5c1.8 0 3.3-1.5 3.3-3.3s-1.5-3.3-3.3-3.3z" fill="#76B767" p-id="3096"></path><path d="M839.2 737.2c-0.7 0-1.3-0.6-1.3-1.3v-9.6c0-0.7 0.6-1.3 1.3-1.3 0.7 0 1.3 0.6 1.3 1.3v9.6c0 0.7-0.6 1.3-1.3 1.3zM835.6 738.3c-0.6 0.4-1.4 0.1-1.8-0.5l-4.8-8.3c-0.4-0.6-0.1-1.4 0.5-1.8 0.6-0.4 1.4-0.1 1.8 0.5l4.8 8.3c0.3 0.7 0.1 1.5-0.5 1.8zM833 741.1c-0.4 0.6-1.2 0.8-1.8 0.5l-8.3-4.8c-0.6-0.4-0.8-1.2-0.5-1.8 0.4-0.6 1.2-0.8 1.8-0.5l8.3 4.8c0.7 0.4 0.9 1.2 0.5 1.8zM832.2 744.8c0 0.7-0.6 1.3-1.3 1.3h-9.6c-0.7 0-1.3-0.6-1.3-1.3 0-0.7 0.6-1.3 1.3-1.3h9.6c0.7 0 1.3 0.6 1.3 1.3zM833.3 748.4c0.4 0.6 0.1 1.4-0.5 1.8l-8.3 4.8c-0.6 0.4-1.4 0.1-1.8-0.5-0.4-0.6-0.1-1.4 0.5-1.8l8.3-4.8c0.7-0.3 1.5-0.1 1.8 0.5zM836.1 751c0.6 0.4 0.8 1.2 0.5 1.8l-4.8 8.3c-0.4 0.6-1.2 0.8-1.8 0.5-0.6-0.4-0.8-1.2-0.5-1.8l4.8-8.3c0.4-0.7 1.2-0.9 1.8-0.5zM839.8 751.8c0.7 0 1.3 0.6 1.3 1.3v9.6c0 0.7-0.6 1.3-1.3 1.3-0.7 0-1.3-0.6-1.3-1.3v-9.6c0-0.7 0.6-1.3 1.3-1.3zM843.4 750.7c0.6-0.4 1.4-0.1 1.8 0.5l4.8 8.3c0.4 0.6 0.1 1.4-0.5 1.8-0.6 0.4-1.4 0.1-1.8-0.5l-4.8-8.3c-0.3-0.7-0.1-1.5 0.5-1.8zM846 747.9c0.4-0.6 1.2-0.8 1.8-0.5l8.3 4.8c0.6 0.4 0.8 1.2 0.5 1.8-0.4 0.6-1.2 0.8-1.8 0.5l-8.3-4.8c-0.7-0.4-0.9-1.2-0.5-1.8zM846.8 744.2c0-0.7 0.6-1.3 1.3-1.3h9.6c0.7 0 1.3 0.6 1.3 1.3 0 0.7-0.6 1.3-1.3 1.3h-9.6c-0.7 0-1.3-0.6-1.3-1.3zM845.7 740.6c-0.4-0.6-0.1-1.4 0.5-1.8l8.3-4.8c0.6-0.4 1.4-0.1 1.8 0.5 0.4 0.6 0.1 1.4-0.5 1.8l-8.3 4.8c-0.7 0.3-1.5 0.1-1.8-0.5zM842.9 738c-0.6-0.4-0.8-1.2-0.5-1.8l4.8-8.3c0.4-0.6 1.2-0.8 1.8-0.5 0.6 0.4 0.8 1.2 0.5 1.8l-4.8 8.3c-0.4 0.7-1.2 0.9-1.8 0.5z" fill="#F4D676" p-id="3097"></path><path d="M779.2 159.2c-0.7 0-1.3-0.6-1.3-1.3v-9.6c0-0.7 0.6-1.3 1.3-1.3 0.7 0 1.3 0.6 1.3 1.3v9.6c0 0.7-0.6 1.3-1.3 1.3zM775.6 160.3c-0.6 0.4-1.4 0.1-1.8-0.5l-4.8-8.3c-0.4-0.6-0.1-1.4 0.5-1.8 0.6-0.4 1.4-0.1 1.8 0.5l4.8 8.3c0.3 0.7 0.1 1.5-0.5 1.8zM773 163.1c-0.4 0.6-1.2 0.8-1.8 0.5l-8.3-4.8c-0.6-0.4-0.8-1.2-0.5-1.8 0.4-0.6 1.2-0.8 1.8-0.5l8.3 4.8c0.7 0.4 0.9 1.2 0.5 1.8zM772.2 166.8c0 0.7-0.6 1.3-1.3 1.3h-9.6c-0.7 0-1.3-0.6-1.3-1.3 0-0.7 0.6-1.3 1.3-1.3h9.6c0.7 0 1.3 0.6 1.3 1.3zM773.3 170.4c0.4 0.6 0.1 1.4-0.5 1.8l-8.3 4.8c-0.6 0.4-1.4 0.1-1.8-0.5-0.4-0.6-0.1-1.4 0.5-1.8l8.3-4.8c0.7-0.3 1.5-0.1 1.8 0.5zM776.1 173c0.6 0.4 0.8 1.2 0.5 1.8l-4.8 8.3c-0.4 0.6-1.2 0.8-1.8 0.5-0.6-0.4-0.8-1.2-0.5-1.8l4.8-8.3c0.4-0.7 1.2-0.9 1.8-0.5zM779.8 173.8c0.7 0 1.3 0.6 1.3 1.3v9.6c0 0.7-0.6 1.3-1.3 1.3-0.7 0-1.3-0.6-1.3-1.3v-9.6c0-0.7 0.6-1.3 1.3-1.3zM783.4 172.7c0.6-0.4 1.4-0.1 1.8 0.5l4.8 8.3c0.4 0.6 0.1 1.4-0.5 1.8-0.6 0.4-1.4 0.1-1.8-0.5l-4.8-8.3c-0.3-0.7-0.1-1.5 0.5-1.8zM786 169.9c0.4-0.6 1.2-0.8 1.8-0.5l8.3 4.8c0.6 0.4 0.8 1.2 0.5 1.8-0.4 0.6-1.2 0.8-1.8 0.5l-8.3-4.8c-0.7-0.4-0.9-1.2-0.5-1.8zM786.8 166.2c0-0.7 0.6-1.3 1.3-1.3h9.6c0.7 0 1.3 0.6 1.3 1.3 0 0.7-0.6 1.3-1.3 1.3h-9.6c-0.7 0-1.3-0.6-1.3-1.3zM785.7 162.6c-0.4-0.6-0.1-1.4 0.5-1.8l8.3-4.8c0.6-0.4 1.4-0.1 1.8 0.5 0.4 0.6 0.1 1.4-0.5 1.8l-8.3 4.8c-0.7 0.3-1.5 0.1-1.8-0.5zM782.9 160c-0.6-0.4-0.8-1.2-0.5-1.8l4.8-8.3c0.4-0.6 1.2-0.8 1.8-0.5 0.6 0.4 0.8 1.2 0.5 1.8l-4.8 8.3c-0.4 0.7-1.2 0.9-1.8 0.5z" fill="#F4AD9F" p-id="3098"></path><path d="M219.2 758.7l2.9 5.8c0.2 0.4 0.5 0.6 1 0.7l6.4 0.9c1.1 0.2 1.5 1.4 0.7 2.2l-4.7 4.5c-0.3 0.3-0.4 0.7-0.4 1.1l1.1 6.4c0.2 1-0.9 1.8-1.9 1.4l-5.7-3c-0.4-0.2-0.8-0.2-1.2 0l-5.7 3c-0.9 0.5-2-0.3-1.9-1.4l1.1-6.4c0.1-0.4-0.1-0.8-0.4-1.1l-4.7-4.5c-0.8-0.7-0.3-2 0.7-2.2l6.4-0.9c0.4-0.1 0.8-0.3 1-0.7l2.9-5.8c0.5-0.9 1.9-0.9 2.4 0z" fill="#F4AD9F" p-id="3099"></path><path d="M716.2 92.7l2.9 5.8c0.2 0.4 0.5 0.6 1 0.7l6.4 0.9c1.1 0.2 1.5 1.4 0.7 2.2l-4.7 4.5c-0.3 0.3-0.4 0.7-0.4 1.1l1.1 6.4c0.2 1-0.9 1.8-1.9 1.4l-5.7-3c-0.4-0.2-0.8-0.2-1.2 0l-5.7 3c-0.9 0.5-2-0.3-1.9-1.4l1.1-6.4c0.1-0.4-0.1-0.8-0.4-1.1l-4.7-4.5c-0.8-0.7-0.3-2 0.7-2.2l6.4-0.9c0.4-0.1 0.8-0.3 1-0.7l2.9-5.8c0.5-0.9 1.9-0.9 2.4 0z" fill="#F4D676" p-id="3100"></path><path d="M569.1 244.4l-186.4 1.5c-41 0.3-80.4 16.7-108.9 46.2-39.5 40.8-64.1 93.6-65.9 151.3-0.1 2.2-0.1 4.5-0.1 6.7s0 4.5 0.1 6.8c3.9 127.8 116.5 361.8 269.4 361.8 155.7 0 269.6-242.4 269.6-368.6 0.5-61.5-25.2-117.7-67.4-160.5-29.1-29.3-69-45.5-110.4-45.2z" fill="#F4816E" p-id="3101"></path><path d="M658.3 183c-16.3-15-97.9-16.2-134.8 6.4l-28.8-74.9c-2.7-5.9-8.2-9.9-14.6-10.8-0.8-0.1-1.6-0.2-2.5-0.2-0.8 0-1.6 0.1-2.4 0.2-6.6 0.9-12.2 5.1-15 11.3l-29.8 75.9c-40.8-23.1-89.8-26.7-133.6-9.8-8.7 3.1-13.8 12.2-11.8 21.3 1.3 6.1 6.2 13.1 13.8 20.6 16.8 16.4 39.5 25.2 63 25.1l222.3-1.7c30.5-0.2 59-15.8 75.2-41.7 0.7-1 1.3-2.1 1.9-3.2 3.8-6.1 2.6-13.9-2.9-18.5z" fill="#76B767" p-id="3102"></path><path d="M570 555.5a24.5 32.5 0 1 0 49 0 24.5 32.5 0 1 0-49 0Z" fill="#E0E6E7" p-id="3103"></path><path d="M469 662.5a24.5 32.5 0 1 0 49 0 24.5 32.5 0 1 0-49 0Z" fill="#E0E6E7" p-id="3104"></path><path d="M606.372809 702.627118a24.5 32.5 21.907 1 0 24.251573-60.306394 24.5 32.5 21.907 1 0-24.251573 60.306394Z" fill="#E0E6E7" p-id="3105"></path><path d="M353.9 278.9c-25 7.1-44.6 26.2-53.2 50.6-2.1 6.1 2.4 13.1 8.4 14.8 6.6 1.8 12.6-2.2 14.8-8.4 5.7-16.2 19.8-29.1 36.4-33.9 14.8-4.2 8.5-27.3-6.4-23.1zM285 366.3c-15.4 0-15.5 24 0 24 15.4 0 15.5-24 0-24z" fill="#FFFFFF" p-id="3106"></path></svg>